<svg width="160" height="147" viewBox="0 0 160 147" fill="none" xmlns="http://www.w3.org/2000/svg">
<path d="M79.7852 73.6133C79.7852 84.4206 79.1341 94.3164 77.832 103.301C76.5951 112.22 74.4792 119.967 71.4844 126.543C68.4896 133.053 64.4531 138.099 59.375 141.68C54.2969 145.195 47.9492 146.953 40.332 146.953C31.7383 146.953 24.5117 144.447 18.6523 139.434C12.8581 134.421 8.46354 126.543 5.46875 115.801C2.47396 104.993 0.976562 90.931 0.976562 73.6133C0.976562 56.8815 2.40885 43.112 5.27344 32.3047C8.13802 21.4323 12.4674 13.3594 18.2617 8.08594C24.1211 2.8125 31.4779 0.175781 40.332 0.175781C49.1211 0.175781 56.4128 2.91016 62.207 8.37891C68.0664 13.8477 72.4609 22.0182 75.3906 32.8906C78.3203 43.763 79.7852 57.3372 79.7852 73.6133ZM27.9297 73.6133C27.9297 84.9414 28.2878 94.2839 29.0039 101.641C29.7852 108.932 31.0547 114.368 32.8125 117.949C34.6354 121.465 37.1419 123.223 40.332 123.223C43.5872 123.223 46.0938 121.465 47.8516 117.949C49.6745 114.368 50.944 108.932 51.6602 101.641C52.3763 94.2839 52.7344 84.9414 52.7344 73.6133C52.7344 62.6107 52.3763 53.431 51.6602 46.0742C50.944 38.7174 49.6745 33.2161 47.8516 29.5703C46.0938 25.8594 43.5872 24.0039 40.332 24.0039C37.207 24.0039 34.7331 25.8268 32.9102 29.4727C31.0872 33.1185 29.7852 38.6198 29.0039 45.9766C28.2878 53.3333 27.9297 62.5456 27.9297 73.6133ZM159.082 145H132.324V61.6016C132.324 58.6068 132.324 55.6771 132.324 52.8125C132.389 49.8828 132.454 47.0182 132.52 44.2188C132.65 41.3542 132.78 38.5547 132.91 35.8203C131.999 37.0573 130.924 38.457 129.688 40.0195C128.451 41.582 126.986 43.3073 125.293 45.1953L112.891 57.9883L96.875 42.168L135.254 2.22656H159.082V145Z" fill="#ECF3FE"/>
</svg>
