<svg width="173" height="147" viewBox="0 0 173 147" fill="none" xmlns="http://www.w3.org/2000/svg">
<path d="M79.7852 73.6133C79.7852 84.4206 79.1341 94.3164 77.832 103.301C76.5951 112.22 74.4792 119.967 71.4844 126.543C68.4896 133.053 64.4531 138.099 59.375 141.68C54.2969 145.195 47.9492 146.953 40.332 146.953C31.7383 146.953 24.5117 144.447 18.6523 139.434C12.8581 134.421 8.46354 126.543 5.46875 115.801C2.47396 104.993 0.976562 90.931 0.976562 73.6133C0.976562 56.8815 2.40885 43.112 5.27344 32.3047C8.13802 21.4323 12.4674 13.3594 18.2617 8.08594C24.1211 2.8125 31.4779 0.175781 40.332 0.175781C49.1211 0.175781 56.4128 2.91016 62.207 8.37891C68.0664 13.8477 72.4609 22.0182 75.3906 32.8906C78.3203 43.763 79.7852 57.3372 79.7852 73.6133ZM27.9297 73.6133C27.9297 84.9414 28.2878 94.2839 29.0039 101.641C29.7852 108.932 31.0547 114.368 32.8125 117.949C34.6354 121.465 37.1419 123.223 40.332 123.223C43.5872 123.223 46.0938 121.465 47.8516 117.949C49.6745 114.368 50.944 108.932 51.6602 101.641C52.3763 94.2839 52.7344 84.9414 52.7344 73.6133C52.7344 62.6107 52.3763 53.431 51.6602 46.0742C50.944 38.7174 49.6745 33.2161 47.8516 29.5703C46.0938 25.8594 43.5872 24.0039 40.332 24.0039C37.207 24.0039 34.7331 25.8268 32.9102 29.4727C31.0872 33.1185 29.7852 38.6198 29.0039 45.9766C28.2878 53.3333 27.9297 62.5456 27.9297 73.6133ZM169.727 36.4062C169.727 41.5495 168.815 46.3021 166.992 50.6641C165.169 55.026 162.435 58.8672 158.789 62.1875C155.208 65.4427 150.781 68.0469 145.508 70V70.5859C154.427 72.474 161.133 76.3151 165.625 82.1094C170.182 87.9036 172.461 95.4557 172.461 104.766C172.461 113.359 170.638 120.814 166.992 127.129C163.411 133.444 158.236 138.327 151.465 141.777C144.694 145.228 136.589 146.953 127.148 146.953C120.964 146.953 115.332 146.465 110.254 145.488C105.176 144.577 99.8047 142.819 94.1406 140.215V115.02C99.0234 117.884 103.939 120.065 108.887 121.562C113.835 123.06 118.587 123.809 123.145 123.809C130.436 123.809 135.775 122.051 139.16 118.535C142.611 114.954 144.336 109.974 144.336 103.594C144.336 98.8411 143.392 94.9674 141.504 91.9727C139.681 88.9128 136.816 86.6667 132.91 85.2344C129.004 83.737 123.926 82.9883 117.676 82.9883H110.547V60.4297H117.871C123.405 60.4297 128.06 59.6159 131.836 57.9883C135.612 56.2956 138.444 53.8867 140.332 50.7617C142.285 47.5716 143.262 43.7956 143.262 39.4336C143.262 34.2253 141.895 30.2539 139.16 27.5195C136.491 24.7852 132.552 23.418 127.344 23.418C124.74 23.418 122.201 23.776 119.727 24.4922C117.253 25.2083 114.779 26.2826 112.305 27.7148C109.831 29.082 107.292 30.8398 104.688 32.9883L94.1406 13.3594C100 8.54167 105.924 5.15625 111.914 3.20312C117.969 1.1849 124.837 0.175781 132.52 0.175781C143.978 0.175781 153.027 3.30078 159.668 9.55078C166.374 15.7357 169.727 24.6875 169.727 36.4062Z" fill="#ECF3FE"/>
</svg>
