<svg width="179" height="147" viewBox="0 0 179 147" fill="none" xmlns="http://www.w3.org/2000/svg">
<path d="M79.7852 73.6133C79.7852 84.4206 79.1341 94.3164 77.832 103.301C76.5951 112.22 74.4792 119.967 71.4844 126.543C68.4896 133.053 64.4531 138.099 59.375 141.68C54.2969 145.195 47.9492 146.953 40.332 146.953C31.7383 146.953 24.5117 144.447 18.6523 139.434C12.8581 134.421 8.46354 126.543 5.46875 115.801C2.47396 104.993 0.976562 90.931 0.976562 73.6133C0.976562 56.8815 2.40885 43.112 5.27344 32.3047C8.13802 21.4323 12.4674 13.3594 18.2617 8.08594C24.1211 2.8125 31.4779 0.175781 40.332 0.175781C49.1211 0.175781 56.4128 2.91016 62.207 8.37891C68.0664 13.8477 72.4609 22.0182 75.3906 32.8906C78.3203 43.763 79.7852 57.3372 79.7852 73.6133ZM27.9297 73.6133C27.9297 84.9414 28.2878 94.2839 29.0039 101.641C29.7852 108.932 31.0547 114.368 32.8125 117.949C34.6354 121.465 37.1419 123.223 40.332 123.223C43.5872 123.223 46.0938 121.465 47.8516 117.949C49.6745 114.368 50.944 108.932 51.6602 101.641C52.3763 94.2839 52.7344 84.9414 52.7344 73.6133C52.7344 62.6107 52.3763 53.431 51.6602 46.0742C50.944 38.7174 49.6745 33.2161 47.8516 29.5703C46.0938 25.8594 43.5872 24.0039 40.332 24.0039C37.207 24.0039 34.7331 25.8268 32.9102 29.4727C31.0872 33.1185 29.7852 38.6198 29.0039 45.9766C28.2878 53.3333 27.9297 62.5456 27.9297 73.6133ZM178.906 115.996H164.453V145H138.086V115.996H90.918V94.4141L137.891 1.83594H164.453V93.8281H178.906V115.996ZM137.891 93.8281V60.8203C137.891 59.8438 137.891 58.3138 137.891 56.2305C137.956 54.082 138.021 51.8359 138.086 49.4922C138.151 47.0833 138.216 44.9349 138.281 43.0469C138.346 41.1589 138.411 39.8893 138.477 39.2383H137.695C136.849 42.1029 135.905 44.8047 134.863 47.3438C133.822 49.8828 132.715 52.2917 131.543 54.5703L112.695 93.8281H137.891Z" fill="#ECF3FE"/>
</svg>
