<svg width="42" height="22" viewBox="0 0 42 22" fill="none" xmlns="http://www.w3.org/2000/svg">
<path fill-rule="evenodd" clip-rule="evenodd" d="M30.4048 4.82607C31.1859 4.04503 31.1859 2.77869 30.4048 1.99765L30.3761 1.9689C29.595 1.18785 28.3287 1.18785 27.5476 1.9689L15.1378 14.3787C14.3568 15.1598 13.0904 15.1598 12.3094 14.3787L4.66152 6.7309C3.88048 5.94985 2.61415 5.94985 1.8331 6.73089L1.80435 6.75964C1.0233 7.54069 1.0233 8.80702 1.80435 9.58807L10.8664 18.6501L13.7236 21.5073C13.7236 21.5073 13.7236 21.5073 13.7236 21.5073C13.7236 21.5073 13.7236 21.5073 13.7236 21.5073L16.5808 18.6502C16.5808 18.6502 16.5808 18.6502 16.5808 18.6501C16.5808 18.6501 16.5808 18.6501 16.5808 18.6501L30.4048 4.82607Z" fill="#20C997"/>
<path opacity="0.3" fill-rule="evenodd" clip-rule="evenodd" d="M39.8283 4.65411C40.6093 3.87306 40.6093 2.60673 39.8283 1.82569L39.7995 1.79694C39.0185 1.01589 37.7521 1.01589 36.9711 1.79694L26.0759 12.6921L24.6329 14.1351C23.8519 14.9161 23.8519 16.1825 24.633 16.9635L24.6617 16.9923C25.4427 17.7733 26.7091 17.7733 27.4901 16.9923L28.9331 15.5493L39.8283 4.65411Z" fill="#20C997"/>
</svg>
