<svg width="1813" height="428" viewBox="0 0 1813 428" fill="none" xmlns="http://www.w3.org/2000/svg">
<g opacity="0.5">
<g opacity="0.3">
<path d="M33.7494 62.9863H12.2065C10.4377 62.9863 9 61.548 9 59.7824V38.2571C9 36.4897 10.4395 35.0532 12.2065 35.0532H33.7494C35.5182 35.0532 36.9559 36.4916 36.9559 38.2571V59.7824C36.9559 61.5498 35.5164 62.9863 33.7494 62.9863ZM12.2065 36.5655C11.2721 36.5655 10.5135 37.3235 10.5135 38.2571V59.7824C10.5135 60.716 11.2721 61.474 12.2065 61.474H33.7494C34.6838 61.474 35.4424 60.716 35.4424 59.7824V38.2571C35.4424 37.3235 34.6838 36.5655 33.7494 36.5655H12.2065Z" fill="white"/>
<path d="M22.9792 62.9863C22.5611 62.9863 22.2225 62.648 22.2225 62.2302V35.8094C22.2225 35.3915 22.5611 35.0532 22.9792 35.0532C23.3974 35.0532 23.736 35.3915 23.736 35.8094V62.2302C23.736 62.648 23.3974 62.9863 22.9792 62.9863Z" fill="white"/>
<path d="M36.1992 49.777H9.75676C9.3386 49.777 9 49.4386 9 49.0208C9 48.603 9.3386 48.2646 9.75676 48.2646H36.1992C36.6173 48.2646 36.9559 48.603 36.9559 49.0208C36.9559 49.4386 36.6173 49.777 36.1992 49.777Z" fill="white"/>
<path d="M16.1789 45.7755C15.7922 45.7755 15.4813 45.463 15.4813 45.0785V39.0644C15.4813 38.678 15.794 38.3674 16.1789 38.3674C16.5637 38.3674 16.8783 38.6799 16.8783 39.0644V45.0785C16.8783 45.4649 16.5656 45.7755 16.1789 45.7755Z" fill="white"/>
<path d="M19.19 42.7692H13.1711C12.7844 42.7692 12.4735 42.4568 12.4735 42.0722C12.4735 41.6877 12.7862 41.3752 13.1711 41.3752H19.19C19.5767 41.3752 19.8876 41.6877 19.8876 42.0722C19.8876 42.4568 19.5749 42.7692 19.19 42.7692Z" fill="white"/>
<path d="M32.5948 42.7695H26.5758C26.1891 42.7695 25.8782 42.457 25.8782 42.0725C25.8782 41.6879 26.1909 41.3755 26.5758 41.3755H32.5948C32.9815 41.3755 33.2923 41.6879 33.2923 42.0725C33.2923 42.457 32.9796 42.7695 32.5948 42.7695Z" fill="white"/>
<path d="M19.1897 56.3568H13.1708C12.7841 56.3568 12.4732 56.0443 12.4732 55.6598C12.4732 55.2752 12.7859 54.9609 13.1708 54.9609H19.1897C19.5764 54.9609 19.8873 55.2734 19.8873 55.6598C19.8873 56.0462 19.5746 56.3568 19.1897 56.3568Z" fill="white"/>
<path d="M27.4576 58.4822C27.2781 58.4822 27.1005 58.4138 26.9636 58.277C26.6916 58.0052 26.6916 57.5634 26.9636 57.2897L31.2211 53.0376C31.4931 52.7658 31.9353 52.7658 32.2091 53.0376C32.4811 53.3093 32.4811 53.7512 32.2091 54.0248L27.9516 58.277C27.8147 58.4138 27.6371 58.4822 27.4576 58.4822Z" fill="white"/>
<path d="M31.7151 58.4822C31.5356 58.4822 31.358 58.4138 31.2211 58.277L26.9636 54.0248C26.6916 53.7531 26.6916 53.3112 26.9636 53.0376C27.2356 52.7658 27.6778 52.7658 27.9516 53.0376L32.2091 57.2897C32.4811 57.5634 32.4811 58.0034 32.2091 58.277C32.0722 58.4138 31.8946 58.4822 31.7151 58.4822Z" fill="white"/>
<path d="M16.1787 54.1081C16.7836 54.1081 17.274 53.6181 17.274 53.0136C17.274 52.4092 16.7836 51.9192 16.1787 51.9192C15.5737 51.9192 15.0833 52.4092 15.0833 53.0136C15.0833 53.6181 15.5737 54.1081 16.1787 54.1081Z" fill="white"/>
<path d="M16.1787 59.3991C16.7836 59.3991 17.274 58.9091 17.274 58.3047C17.274 57.7002 16.7836 57.2102 16.1787 57.2102C15.5737 57.2102 15.0833 57.7002 15.0833 58.3047C15.0833 58.9091 15.5737 59.3991 16.1787 59.3991Z" fill="white"/>
<path d="M23.7853 31.1703C23.3671 31.1703 23.0285 30.832 23.0285 30.4141V5.74229C23.0285 2.5772 25.6059 0 28.7755 0H56.6278C57.046 0 57.3845 0.338341 57.3845 0.756164C57.3845 1.17399 57.046 1.5123 56.6278 1.5123H28.7755C26.4423 1.5123 24.5439 3.40914 24.5439 5.74044V30.4123C24.5439 30.8301 24.2053 31.1684 23.7871 31.1684L23.7853 31.1703Z" fill="white"/>
<path d="M63.2512 56.2973H41.0367C40.6185 56.2973 40.2799 55.959 40.2799 55.5411C40.2799 55.1233 40.6185 54.785 41.0367 54.785H63.2512C65.5844 54.785 67.4827 52.8881 67.4827 50.5568V12.3631C67.4827 11.9453 67.8214 11.6069 68.2395 11.6069C68.6577 11.6069 68.9963 11.9453 68.9963 12.3631V50.5568C68.9963 53.7219 66.417 56.2991 63.2493 56.2991L63.2512 56.2973Z" fill="white"/>
<path d="M68.2415 13.1187H56.6273C56.2092 13.1187 55.8705 12.7804 55.8705 12.3626V0.75602C55.8705 0.449124 56.0556 0.173651 56.3387 0.0571789C56.6218 -0.0592937 56.9493 0.00541601 57.1639 0.221722L68.7781 11.8265C68.9946 12.0428 69.0594 12.3681 68.9428 12.651C68.8262 12.932 68.5505 13.1187 68.2434 13.1187H68.2415ZM57.3841 11.6046H66.4135L57.3841 2.58261V11.6046Z" fill="white"/>
<path d="M40.0586 34.8529C39.8644 34.8529 39.6701 34.779 39.5239 34.6311C39.2279 34.3353 39.2279 33.8564 39.5239 33.5606L53.7581 19.3381C54.0542 19.0423 54.5334 19.0423 54.8294 19.3381C55.1255 19.6339 55.1255 20.1127 54.8294 20.4085L40.5952 34.6311C40.4472 34.779 40.2529 34.8529 40.0605 34.8529H40.0586Z" fill="white"/>
<path d="M41.9024 26.003C40.8015 26.003 39.7006 25.5852 38.8624 24.7477C37.1879 23.0746 37.1879 20.3514 38.8624 18.6764C40.5369 17.0014 43.2624 16.9995 44.9406 18.6764C46.6151 20.3514 46.6151 23.0746 44.9406 24.7477C44.1024 25.5852 43.0015 26.003 41.9024 26.003ZM41.9024 18.9333C41.19 18.9333 40.4777 19.2033 39.9337 19.7468C38.8494 20.832 38.8494 22.5939 39.9337 23.6773C41.0198 24.7625 42.7831 24.7625 43.8692 23.6773C44.9535 22.5939 44.9535 20.8302 43.8692 19.7468C43.3271 19.2051 42.6148 18.9333 41.9024 18.9333Z" fill="white"/>
<path d="M52.4535 36.5466C51.3526 36.5466 50.2535 36.1288 49.4154 35.2931C47.7409 33.6181 47.7409 30.8949 49.4154 29.2199C51.0899 27.5468 53.8135 27.5449 55.4917 29.2199C57.1662 30.8949 57.1662 33.6181 55.4917 35.2931C54.6535 36.1288 53.5526 36.5466 52.4535 36.5466ZM52.4535 29.4769C51.7412 29.4769 51.0288 29.7468 50.4867 30.2903C49.4006 31.3756 49.4006 33.1375 50.4867 34.2227C51.5691 35.3079 53.3361 35.3098 54.4204 34.2227C55.5065 33.1393 55.5065 31.3756 54.4204 30.2903C53.8783 29.7487 53.1659 29.4769 52.4535 29.4769Z" fill="white"/>
</g>
<g opacity="0.3">
<path d="M555.766 26.9522H536.624C534.841 26.9522 533.39 25.5022 533.39 23.7223V4.59483C533.39 2.8131 534.841 1.36499 536.624 1.36499H555.766C557.549 1.36499 559 2.81497 559 4.59483V23.7223C559 25.5041 557.549 26.9522 555.766 26.9522ZM536.624 2.89139C535.682 2.89139 534.918 3.65551 534.918 4.5967V23.7242C534.918 24.6654 535.684 25.4295 536.624 25.4295H555.766C556.708 25.4295 557.472 24.6654 557.472 23.7242V4.5967C557.472 3.65551 556.706 2.89139 555.766 2.89139H536.624Z" fill="white"/>
<path d="M546.194 26.9523C545.773 26.9523 545.431 26.6112 545.431 26.19V2.1292C545.431 1.708 545.773 1.36694 546.194 1.36694C546.616 1.36694 546.957 1.708 546.957 2.1292V26.19C546.957 26.6112 546.616 26.9523 546.194 26.9523Z" fill="white"/>
<path d="M558.235 14.9222H534.153C533.731 14.9222 533.39 14.5812 533.39 14.16C533.39 13.7388 533.731 13.3977 534.153 13.3977H558.235C558.657 13.3977 558.998 13.7388 558.998 14.16C558.998 14.5812 558.657 14.9222 558.235 14.9222Z" fill="white"/>
<path d="M540.003 11.2743C539.614 11.2743 539.3 10.9593 539.3 10.5698V5.09228C539.3 4.70276 539.615 4.38965 540.003 4.38965C540.391 4.38965 540.707 4.70462 540.707 5.09228V10.5698C540.707 10.9593 540.391 11.2743 540.003 11.2743Z" fill="white"/>
<path d="M542.745 8.53505H537.263C536.873 8.53505 536.56 8.22008 536.56 7.83056C536.56 7.44104 536.875 7.12793 537.263 7.12793H542.745C543.135 7.12793 543.448 7.4429 543.448 7.83056C543.448 8.21822 543.133 8.53505 542.745 8.53505Z" fill="white"/>
<path d="M554.953 8.5348H549.471C549.082 8.5348 548.768 8.21984 548.768 7.83032C548.768 7.4408 549.083 7.12769 549.471 7.12769H554.953C555.343 7.12769 555.658 7.44266 555.658 7.83032C555.658 8.21797 555.343 8.5348 554.953 8.5348Z" fill="white"/>
<path d="M542.745 20.9098H537.263C536.873 20.9098 536.56 20.5948 536.56 20.2072C536.56 19.8195 536.875 19.5027 537.263 19.5027H542.745C543.135 19.5027 543.448 19.8177 543.448 20.2072C543.448 20.5967 543.133 20.9098 542.745 20.9098Z" fill="white"/>
<path d="M550.274 22.8461C550.093 22.8461 549.914 22.7771 549.776 22.6392C549.5 22.3653 549.5 21.9198 549.776 21.644L553.652 17.7712C553.928 17.4972 554.372 17.4972 554.648 17.7712C554.922 18.0451 554.922 18.4906 554.648 18.7664L550.772 22.6392C550.634 22.7771 550.455 22.8461 550.274 22.8461Z" fill="white"/>
<path d="M554.152 22.8461C553.971 22.8461 553.792 22.7771 553.654 22.6392L549.778 18.7664C549.502 18.4906 549.502 18.047 549.778 17.7712C550.052 17.4972 550.498 17.4972 550.774 17.7712L554.65 21.644C554.924 21.918 554.924 22.3634 554.65 22.6392C554.512 22.7771 554.333 22.8461 554.152 22.8461Z" fill="white"/>
<path d="M541.002 17.7949C541.002 18.3466 540.554 18.7921 540.004 18.7921C539.454 18.7921 539.006 18.3447 539.006 17.7949C539.006 17.2451 539.454 16.7979 540.004 16.7979C540.554 16.7979 541.002 17.2451 541.002 17.7949Z" fill="white"/>
<path d="M541.002 22.6143C541.002 23.1659 540.554 23.6114 540.004 23.6114C539.454 23.6114 539.006 23.1641 539.006 22.6143C539.006 22.0645 539.454 21.6172 540.004 21.6172C540.554 21.6172 541.002 22.0645 541.002 22.6143Z" fill="white"/>
<path d="M520.452 27.0455C516.424 27.0455 513.144 22.8335 513.144 17.6579C513.144 12.4823 516.424 8.27026 520.452 8.27026C524.481 8.27026 527.759 12.4804 527.759 17.6579C527.759 22.8354 524.48 27.0455 520.452 27.0455ZM520.452 9.79666C517.265 9.79666 514.672 13.3228 514.672 17.6579C514.672 21.9929 517.265 25.5191 520.452 25.5191C523.64 25.5191 526.233 21.9929 526.233 17.6579C526.233 13.3228 523.64 9.79666 520.452 9.79666Z" fill="white"/>
<path d="M537.215 42.2923C536.903 42.2923 536.609 42.1004 536.497 41.7891L534.175 35.3853C533.815 34.392 532.977 33.7098 531.988 33.6073L530.634 33.4638C529.692 33.3651 528.784 33.0911 527.935 32.6512L527.286 32.3158C525.712 31.5013 524.533 30.0178 524.05 28.2491L523.308 25.3473C523.203 24.9391 523.449 24.5235 523.858 24.421C524.268 24.3129 524.68 24.5626 524.785 24.9708L525.525 27.8614C525.895 29.2089 526.794 30.3439 527.989 30.9646L528.638 31.3C529.317 31.6523 530.041 31.8703 530.793 31.9486L532.149 32.0921C533.723 32.258 535.049 33.3203 535.609 34.8691L537.931 41.2729C538.075 41.668 537.87 42.106 537.474 42.2495C537.388 42.2811 537.301 42.2961 537.215 42.2961V42.2923Z" fill="white"/>
<path d="M503.691 42.2929C503.606 42.2929 503.516 42.278 503.432 42.2463C503.037 42.1028 502.832 41.6667 502.975 41.2697L505.297 34.8659C505.859 33.319 507.185 32.2548 508.759 32.0889L510.112 31.9454C510.863 31.8672 511.589 31.6491 512.266 31.2969L512.917 30.9614C514.113 30.3408 515.012 29.2057 515.383 27.8452L516.205 24.9993C516.323 24.5967 516.743 24.3638 517.151 24.4793C517.556 24.5967 517.789 25.0179 517.672 25.4242L516.851 28.259C516.371 30.0165 515.193 31.5 513.618 32.3145L512.969 32.6499C512.122 33.0898 511.214 33.3619 510.27 33.4625L508.918 33.606C507.929 33.7085 507.092 34.3907 506.732 35.384L504.41 41.7878C504.298 42.0991 504.005 42.291 503.691 42.291V42.2929Z" fill="white"/>
<path d="M535.246 61.6211H505.657C505.331 61.6211 505.04 61.4123 504.936 61.1048L499.224 44.3442C498.939 43.5074 499.071 42.6147 499.586 41.8953C500.101 41.1778 500.903 40.7659 501.787 40.7659H539.118C540.002 40.7659 540.806 41.1778 541.319 41.8972C541.834 42.6166 541.967 43.5074 541.681 44.3442L535.97 61.1048C535.863 61.4142 535.574 61.6211 535.248 61.6211H535.246ZM506.204 60.0947H534.699L540.236 43.8522C540.361 43.4869 540.303 43.0993 540.079 42.7862C539.855 42.473 539.504 42.2923 539.118 42.2923H501.787C501.401 42.2923 501.052 42.4712 500.826 42.7843C500.603 43.0974 500.545 43.4869 500.668 43.8522L506.204 60.0947Z" fill="white"/>
<path d="M541.14 61.6207H499.763C499.341 61.6207 499 61.2797 499 60.8585C499 60.4373 499.341 60.0962 499.763 60.0962H541.14C541.561 60.0962 541.903 60.4373 541.903 60.8585C541.903 61.2797 541.561 61.6207 541.14 61.6207Z" fill="white"/>
<path d="M520.452 55.6449C517.998 55.6449 515.998 53.6489 515.998 51.1962C515.998 48.7435 517.996 46.7456 520.452 46.7456C520.874 46.7456 521.215 47.0867 521.215 47.5079C521.215 47.9291 520.874 48.2702 520.452 48.2702C518.839 48.2702 517.526 49.5822 517.526 51.1943C517.526 52.8065 518.839 54.1167 520.452 54.1167C522.066 54.1167 523.377 52.8065 523.377 51.1943C523.377 50.7731 523.718 50.4321 524.14 50.4321C524.562 50.4321 524.903 50.7731 524.903 51.1943C524.903 53.647 522.905 55.6431 520.45 55.6431L520.452 55.6449Z" fill="white"/>
</g>
<g opacity="0.3">
<path d="M1046 61.2438H1025.43C1023.77 61.2438 1022.43 59.8995 1022.43 58.2495V37.6918C1022.43 36.04 1023.78 34.6975 1025.43 34.6975H1046C1047.65 34.6975 1049 36.0418 1049 37.6918V58.2495C1049 59.9013 1047.65 61.2438 1046 61.2438ZM1025.43 36.1109C1024.55 36.1109 1023.84 36.8193 1023.84 37.6918V58.2495C1023.84 59.122 1024.55 59.8304 1025.43 59.8304H1046C1046.87 59.8304 1047.58 59.122 1047.58 58.2495V37.6918C1047.58 36.8193 1046.87 36.1109 1046 36.1109H1025.43Z" fill="white"/>
<path d="M1035.71 61.2438C1035.32 61.2438 1035.01 60.9276 1035.01 60.5371V35.4042C1035.01 35.0137 1035.32 34.6975 1035.71 34.6975C1036.1 34.6975 1036.42 35.0137 1036.42 35.4042V60.5371C1036.42 60.9276 1036.1 61.2438 1035.71 61.2438Z" fill="white"/>
<path d="M1048.29 48.6782H1023.14C1022.75 48.6782 1022.43 48.3621 1022.43 47.9716C1022.43 47.5811 1022.75 47.2649 1023.14 47.2649H1048.29C1048.68 47.2649 1049 47.5811 1049 47.9716C1049 48.3621 1048.68 48.6782 1048.29 48.6782Z" fill="white"/>
<path d="M1029.25 44.8742C1028.89 44.8742 1028.6 44.5822 1028.6 44.2228V38.502C1028.6 38.1409 1028.89 37.8506 1029.25 37.8506C1029.61 37.8506 1029.9 38.1426 1029.9 38.502V44.2228C1029.9 44.5839 1029.61 44.8742 1029.25 44.8742Z" fill="white"/>
<path d="M1032.11 42.0142H1026.38C1026.02 42.0142 1025.73 41.7222 1025.73 41.3628C1025.73 41.0034 1026.03 40.7114 1026.38 40.7114H1032.11C1032.47 40.7114 1032.76 41.0034 1032.76 41.3628C1032.76 41.7222 1032.47 42.0142 1032.11 42.0142Z" fill="white"/>
<path d="M1044.86 42.0142H1039.14C1038.78 42.0142 1038.49 41.7222 1038.49 41.3628C1038.49 41.0034 1038.78 40.7114 1039.14 40.7114H1044.86C1045.23 40.7114 1045.52 41.0034 1045.52 41.3628C1045.52 41.7222 1045.22 42.0142 1044.86 42.0142Z" fill="white"/>
<path d="M1032.11 54.94H1026.38C1026.02 54.94 1025.73 54.648 1025.73 54.2886C1025.73 53.9292 1026.02 53.6372 1026.38 53.6372H1032.11C1032.47 53.6372 1032.76 53.9292 1032.76 54.2886C1032.76 54.648 1032.47 54.94 1032.11 54.94Z" fill="white"/>
<path d="M1039.97 56.9626C1039.81 56.9626 1039.64 56.8987 1039.51 56.7708C1039.26 56.5169 1039.26 56.1039 1039.51 55.8482L1043.56 51.8034C1043.81 51.5476 1044.23 51.5476 1044.48 51.8034C1044.74 52.0574 1044.74 52.4703 1044.48 52.726L1040.44 56.7708C1040.31 56.8987 1040.14 56.9626 1039.97 56.9626Z" fill="white"/>
<path d="M1044.02 56.9626C1043.85 56.9626 1043.69 56.8987 1043.56 56.7708L1039.51 52.726C1039.26 52.472 1039.26 52.0591 1039.51 51.8034C1039.77 51.5476 1040.18 51.5476 1040.44 51.8034L1044.48 55.8482C1044.74 56.1022 1044.74 56.5151 1044.48 56.7708C1044.36 56.8987 1044.19 56.9626 1044.02 56.9626Z" fill="white"/>
<path d="M1030.29 51.7699C1030.29 52.3453 1029.82 52.8118 1029.25 52.8118C1028.67 52.8118 1028.2 52.3453 1028.2 51.7699C1028.2 51.1945 1028.67 50.728 1029.25 50.728C1029.82 50.728 1030.29 51.1945 1030.29 51.7699Z" fill="white"/>
<path d="M1030.29 56.8048C1030.29 57.3802 1029.82 57.8467 1029.25 57.8467C1028.67 57.8467 1028.2 57.3802 1028.2 56.8048C1028.2 56.2295 1028.67 55.7629 1029.25 55.7629C1029.82 55.7629 1030.29 56.2295 1030.29 56.8048Z" fill="white"/>
<path d="M1017.97 52.5909H995.021C994.805 52.5909 994.601 52.4924 994.468 52.3231C994.333 52.1555 994.282 51.9343 994.331 51.7235L1001.1 22.4128C1001.46 20.8474 1002.83 19.7554 1004.44 19.7554H1018.03C1019.26 19.7554 1020.41 20.348 1021.13 21.3381L1023.62 24.7678C1024.07 25.3933 1024.8 25.7647 1025.57 25.7647H1041.82C1042.91 25.7647 1043.9 26.2623 1044.56 27.128C1045.21 27.9936 1045.42 29.0891 1045.12 30.1327L1044.58 32.0281C1044.47 32.403 1044.08 32.6242 1043.7 32.5136C1043.33 32.4065 1043.11 32.016 1043.22 31.6393L1043.76 29.7439C1043.93 29.1323 1043.81 28.4878 1043.43 27.9798C1043.05 27.4718 1042.46 27.1798 1041.82 27.1798H1025.57C1024.35 27.1798 1023.19 26.5872 1022.47 25.5971L1019.99 22.1674C1019.53 21.5419 1018.8 21.1705 1018.03 21.1705H1004.44C1003.49 21.1705 1002.69 21.8115 1002.48 22.7307L995.91 51.1758H1017.97C1018.36 51.1758 1018.68 51.492 1018.68 51.8825C1018.68 52.273 1018.36 52.5892 1017.97 52.5892L1017.97 52.5909Z" fill="white"/>
<path d="M995.021 52.5902C994.678 52.5902 994.379 52.3414 994.324 51.9941L989.045 18.8095C988.88 17.7849 989.174 16.7465 989.847 15.9569C990.521 15.1673 991.502 14.7146 992.539 14.7146H1009.16C1009.55 14.7146 1009.87 15.0308 1009.87 15.4213C1009.87 15.8118 1009.55 16.128 1009.16 16.128H992.539C991.917 16.128 991.327 16.3992 990.923 16.8726C990.518 17.3461 990.342 17.9715 990.44 18.5849L995.719 51.7695C995.782 52.1548 995.517 52.5176 995.133 52.5781C995.095 52.585 995.057 52.5867 995.021 52.5867V52.5902Z" fill="white"/>
<path d="M1034.19 27.1812C1033.85 27.1812 1033.55 26.9324 1033.49 26.5851L1032.11 17.9201C1032.08 17.7214 1032.02 17.5279 1031.94 17.3482C1031.77 16.9957 1031.92 16.5741 1032.28 16.4083C1032.63 16.2389 1033.05 16.3944 1033.22 16.7469C1033.36 17.0476 1033.46 17.3672 1033.51 17.6972L1034.89 26.3622C1034.95 26.7475 1034.68 27.1104 1034.3 27.1709C1034.26 27.1778 1034.22 27.1812 1034.19 27.1812H1034.19Z" fill="white"/>
<path d="M1022.26 6.93678H1020.39V13.0757C1020.39 13.4299 1020.31 13.6908 1020.16 13.8619C1020 14.0329 1019.8 14.1176 1019.55 14.1176C1019.29 14.1176 1019.09 14.0312 1018.92 13.8584C1018.77 13.6857 1018.69 13.4248 1018.69 13.074V6.93678H1016.82C1016.52 6.93678 1016.31 6.87285 1016.16 6.74326C1016.02 6.61367 1015.95 6.44435 1015.95 6.23355C1015.95 6.02276 1016.03 5.84134 1016.17 5.71521C1016.32 5.58908 1016.54 5.52515 1016.82 5.52515H1022.26C1022.56 5.52515 1022.78 5.5908 1022.92 5.72039C1023.07 5.85171 1023.14 6.02276 1023.14 6.23355C1023.14 6.44435 1023.07 6.6154 1022.92 6.74326C1022.77 6.87112 1022.55 6.93678 1022.26 6.93678H1022.26Z" fill="white"/>
<path d="M1029.81 13.0184L1029.4 11.9575H1025.97L1025.56 13.0408C1025.4 13.4641 1025.27 13.7492 1025.16 13.8961C1025.04 14.0447 1024.86 14.1173 1024.61 14.1173C1024.39 14.1173 1024.2 14.0378 1024.04 13.8805C1023.87 13.7233 1023.79 13.5436 1023.79 13.3449C1023.79 13.2292 1023.81 13.1099 1023.85 12.9873C1023.89 12.8646 1023.95 12.6935 1024.04 12.4741L1026.2 6.98653C1026.26 6.8293 1026.34 6.63924 1026.42 6.41808C1026.51 6.19692 1026.6 6.01377 1026.7 5.8669C1026.8 5.72004 1026.93 5.60255 1027.08 5.5127C1027.24 5.42285 1027.44 5.37793 1027.68 5.37793C1027.91 5.37793 1028.11 5.42285 1028.27 5.5127C1028.43 5.60255 1028.56 5.72004 1028.66 5.86172C1028.76 6.0034 1028.84 6.15718 1028.91 6.31959C1028.97 6.48201 1029.06 6.70144 1029.16 6.97444L1031.37 12.4274C1031.55 12.8421 1031.63 13.1445 1031.63 13.3328C1031.63 13.5212 1031.55 13.7078 1031.39 13.8719C1031.22 14.0343 1031.03 14.1173 1030.8 14.1173C1030.66 14.1173 1030.54 14.0931 1030.45 14.0447C1030.35 13.9963 1030.27 13.9306 1030.21 13.8494C1030.14 13.7665 1030.07 13.6404 1030 13.4693C1029.92 13.2983 1029.86 13.1479 1029.8 13.0166L1029.81 13.0184ZM1026.42 10.672H1028.94L1027.67 7.18523L1026.42 10.672Z" fill="white"/>
<path d="M1033.57 12.3319L1035.46 9.57083L1033.87 7.11559C1033.72 6.87715 1033.6 6.67327 1033.53 6.50222C1033.45 6.33116 1033.42 6.16702 1033.42 6.00979C1033.42 5.85256 1033.49 5.70396 1033.63 5.57438C1033.78 5.44479 1033.95 5.38086 1034.16 5.38086C1034.4 5.38086 1034.58 5.4517 1034.72 5.59165C1034.85 5.73161 1035.03 5.99251 1035.27 6.37263L1036.54 8.42528L1037.89 6.37263C1038.01 6.19985 1038.1 6.05125 1038.18 5.92858C1038.26 5.8059 1038.33 5.70396 1038.41 5.62275C1038.48 5.54155 1038.56 5.48107 1038.65 5.44133C1038.74 5.40159 1038.85 5.38086 1038.97 5.38086C1039.18 5.38086 1039.36 5.44479 1039.49 5.57438C1039.63 5.70223 1039.7 5.85601 1039.7 6.03225C1039.7 6.28969 1039.55 6.63871 1039.25 7.08104L1037.59 9.57083L1039.38 12.3319C1039.54 12.5738 1039.66 12.7742 1039.73 12.9349C1039.81 13.0939 1039.84 13.2459 1039.84 13.3876C1039.84 13.5224 1039.81 13.645 1039.74 13.7556C1039.68 13.8679 1039.59 13.956 1039.47 14.02C1039.35 14.0856 1039.21 14.1185 1039.06 14.1185C1038.9 14.1185 1038.77 14.0856 1038.65 14.0182C1038.54 13.9509 1038.45 13.8679 1038.38 13.7677C1038.31 13.6675 1038.18 13.474 1037.99 13.1854L1036.5 10.846L1034.92 13.2563C1034.8 13.4481 1034.71 13.5828 1034.66 13.6606C1034.61 13.7383 1034.55 13.8126 1034.47 13.8852C1034.4 13.9578 1034.32 14.0165 1034.22 14.058C1034.12 14.0995 1034 14.1219 1033.86 14.1219C1033.66 14.1219 1033.48 14.058 1033.35 13.9319C1033.21 13.8057 1033.14 13.6208 1033.14 13.3789C1033.14 13.0939 1033.28 12.7466 1033.56 12.3353L1033.57 12.3319Z" fill="white"/>
<path d="M1044.37 17.7559H1011.42C1009.66 17.7559 1008.22 16.3201 1008.22 14.5542V4.94409C1008.22 3.17998 1009.66 1.74243 1011.42 1.74243H1044.37C1046.14 1.74243 1047.58 3.17825 1047.58 4.94409V14.556C1047.58 16.3201 1046.14 17.7576 1044.37 17.7576V17.7559ZM1011.42 3.15752C1010.44 3.15752 1009.63 3.95923 1009.63 4.94409V14.556C1009.63 15.5408 1010.44 16.3425 1011.42 16.3425H1044.37C1045.36 16.3425 1046.16 15.5408 1046.16 14.556V4.94409C1046.16 3.95923 1045.36 3.15752 1044.37 3.15752H1011.42Z" fill="white"/>
</g>
<g opacity="0.3">
<path d="M1536.32 55.9235H1519.98C1518.5 55.9235 1517.3 54.7229 1517.3 53.2491V36.9167C1517.3 35.4413 1518.5 34.2422 1519.98 34.2422H1536.32C1537.8 34.2422 1539 35.4428 1539 36.9167V53.2491C1539 54.7244 1537.8 55.9235 1536.32 55.9235ZM1519.98 35.5046C1519.2 35.5046 1518.56 36.1373 1518.56 36.9167V53.2491C1518.56 54.0284 1519.2 54.6612 1519.98 54.6612H1536.32C1537.1 54.6612 1537.74 54.0284 1537.74 53.2491V36.9167C1537.74 36.1373 1537.1 35.5046 1536.32 35.5046H1519.98Z" fill="white"/>
<path d="M1528.15 55.9234C1527.8 55.9234 1527.52 55.641 1527.52 55.2922V34.8717C1527.52 34.5229 1527.8 34.2405 1528.15 34.2405C1528.5 34.2405 1528.78 34.5229 1528.78 34.8717V55.2906C1528.78 55.6394 1528.5 55.9218 1528.15 55.9218V55.9234Z" fill="white"/>
<path d="M1538.37 45.7131H1517.93C1517.58 45.7131 1517.3 45.4307 1517.3 45.0819C1517.3 44.7331 1517.58 44.4507 1517.93 44.4507H1538.37C1538.72 44.4507 1539 44.7331 1539 45.0819C1539 45.4307 1538.72 45.7131 1538.37 45.7131Z" fill="white"/>
<path d="M1522.89 42.6205C1522.57 42.6205 1522.31 42.3597 1522.31 42.0387V37.3904C1522.31 37.0679 1522.57 36.8086 1522.89 36.8086C1523.21 36.8086 1523.48 37.0694 1523.48 37.3904V42.0387C1523.48 42.3613 1523.22 42.6205 1522.89 42.6205Z" fill="white"/>
<path d="M1525.22 40.2958H1520.57C1520.25 40.2958 1519.99 40.035 1519.99 39.714C1519.99 39.393 1520.25 39.1306 1520.57 39.1306H1525.22C1525.54 39.1306 1525.8 39.3914 1525.8 39.714C1525.8 40.0365 1525.54 40.2958 1525.22 40.2958Z" fill="white"/>
<path d="M1535.58 40.2955H1530.93C1530.61 40.2955 1530.35 40.0347 1530.35 39.7137C1530.35 39.3927 1530.61 39.1304 1530.93 39.1304H1535.58C1535.9 39.1304 1536.16 39.3912 1536.16 39.7137C1536.16 40.0363 1535.9 40.2955 1535.58 40.2955Z" fill="white"/>
<path d="M1525.22 50.7962H1520.57C1520.24 50.7962 1519.99 50.5354 1519.99 50.2144C1519.99 49.8934 1520.25 49.6326 1520.57 49.6326H1525.22C1525.54 49.6326 1525.8 49.8934 1525.8 50.2144C1525.8 50.5354 1525.54 50.7962 1525.22 50.7962Z" fill="white"/>
<path d="M1531.61 52.44C1531.46 52.44 1531.31 52.3828 1531.2 52.2686C1530.97 52.0418 1530.97 51.6729 1531.2 51.4445L1534.49 48.1574C1534.72 47.929 1535.08 47.929 1535.31 48.1574C1535.54 48.3842 1535.54 48.7531 1535.31 48.9815L1532.02 52.2686C1531.91 52.3828 1531.76 52.44 1531.61 52.44Z" fill="white"/>
<path d="M1534.9 52.44C1534.75 52.44 1534.6 52.3828 1534.49 52.2686L1531.2 48.9815C1530.97 48.7546 1530.97 48.3858 1531.2 48.1574C1531.42 47.929 1531.79 47.929 1532.02 48.1574L1535.31 51.4445C1535.54 51.6729 1535.54 52.0402 1535.31 52.2686C1535.2 52.3828 1535.05 52.44 1534.9 52.44Z" fill="white"/>
<path d="M1523.74 48.168C1523.74 48.6356 1523.36 49.0137 1522.89 49.0137C1522.43 49.0137 1522.05 48.634 1522.05 48.168C1522.05 47.7019 1522.43 47.3223 1522.89 47.3223C1523.36 47.3223 1523.74 47.7019 1523.74 48.168Z" fill="white"/>
<path d="M1523.74 52.2578C1523.74 52.7254 1523.36 53.1035 1522.89 53.1035C1522.43 53.1035 1522.05 52.7239 1522.05 52.2578C1522.05 51.7918 1522.43 51.4121 1522.89 51.4121C1523.36 51.4121 1523.74 51.7918 1523.74 52.2578Z" fill="white"/>
<path d="M1527.34 32.6935C1526.99 32.6935 1526.7 32.411 1526.7 32.0623V29.3399C1526.7 28.9912 1526.99 28.7087 1527.34 28.7087C1527.68 28.7087 1527.97 28.9912 1527.97 29.3399V32.0623C1527.97 32.411 1527.68 32.6935 1527.34 32.6935Z" fill="white"/>
<path d="M1513.75 52.8655H1487.16C1484.14 52.8655 1481.69 50.4117 1481.69 47.3946V29.3399C1481.69 28.9912 1481.97 28.7087 1482.32 28.7087C1482.67 28.7087 1482.95 28.9912 1482.95 29.3399V47.3946C1482.95 49.7142 1484.84 51.6016 1487.16 51.6016H1513.75C1514.1 51.6016 1514.38 51.884 1514.38 52.2328C1514.38 52.5815 1514.1 52.864 1513.75 52.864L1513.75 52.8655Z" fill="white"/>
<path d="M1489.44 31.5289C1489.39 31.5289 1489.35 31.5243 1489.3 31.5135L1482.01 29.9193C1480.26 29.5381 1479 27.9686 1479 26.1846V20.4513C1479 17.8062 1481.15 15.6533 1483.8 15.6533H1525.85C1528.5 15.6533 1530.65 17.8062 1530.65 20.4513V26.1846C1530.65 27.9686 1529.39 29.5381 1527.64 29.9193L1520.35 31.5135C1520.01 31.5876 1519.67 31.373 1519.6 31.032C1519.52 30.6909 1519.74 30.3545 1520.08 30.2804L1527.37 28.6862C1528.54 28.43 1529.39 27.3791 1529.39 26.1846V20.4513C1529.39 18.5022 1527.8 16.9173 1525.85 16.9173H1483.8C1481.85 16.9173 1480.26 18.5022 1480.26 20.4513V26.1846C1480.26 27.3791 1481.11 28.43 1482.28 28.6847L1489.57 30.2804C1489.92 30.3545 1490.13 30.6909 1490.06 31.032C1489.99 31.3267 1489.73 31.5289 1489.44 31.5289Z" fill="white"/>
<path d="M1504.83 34.1721C1502.59 34.1721 1500.36 33.9299 1498.15 33.4453L1495.77 32.9252C1495.43 32.8511 1495.21 32.5147 1495.29 32.1736C1495.36 31.8326 1495.7 31.6196 1496.04 31.6921L1498.42 32.2122C1502.67 33.1428 1506.98 33.1428 1511.23 32.2122L1513.61 31.6921C1513.95 31.618 1514.29 31.8326 1514.36 32.1736C1514.44 32.5147 1514.22 32.8511 1513.88 32.9252L1511.5 33.4453C1509.29 33.9299 1507.06 34.1721 1504.83 34.1721Z" fill="white"/>
<path d="M1515.75 16.9167H1493.9C1493.55 16.9167 1493.27 16.6343 1493.27 16.2856V11.2144C1493.27 8.92417 1495.13 7.06299 1497.42 7.06299H1512.23C1514.52 7.06299 1516.39 8.92571 1516.39 11.2144V16.2856C1516.39 16.6343 1516.1 16.9167 1515.75 16.9167H1515.75ZM1494.53 15.6528H1515.12V11.2144C1515.12 9.62173 1513.82 8.32692 1512.23 8.32692H1497.42C1495.83 8.32692 1494.53 9.62173 1494.53 11.2144V15.6528Z" fill="white"/>
<path d="M1494.66 36.3876H1490.68C1489.65 36.3876 1488.81 35.5466 1488.81 34.5141V29.6096C1488.81 28.5756 1489.65 27.7361 1490.68 27.7361H1494.66C1495.7 27.7361 1496.54 28.5772 1496.54 29.6096V34.5141C1496.54 35.5466 1495.69 36.3876 1494.66 36.3876ZM1490.68 29C1490.35 29 1490.07 29.2732 1490.07 29.6112V34.5157C1490.07 34.8521 1490.34 35.1252 1490.68 35.1252H1494.66C1495 35.1252 1495.27 34.8521 1495.27 34.5157V29.6112C1495.27 29.2747 1495 29 1494.66 29H1490.68Z" fill="white"/>
<path d="M1515.22 36.3876H1514.99C1513.95 36.3876 1513.11 35.5466 1513.11 34.5141V29.6096C1513.11 28.5756 1513.96 27.7361 1514.99 27.7361H1518.97C1520 27.7361 1520.84 28.5772 1520.84 29.6096V31.7177C1520.84 32.0665 1520.56 32.3489 1520.21 32.3489C1519.86 32.3489 1519.58 32.0665 1519.58 31.7177V29.6096C1519.58 29.2732 1519.31 28.9985 1518.97 28.9985H1514.99C1514.65 28.9985 1514.38 29.2716 1514.38 29.6096V34.5141C1514.38 34.8505 1514.65 35.1237 1514.99 35.1237H1515.22C1515.57 35.1237 1515.85 35.4061 1515.85 35.7549C1515.85 36.1037 1515.57 36.3861 1515.22 36.3861V36.3876Z" fill="white"/>
</g>
<g opacity="0.3">
<path d="M57.1999 403.183H39.9052C38.3605 403.183 37.1051 401.927 37.1051 400.385V383.105C37.1051 381.561 38.3622 380.307 39.9052 380.307H57.1999C58.7446 380.307 60 381.561 60 383.105V400.385C60 401.929 58.743 403.183 57.1999 403.183ZM39.9052 381.627C39.0892 381.627 38.4268 382.289 38.4268 383.105V400.385C38.4268 401.201 39.0892 401.862 39.9052 401.862H57.1999C58.0159 401.862 58.6784 401.201 58.6784 400.385V383.105C58.6784 382.289 58.0159 381.627 57.1999 381.627H39.9052Z" fill="white"/>
<path d="M48.5533 403.183C48.1882 403.183 47.8925 402.888 47.8925 402.523V380.967C47.8925 380.602 48.1882 380.307 48.5533 380.307C48.9185 380.307 49.2142 380.602 49.2142 380.967V402.523C49.2142 402.888 48.9185 403.183 48.5533 403.183Z" fill="white"/>
<path d="M59.3392 392.405H37.766C37.4008 392.405 37.1051 392.11 37.1051 391.745C37.1051 391.38 37.4008 391.084 37.766 391.084H59.3392C59.7043 391.084 60 391.38 60 391.745C60 392.11 59.7043 392.405 59.3392 392.405Z" fill="white"/>
<path d="M43.0037 389.139C42.666 389.139 42.3946 388.866 42.3946 388.531V383.623C42.3946 383.285 42.6677 383.014 43.0037 383.014C43.3398 383.014 43.6145 383.287 43.6145 383.623V388.531C43.6145 388.868 43.3414 389.139 43.0037 389.139Z" fill="white"/>
<path d="M45.4605 386.685H40.5503C40.2126 386.685 39.9412 386.412 39.9412 386.076C39.9412 385.74 40.2142 385.468 40.5503 385.468H45.4605C45.7982 385.468 46.0712 385.74 46.0712 386.076C46.0712 386.412 45.7982 386.685 45.4605 386.685Z" fill="white"/>
<path d="M56.399 386.686H51.4872C51.1495 386.686 50.8765 386.413 50.8765 386.077C50.8765 385.741 51.1495 385.468 51.4872 385.468H56.399C56.7367 385.468 57.0082 385.741 57.0082 386.077C57.0082 386.413 56.7351 386.686 56.399 386.686Z" fill="white"/>
<path d="M45.4622 397.772H40.552C40.2143 397.772 39.9429 397.499 39.9429 397.161C39.9429 396.824 40.2159 396.553 40.552 396.553H45.4622C45.7999 396.553 46.0729 396.826 46.0729 397.161C46.0729 397.497 45.7999 397.772 45.4622 397.772Z" fill="white"/>
<path d="M52.2073 399.505C52.0505 399.505 51.8954 399.446 51.7759 399.326C51.5383 399.089 51.5383 398.703 51.7759 398.464L55.2481 394.995C55.4856 394.757 55.8717 394.757 56.1109 394.995C56.3484 395.232 56.3484 395.618 56.1109 395.857L52.6386 399.326C52.5191 399.446 52.364 399.505 52.2073 399.505Z" fill="white"/>
<path d="M55.6795 399.505C55.5227 399.505 55.3676 399.445 55.2481 399.326L51.7759 395.857C51.5383 395.619 51.5383 395.233 51.7759 394.995C52.0134 394.756 52.3995 394.757 52.6386 394.995L56.1109 398.464C56.3484 398.703 56.3484 399.087 56.1109 399.326C55.9913 399.445 55.8362 399.505 55.6795 399.505Z" fill="white"/>
<path d="M43.9016 395.003C43.9016 395.497 43.5009 395.897 43.0081 395.897C42.5153 395.897 42.1146 395.497 42.1146 395.003C42.1146 394.509 42.5153 394.11 43.0081 394.11C43.5009 394.11 43.9016 394.51 43.9016 395.003Z" fill="white"/>
<path d="M43.9016 399.32C43.9016 399.814 43.5009 400.214 43.0081 400.214C42.5153 400.214 42.1146 399.814 42.1146 399.32C42.1146 398.826 42.5153 398.427 43.0081 398.427C43.5009 398.427 43.9016 398.827 43.9016 399.32Z" fill="white"/>
<path d="M29.6422 427.561H23.8046C22.8917 427.561 22.037 427.112 21.5183 426.36C21.1305 425.797 20.4891 425.461 19.804 425.461H3.08283C1.38308 425.461 0 424.079 0 422.381V390.893C0 389.195 1.38308 387.813 3.08283 387.813H4.89405C5.25921 387.813 5.55488 388.108 5.55488 388.473C5.55488 388.838 5.25921 389.133 4.89405 389.133H3.08283C2.11177 389.133 1.32168 389.923 1.32168 390.893V422.381C1.32168 423.351 2.11177 424.14 3.08283 424.14H19.804C20.9237 424.14 21.9723 424.691 22.6073 425.613C22.8788 426.006 23.3263 426.242 23.8046 426.242H29.6422C30.1205 426.242 30.568 426.008 30.8395 425.613C31.4745 424.691 32.5231 424.14 33.6444 424.14H50.3656C51.3366 424.14 52.1267 423.351 52.1267 422.381V406.01C52.1267 405.646 52.4224 405.35 52.7876 405.35C53.1527 405.35 53.4484 405.646 53.4484 406.01V422.381C53.4484 424.079 52.0653 425.461 50.3656 425.461H33.6444C32.9593 425.461 32.3195 425.797 31.9301 426.36C31.4131 427.112 30.5567 427.561 29.6438 427.561H29.6422Z" fill="white"/>
<path d="M26.7229 424.022C26.5177 424.022 26.319 423.927 26.1913 423.754C23.7645 420.485 15.6955 420.49 7.33572 420.976C6.53916 421.022 5.73775 420.733 5.15124 420.181C4.56635 419.629 4.23029 418.853 4.23029 418.05V388.084C4.23029 386.558 5.42754 385.271 6.95764 385.157C17.4761 384.369 24.9585 384.645 27.29 388.537C27.3514 388.64 27.3837 388.757 27.3837 388.876V423.358C27.3837 423.644 27.2011 423.896 26.9297 423.986C26.8618 424.009 26.7923 424.02 26.7229 424.02V424.022ZM14.3027 419.416C19.7348 419.416 23.7273 420.013 26.062 421.776V389.07C23.8016 385.705 15.1995 385.867 7.0562 386.477C6.21279 386.539 5.55358 387.247 5.55358 388.085V418.052C5.55358 418.499 5.73291 418.914 6.05928 419.222C6.38566 419.531 6.81707 419.694 7.25816 419.66C9.81748 419.51 12.1716 419.418 14.3011 419.418L14.3027 419.416Z" fill="white"/>
<path d="M26.7229 424.023C26.6534 424.023 26.584 424.011 26.5161 423.989C26.2447 423.898 26.0621 423.647 26.0621 423.361V388.879C26.0621 388.759 26.0944 388.643 26.1558 388.54C27.3029 386.623 29.8203 385.475 33.8547 385.028C34.2247 384.988 34.5447 385.251 34.5851 385.613C34.6254 385.974 34.3637 386.302 34.0002 386.342C30.5215 386.727 28.3532 387.621 27.3837 389.071V421.777C30.6346 419.323 37.104 419.126 46.1844 419.659C46.6384 419.683 47.0585 419.53 47.3849 419.221C47.7112 418.915 47.8906 418.5 47.8906 418.051V406.09C47.8906 405.725 48.1863 405.43 48.5514 405.43C48.9166 405.43 49.2123 405.725 49.2123 406.09V418.051C49.2123 418.853 48.8762 419.632 48.2913 420.182C47.7048 420.734 46.9082 421.026 46.1068 420.976C37.7438 420.489 29.6781 420.486 27.2512 423.755C27.1236 423.926 26.9265 424.023 26.7213 424.023H26.7229Z" fill="white"/>
</g>
<g opacity="0.3">
<path d="M522.36 422.115C518.601 422.115 514.859 421.266 511.466 419.637C510.386 419.12 509.102 419.287 508.195 420.068L507.023 420.92C506.671 421.176 506.176 421.095 505.924 420.745C505.668 420.393 505.747 419.901 506.099 419.647L507.219 418.835C508.547 417.689 510.501 417.427 512.147 418.22C515.687 419.918 519.631 420.716 523.55 420.51L524.539 420.46C527.23 420.322 528.57 419.568 531.001 418.197C534.972 415.958 538.791 413.446 542.383 410.707L544.514 409.082C544.733 408.915 544.866 408.673 544.887 408.398C544.908 408.122 544.814 407.861 544.623 407.663C543.126 406.109 540.754 405.734 538.855 406.751L535.582 408.501C534.01 409.34 530.909 410.834 529.107 411.579C528.705 411.748 528.245 411.554 528.079 411.152C527.914 410.75 528.104 410.29 528.506 410.125C530.237 409.409 533.332 407.919 534.841 407.113L538.113 405.363C540.637 404.018 543.78 404.516 545.759 406.574C546.259 407.094 546.514 407.803 546.458 408.523C546.402 409.24 546.042 409.902 545.47 410.338L543.34 411.961C539.69 414.744 535.811 417.297 531.811 419.551C529.222 421.011 527.683 421.878 524.62 422.036L523.631 422.086C523.207 422.107 522.784 422.118 522.36 422.118V422.115Z" fill="white"/>
<path d="M517.41 414.4C517.019 414.4 516.681 414.109 516.629 413.713C516.573 413.282 516.879 412.888 517.31 412.832L527.096 411.576C527.435 411.534 527.727 411.342 527.903 411.047C528.076 410.755 528.107 410.407 527.984 410.09C527.266 408.234 525.395 407.12 523.414 407.382L520.717 407.737C518.94 407.974 517.1 407.585 515.404 406.612C514.069 405.847 512.546 405.431 511.006 405.41C509.944 405.37 508.829 405.576 507.799 405.951C505.695 406.712 503.636 407.891 502.002 409.27C501.671 409.549 501.174 409.509 500.891 409.178C500.61 408.845 500.652 408.349 500.983 408.068C502.756 406.572 504.985 405.293 507.26 404.472C508.469 404.033 509.73 403.829 511.025 403.837C512.833 403.862 514.617 404.348 516.186 405.249C517.58 406.047 519.075 406.37 520.507 406.179L523.204 405.824C525.909 405.464 528.469 406.987 529.45 409.522C529.749 410.293 529.677 411.142 529.254 411.853C528.83 412.565 528.116 413.032 527.296 413.138L517.51 414.394C517.476 414.398 517.443 414.4 517.408 414.4H517.41Z" fill="white"/>
<path d="M499.02 427.561C498.027 427.561 497.078 426.984 496.655 426.017L490.214 411.261C489.648 409.961 490.243 408.442 491.544 407.874L497.971 405.072C498.599 404.797 499.299 404.784 499.942 405.035C500.583 405.286 501.086 405.772 501.361 406.401L507.803 421.157C508.079 421.786 508.09 422.486 507.84 423.126C507.588 423.767 507.101 424.27 506.471 424.544L500.046 427.346C499.713 427.49 499.365 427.559 499.02 427.559V427.561ZM498.1 425.388C498.32 425.892 498.914 426.126 499.417 425.905L505.842 423.103C506.087 422.997 506.275 422.801 506.373 422.553C506.471 422.305 506.466 422.034 506.36 421.789L499.917 407.034C499.811 406.79 499.615 406.601 499.367 406.503C499.12 406.407 498.847 406.413 498.603 406.516L492.175 409.319C491.671 409.538 491.438 410.13 491.66 410.634L498.1 425.39V425.388Z" fill="white"/>
<path d="M519.045 399.937H507.063C505.529 399.937 504.28 398.69 504.28 397.157V380.781H500.058C499.743 380.781 499.456 380.59 499.333 380.298C499.21 380.005 499.273 379.669 499.494 379.442L516.352 362.226C516.649 361.925 517.182 361.925 517.479 362.226L527.963 372.933C528.267 373.243 528.262 373.741 527.95 374.047C527.638 374.349 527.141 374.345 526.835 374.034L516.915 363.902L501.929 379.205H505.067C505.502 379.205 505.854 379.557 505.854 379.992V397.155C505.854 397.821 506.395 398.359 507.061 398.359H519.043C519.478 398.359 519.831 398.711 519.831 399.146C519.831 399.581 519.478 399.933 519.043 399.933L519.045 399.937Z" fill="white"/>
<path d="M535.976 396.377V394.659C534.988 394.642 533.371 393.911 533.371 393.911C532.663 393.573 533.169 392.498 533.779 392.773C533.779 392.773 535.277 393.503 536.23 393.503C537.438 393.503 538.255 392.807 538.255 391.838C538.255 390.869 537.591 390.324 536.332 389.815C534.595 389.134 533.523 388.353 533.523 386.872C533.523 385.391 534.528 384.389 536.093 384.135V382.418C536.093 381.943 537.148 381.944 537.148 382.418V384.068C538.17 384.102 539.359 384.662 539.359 384.662C540.033 384.922 539.46 386.058 538.934 385.785C538.934 385.785 537.879 385.206 536.79 385.206C535.479 385.206 534.986 385.989 534.986 386.668C534.986 387.553 535.616 387.995 537.096 388.607C538.849 389.32 539.733 390.205 539.733 391.719C539.733 393.063 538.797 394.321 537.044 394.609V396.377C537.044 396.827 535.972 396.815 535.972 396.377H535.976Z" fill="white"/>
<path d="M544.343 402.993H528.42C525.3 402.993 522.763 400.458 522.763 397.34V388.439C522.763 381.458 528.447 375.778 535.435 375.778H537.329C544.316 375.778 550 381.458 550 388.439V397.34C550 400.458 547.463 402.993 544.343 402.993ZM535.435 377.353C529.317 377.353 524.34 382.327 524.34 388.441V397.342C524.34 399.59 526.17 401.419 528.42 401.419H544.343C546.593 401.419 548.424 399.59 548.424 397.342V388.441C548.424 382.327 543.446 377.353 537.329 377.353H535.435Z" fill="white"/>
<path d="M536.383 377.351C531.247 377.351 530.897 369.144 530.884 368.796C530.884 368.328 531.143 367.934 531.546 367.761C531.948 367.59 532.414 367.671 532.731 367.975L534.025 369.209L535.355 367.94C535.931 367.394 536.833 367.392 537.407 367.94L538.737 369.207L540.03 367.975C540.348 367.675 540.814 367.59 541.214 367.759C541.618 367.932 541.88 368.327 541.88 368.765C541.867 369.142 541.516 377.349 536.381 377.349L536.383 377.351ZM532.579 370.006C532.855 372.017 533.723 375.777 536.383 375.777C539.043 375.777 539.907 372.035 540.184 370.007L539.765 370.408C539.191 370.956 538.288 370.956 537.715 370.408L536.385 369.138L535.055 370.408C534.481 370.956 533.578 370.958 533.003 370.408L532.581 370.006H532.579Z" fill="white"/>
</g>
<g opacity="0.3">
<path d="M1021.81 399.439H1005.66C1003.83 399.439 1002.35 397.955 1002.35 396.128V370.873C1002.35 369.046 1003.83 367.561 1005.66 367.561H1030.93C1032.76 367.561 1034.25 369.046 1034.25 370.873V386.827C1034.25 387.259 1033.9 387.608 1033.47 387.608C1033.04 387.608 1032.69 387.259 1032.69 386.827V370.873C1032.69 369.908 1031.9 369.124 1030.94 369.124H1005.66C1004.7 369.124 1003.91 369.908 1003.91 370.873V396.128C1003.91 397.093 1004.7 397.876 1005.66 397.876H1021.81C1022.25 397.876 1022.6 398.226 1022.6 398.658C1022.6 399.09 1022.25 399.439 1021.81 399.439H1021.81Z" fill="white"/>
<path d="M1018.3 399.439C1017.86 399.439 1017.51 399.09 1017.51 398.658V368.345C1017.51 367.913 1017.86 367.563 1018.3 367.563C1018.73 367.563 1019.08 367.913 1019.08 368.345V398.658C1019.08 399.09 1018.73 399.439 1018.3 399.439Z" fill="white"/>
<path d="M1033.47 384.283H1003.13C1002.7 384.283 1002.35 383.934 1002.35 383.502C1002.35 383.07 1002.7 382.72 1003.13 382.72H1033.47C1033.9 382.72 1034.25 383.07 1034.25 383.502C1034.25 383.934 1033.9 384.283 1033.47 384.283Z" fill="white"/>
<path d="M1010.5 379.702C1010.1 379.702 1009.77 379.379 1009.77 378.982V372.082C1009.77 371.683 1010.1 371.362 1010.5 371.362C1010.9 371.362 1011.22 371.685 1011.22 372.082V378.982C1011.22 379.381 1010.89 379.702 1010.5 379.702Z" fill="white"/>
<path d="M1013.95 376.254H1007.05C1006.65 376.254 1006.32 375.931 1006.32 375.533C1006.32 375.136 1006.65 374.813 1007.05 374.813H1013.95C1014.35 374.813 1014.67 375.136 1014.67 375.533C1014.67 375.931 1014.35 376.254 1013.95 376.254Z" fill="white"/>
<path d="M1029.33 376.253H1022.43C1022.03 376.253 1021.71 375.93 1021.71 375.533C1021.71 375.135 1022.03 374.812 1022.43 374.812H1029.33C1029.73 374.812 1030.05 375.135 1030.05 375.533C1030.05 375.93 1029.73 376.253 1029.33 376.253Z" fill="white"/>
<path d="M1013.95 391.841H1007.05C1006.65 391.841 1006.32 391.518 1006.32 391.12C1006.32 390.723 1006.65 390.4 1007.05 390.4H1013.95C1014.35 390.4 1014.67 390.723 1014.67 391.12C1014.67 391.518 1014.35 391.841 1013.95 391.841Z" fill="white"/>
<path d="M1011.75 388.084C1011.75 388.778 1011.19 389.341 1010.5 389.341C1009.8 389.341 1009.24 388.78 1009.24 388.084C1009.24 387.389 1009.8 386.827 1010.5 386.827C1011.19 386.827 1011.75 387.389 1011.75 388.084Z" fill="white"/>
<path d="M1011.75 394.154C1011.75 394.848 1011.19 395.412 1010.5 395.412C1009.8 395.412 1009.24 394.85 1009.24 394.154C1009.24 393.459 1009.8 392.897 1010.5 392.897C1011.19 392.897 1011.75 393.459 1011.75 394.154Z" fill="white"/>
<path d="M1050.11 417.874C1049.67 417.874 1049.32 417.525 1049.32 417.093V384.899C1049.32 382.444 1047.32 380.446 1044.87 380.446H1038.26C1037.82 380.446 1037.47 380.096 1037.47 379.664C1037.47 379.232 1037.82 378.883 1038.26 378.883H1044.87C1048.19 378.883 1050.89 381.582 1050.89 384.901V417.095C1050.89 417.526 1050.54 417.876 1050.11 417.876L1050.11 417.874Z" fill="white"/>
<path d="M988.729 417.874C988.297 417.874 987.947 417.524 987.947 417.093V384.899C987.947 381.58 990.649 378.881 993.971 378.881H998.098C998.53 378.881 998.88 379.23 998.88 379.662C998.88 380.094 998.53 380.444 998.098 380.444H993.971C991.514 380.444 989.513 382.442 989.513 384.897V417.091C989.513 417.523 989.163 417.872 988.731 417.872L988.729 417.874Z" fill="white"/>
<path d="M1050.98 427.561H987.857C983.526 427.561 980 424.04 980 419.712V417.093C980 416.661 980.35 416.311 980.782 416.311H1058.05C1058.48 416.311 1058.83 416.661 1058.83 417.093V419.712C1058.83 424.04 1055.31 427.561 1050.98 427.561H1050.98ZM981.566 417.874V419.71C981.566 423.176 984.389 425.996 987.857 425.996H1050.98C1054.45 425.996 1057.27 423.176 1057.27 419.71V417.874H981.566Z" fill="white"/>
<path d="M1037.76 408.846C1037.27 408.846 1036.77 408.659 1036.4 408.282L1031.11 402.997L1029.39 404.715C1028.84 405.26 1028.05 405.445 1027.31 405.2C1026.58 404.954 1026.06 404.327 1025.96 403.563L1024.35 391.866C1024.26 391.235 1024.47 390.616 1024.92 390.165C1025.37 389.712 1026 389.51 1026.62 389.592L1038.33 391.201C1039.1 391.306 1039.72 391.825 1039.97 392.555C1040.22 393.285 1040.03 394.08 1039.48 394.627L1037.77 396.346L1043.05 401.631C1043.81 402.386 1043.81 403.613 1043.05 404.365L1039.13 408.282C1038.76 408.659 1038.26 408.846 1037.77 408.846H1037.76ZM1031.11 401.108C1031.31 401.108 1031.51 401.184 1031.66 401.337L1037.5 407.176C1037.64 407.319 1037.88 407.319 1038.02 407.176L1041.94 403.259C1042.09 403.116 1042.09 402.881 1041.94 402.736L1036.1 396.898C1035.79 396.593 1035.79 396.098 1036.1 395.792L1038.37 393.52C1038.55 393.341 1038.51 393.134 1038.48 393.054C1038.46 392.974 1038.37 392.785 1038.12 392.75L1026.41 391.141C1026.2 391.107 1026.08 391.21 1026.02 391.269C1025.96 391.329 1025.87 391.457 1025.9 391.652L1027.51 403.349C1027.54 403.601 1027.73 403.691 1027.81 403.718C1027.89 403.746 1028.1 403.79 1028.28 403.609L1030.55 401.337C1030.7 401.184 1030.9 401.108 1031.1 401.108H1031.11Z" fill="white"/>
</g>
<g opacity="0.3">
<path d="M1545.67 427.561H1526.96C1525.21 427.561 1523.8 426.143 1523.8 424.403V405.702C1523.8 403.96 1525.22 402.544 1526.96 402.544H1545.67C1547.42 402.544 1548.83 403.962 1548.83 405.702V424.403C1548.83 426.145 1547.42 427.561 1545.67 427.561ZM1526.96 404.037C1526.04 404.037 1525.29 404.784 1525.29 405.704V424.405C1525.29 425.325 1526.04 426.072 1526.96 426.072H1545.67C1546.6 426.072 1547.34 425.325 1547.34 424.405V405.704C1547.34 404.784 1546.6 404.037 1545.67 404.037H1526.96Z" fill="white"/>
<path d="M1536.32 427.561C1535.9 427.561 1535.57 427.228 1535.57 426.816V403.291C1535.57 402.88 1535.9 402.546 1536.32 402.546C1536.73 402.546 1537.06 402.88 1537.06 403.291V426.816C1537.06 427.228 1536.73 427.561 1536.32 427.561Z" fill="white"/>
<path d="M1548.09 415.799H1524.55C1524.13 415.799 1523.8 415.465 1523.8 415.053C1523.8 414.642 1524.13 414.308 1524.55 414.308H1548.09C1548.5 414.308 1548.83 414.642 1548.83 415.053C1548.83 415.465 1548.5 415.799 1548.09 415.799Z" fill="white"/>
<path d="M1530.26 412.233C1529.88 412.233 1529.57 411.925 1529.57 411.546V406.19C1529.57 405.809 1529.88 405.503 1530.26 405.503C1530.64 405.503 1530.95 405.811 1530.95 406.19V411.546C1530.95 411.926 1530.64 412.233 1530.26 412.233Z" fill="white"/>
<path d="M1532.94 409.553H1527.58C1527.2 409.553 1526.9 409.245 1526.9 408.866C1526.9 408.487 1527.2 408.179 1527.58 408.179H1532.94C1533.32 408.179 1533.63 408.487 1533.63 408.866C1533.63 409.245 1533.32 409.553 1532.94 409.553Z" fill="white"/>
<path d="M1544.88 409.554H1539.52C1539.14 409.554 1538.83 409.246 1538.83 408.867C1538.83 408.488 1539.14 408.18 1539.52 408.18H1544.88C1545.26 408.18 1545.57 408.488 1545.57 408.867C1545.57 409.246 1545.26 409.554 1544.88 409.554Z" fill="white"/>
<path d="M1532.94 421.652H1527.58C1527.2 421.652 1526.9 421.344 1526.9 420.963C1526.9 420.582 1527.2 420.276 1527.58 420.276H1532.94C1533.32 420.276 1533.63 420.584 1533.63 420.963C1533.63 421.342 1533.32 421.652 1532.94 421.652Z" fill="white"/>
<path d="M1540.3 423.547C1540.13 423.547 1539.95 423.479 1539.82 423.344C1539.55 423.077 1539.55 422.641 1539.82 422.371L1543.61 418.585C1543.87 418.315 1544.31 418.315 1544.58 418.585C1544.85 418.855 1544.85 419.288 1544.58 419.558L1540.79 423.344C1540.66 423.479 1540.48 423.547 1540.3 423.547Z" fill="white"/>
<path d="M1544.09 423.547C1543.92 423.547 1543.74 423.479 1543.61 423.344L1539.82 419.558C1539.55 419.29 1539.55 418.855 1539.82 418.585C1540.09 418.315 1540.52 418.315 1540.79 418.585L1544.58 422.371C1544.85 422.641 1544.85 423.075 1544.58 423.344C1544.45 423.479 1544.27 423.547 1544.09 423.547Z" fill="white"/>
<path d="M1531.24 418.608C1531.24 419.147 1530.8 419.583 1530.26 419.583C1529.72 419.583 1529.29 419.145 1529.29 418.608C1529.29 418.07 1529.72 417.633 1530.26 417.633C1530.8 417.633 1531.24 418.07 1531.24 418.608Z" fill="white"/>
<path d="M1531.24 423.32C1531.24 423.859 1530.8 424.295 1530.26 424.295C1529.72 424.295 1529.29 423.857 1529.29 423.32C1529.29 422.782 1529.72 422.345 1530.26 422.345C1530.8 422.345 1531.24 422.782 1531.24 423.32Z" fill="white"/>
<path d="M1495.88 400.18C1491.93 400.18 1488.83 398.325 1488.83 395.958C1488.83 393.591 1491.93 391.734 1495.88 391.734C1499.83 391.734 1502.93 393.589 1502.93 395.958C1502.93 398.327 1499.83 400.18 1495.88 400.18ZM1495.88 393.227C1492.61 393.227 1490.33 394.666 1490.33 395.958C1490.33 397.25 1492.61 398.688 1495.88 398.688C1499.15 398.688 1501.43 397.248 1501.43 395.958C1501.43 394.668 1499.15 393.227 1495.88 393.227Z" fill="white"/>
<path d="M1502.18 412.738C1501.77 412.738 1501.44 412.405 1501.44 411.993V395.958C1501.44 395.546 1501.77 395.212 1502.18 395.212C1502.59 395.212 1502.93 395.546 1502.93 395.958V411.993C1502.93 412.405 1502.59 412.738 1502.18 412.738Z" fill="white"/>
<path d="M1495.88 416.213C1491.93 416.213 1488.83 414.358 1488.83 411.991C1488.83 411.579 1489.17 411.246 1489.58 411.246C1489.99 411.246 1490.33 411.579 1490.33 411.991C1490.33 413.283 1492.61 414.721 1495.88 414.721C1499.15 414.721 1501.43 413.281 1501.43 411.991C1501.43 411.579 1501.77 411.246 1502.18 411.246C1502.59 411.246 1502.92 411.579 1502.92 411.991C1502.92 414.358 1499.83 416.213 1495.88 416.213H1495.88Z" fill="white"/>
<path d="M1495.88 410.384C1491.93 410.384 1488.83 408.529 1488.83 406.16C1488.83 405.748 1489.17 405.415 1489.58 405.415C1489.99 405.415 1490.33 405.748 1490.33 406.16C1490.33 407.452 1492.61 408.892 1495.88 408.892C1499.15 408.892 1501.43 407.452 1501.43 406.16C1501.43 405.748 1501.77 405.415 1502.18 405.415C1502.59 405.415 1502.92 405.748 1502.92 406.16C1502.92 408.529 1499.83 410.384 1495.88 410.384H1495.88Z" fill="white"/>
<path d="M1489.58 412.738C1489.17 412.738 1488.83 412.405 1488.83 411.993V395.958C1488.83 395.546 1489.17 395.212 1489.58 395.212C1489.99 395.212 1490.33 395.546 1490.33 395.958V411.993C1490.33 412.405 1489.99 412.738 1489.58 412.738Z" fill="white"/>
<path d="M1513.73 378.314C1509.78 378.314 1506.68 376.459 1506.68 374.09C1506.68 371.721 1509.78 369.868 1513.73 369.868C1517.68 369.868 1520.77 371.723 1520.77 374.09C1520.77 376.457 1517.68 378.314 1513.73 378.314ZM1513.73 371.36C1510.45 371.36 1508.17 372.8 1508.17 374.09C1508.17 375.38 1510.45 376.821 1513.73 376.821C1517 376.821 1519.28 375.382 1519.28 374.09C1519.28 372.798 1517 371.36 1513.73 371.36Z" fill="white"/>
<path d="M1520.03 412.738C1519.62 412.738 1519.28 412.404 1519.28 411.993V374.091C1519.28 373.679 1519.62 373.346 1520.03 373.346C1520.44 373.346 1520.77 373.679 1520.77 374.091V411.993C1520.77 412.404 1520.44 412.738 1520.03 412.738Z" fill="white"/>
<path d="M1513.73 416.213C1509.78 416.213 1506.68 414.358 1506.68 411.991C1506.68 411.579 1507.01 411.246 1507.43 411.246C1507.84 411.246 1508.17 411.579 1508.17 411.991C1508.17 413.283 1510.45 414.721 1513.73 414.721C1517 414.721 1519.28 413.281 1519.28 411.991C1519.28 411.579 1519.61 411.246 1520.03 411.246C1520.44 411.246 1520.77 411.579 1520.77 411.991C1520.77 414.358 1517.67 416.213 1513.72 416.213H1513.73Z" fill="white"/>
<path d="M1513.73 410.384C1509.78 410.384 1506.68 408.529 1506.68 406.16C1506.68 405.748 1507.01 405.415 1507.43 405.415C1507.84 405.415 1508.17 405.748 1508.17 406.16C1508.17 407.452 1510.45 408.892 1513.73 408.892C1517 408.892 1519.28 407.452 1519.28 406.16C1519.28 405.748 1519.61 405.415 1520.03 405.415C1520.44 405.415 1520.77 405.748 1520.77 406.16C1520.77 408.529 1517.67 410.384 1513.72 410.384H1513.73Z" fill="white"/>
<path d="M1513.73 404.552C1509.78 404.552 1506.68 402.697 1506.68 400.33C1506.68 399.918 1507.01 399.584 1507.43 399.584C1507.84 399.584 1508.17 399.918 1508.17 400.33C1508.17 401.622 1510.45 403.059 1513.73 403.059C1517 403.059 1519.28 401.62 1519.28 400.33C1519.28 399.918 1519.61 399.584 1520.03 399.584C1520.44 399.584 1520.77 399.918 1520.77 400.33C1520.77 402.697 1517.67 404.552 1513.72 404.552H1513.73Z" fill="white"/>
<path d="M1513.73 398.722C1509.78 398.722 1506.68 396.867 1506.68 394.5C1506.68 394.089 1507.01 393.755 1507.43 393.755C1507.84 393.755 1508.17 394.089 1508.17 394.5C1508.17 395.792 1510.45 397.23 1513.73 397.23C1517 397.23 1519.28 395.791 1519.28 394.5C1519.28 394.089 1519.61 393.755 1520.03 393.755C1520.44 393.755 1520.77 394.089 1520.77 394.5C1520.77 396.867 1517.67 398.722 1513.72 398.722H1513.73Z" fill="white"/>
<path d="M1507.43 412.738C1507.02 412.738 1506.68 412.404 1506.68 411.993V374.091C1506.68 373.679 1507.02 373.346 1507.43 373.346C1507.84 373.346 1508.17 373.679 1508.17 374.091V411.993C1508.17 412.404 1507.84 412.738 1507.43 412.738Z" fill="white"/>
<path d="M1531.57 392.891C1527.62 392.891 1524.53 391.036 1524.53 388.669C1524.53 386.302 1527.62 384.445 1531.57 384.445C1535.52 384.445 1538.62 386.3 1538.62 388.669C1538.62 391.038 1535.52 392.891 1531.57 392.891ZM1531.57 385.937C1528.3 385.937 1526.02 387.377 1526.02 388.669C1526.02 389.961 1528.3 391.399 1531.57 391.399C1534.84 391.399 1537.13 389.959 1537.13 388.669C1537.13 387.379 1534.84 385.937 1531.57 385.937Z" fill="white"/>
<path d="M1537.87 400.424C1537.46 400.424 1537.13 400.091 1537.13 399.679V388.667C1537.13 388.256 1537.46 387.922 1537.87 387.922C1538.29 387.922 1538.62 388.256 1538.62 388.667V399.679C1538.62 400.091 1538.29 400.424 1537.87 400.424Z" fill="white"/>
<path d="M1525.27 400.424C1524.86 400.424 1524.53 400.091 1524.53 399.679V388.667C1524.53 388.256 1524.86 387.922 1525.27 387.922C1525.69 387.922 1526.02 388.256 1526.02 388.667V399.679C1526.02 400.091 1525.69 400.424 1525.27 400.424Z" fill="white"/>
</g>
<g opacity="0.3">
<path d="M338.315 205.393C337.895 205.393 337.555 205.053 337.555 204.634V192.412H290.343C289.923 192.412 289.583 192.073 289.583 191.653C289.583 191.233 289.923 190.894 290.343 190.894H338.317C338.737 190.894 339.077 191.233 339.077 191.653V204.634C339.077 205.053 338.737 205.393 338.317 205.393H338.315Z" fill="white"/>
<path d="M332.273 234.299H289.803C286.051 234.299 283 231.412 283 227.865V186.112C283 185.692 283.34 185.353 283.76 185.353C284.18 185.353 284.52 185.692 284.52 186.112V227.865C284.52 230.574 286.889 232.778 289.803 232.778H332.273C335.187 232.778 337.556 230.574 337.556 227.865V220.557C337.556 220.137 337.896 219.798 338.316 219.798C338.736 219.798 339.076 220.137 339.076 220.557V227.865C339.076 231.412 336.023 234.299 332.271 234.299H332.273Z" fill="white"/>
<path d="M340.887 221.317H322.878C319.457 221.317 316.675 218.536 316.675 215.119V210.073C316.675 206.654 319.459 203.873 322.878 203.873H340.887C342.052 203.873 343 204.82 343 205.984V219.204C343 220.368 342.052 221.315 340.887 221.315V221.317ZM322.878 205.394C320.297 205.394 318.195 207.492 318.195 210.073V215.119C318.195 217.698 320.295 219.798 322.878 219.798H340.887C341.214 219.798 341.478 219.533 341.478 219.206V205.986C341.478 205.659 341.214 205.394 340.887 205.394H322.878Z" fill="white"/>
<path d="M325.352 214.46C326.45 214.46 327.339 213.625 327.339 212.595C327.339 211.566 326.45 210.731 325.352 210.731C324.255 210.731 323.366 211.566 323.366 212.595C323.366 213.625 324.255 214.46 325.352 214.46Z" fill="white"/>
<path d="M338.316 192.413H290.342C286.293 192.413 283 189.587 283 186.113C283 182.639 286.295 179.813 290.342 179.813H294.148C294.568 179.813 294.908 180.153 294.908 180.572C294.908 180.992 294.568 181.332 294.148 181.332H290.342C287.133 181.332 284.52 183.476 284.52 186.113C284.52 188.75 287.131 190.892 290.342 190.892H336.577C335.304 189.32 334.661 187.717 334.661 186.113C334.661 184.509 335.304 182.905 336.577 181.332H331.061C330.641 181.332 330.301 180.992 330.301 180.572C330.301 180.153 330.641 179.813 331.061 179.813H338.316C338.626 179.813 338.907 180.002 339.022 180.29C339.137 180.578 339.067 180.907 338.842 181.122C337.078 182.812 336.183 184.49 336.183 186.115C336.183 187.74 337.076 189.416 338.842 191.106C339.067 191.321 339.137 191.65 339.022 191.938C338.907 192.226 338.628 192.415 338.316 192.415V192.413Z" fill="white"/>
<path d="M329.087 188.136C328.838 188.136 328.595 188.016 328.45 187.791L319.445 173.969C318.48 172.491 316.495 172.073 315.013 173.033L293.406 187.091C293.049 187.321 292.581 187.219 292.354 186.87C292.126 186.519 292.224 186.048 292.576 185.819L314.184 171.762C316.365 170.345 319.298 170.961 320.719 173.141L329.725 186.961C329.953 187.312 329.855 187.784 329.504 188.012C329.375 188.096 329.232 188.136 329.089 188.136H329.087Z" fill="white"/>
</g>
<g opacity="0.3">
<path d="M797.752 233.988H776.208C774.44 233.988 773 232.55 773 230.784V209.258C773 207.491 774.44 206.054 776.208 206.054H797.752C799.521 206.054 800.961 207.493 800.961 209.258V230.784C800.961 232.552 799.521 233.988 797.752 233.988ZM776.208 207.567C775.274 207.567 774.515 208.325 774.515 209.258V230.784C774.515 231.718 775.274 232.476 776.208 232.476H797.752C798.686 232.476 799.445 231.718 799.445 230.784V209.258C799.445 208.325 798.686 207.567 797.752 207.567H776.208Z" fill="white"/>
<path d="M786.98 233.989C786.562 233.989 786.223 233.65 786.223 233.233V206.811C786.223 206.393 786.562 206.055 786.98 206.055C787.398 206.055 787.737 206.393 787.737 206.811V233.233C787.737 233.65 787.398 233.989 786.98 233.989Z" fill="white"/>
<path d="M800.202 220.779H773.759C773.341 220.779 773.002 220.44 773.002 220.023C773.002 219.605 773.341 219.266 773.759 219.266H800.202C800.62 219.266 800.959 219.605 800.959 220.023C800.959 220.44 800.62 220.779 800.202 220.779Z" fill="white"/>
<path d="M780.181 216.777C779.794 216.777 779.484 216.465 779.484 216.08V210.066C779.484 209.68 779.796 209.369 780.181 209.369C780.566 209.369 780.879 209.681 780.879 210.066V216.08C780.879 216.467 780.566 216.777 780.181 216.777Z" fill="white"/>
<path d="M783.192 213.771H777.173C776.786 213.771 776.474 213.458 776.474 213.074C776.474 212.689 776.786 212.377 777.173 212.377H783.192C783.579 212.377 783.89 212.689 783.89 213.074C783.89 213.458 783.577 213.771 783.192 213.771Z" fill="white"/>
<path d="M796.598 213.771H790.578C790.192 213.771 789.881 213.459 789.881 213.074C789.881 212.689 790.194 212.377 790.578 212.377H796.598C796.984 212.377 797.295 212.689 797.295 213.074C797.295 213.459 796.982 213.771 796.598 213.771Z" fill="white"/>
<path d="M783.192 227.359H777.173C776.786 227.359 776.473 227.046 776.473 226.662C776.473 226.277 776.786 225.963 777.173 225.963H783.192C783.579 225.963 783.89 226.275 783.89 226.662C783.89 227.048 783.577 227.359 783.192 227.359Z" fill="white"/>
<path d="M791.458 229.484C791.278 229.484 791.101 229.416 790.964 229.279C790.69 229.007 790.69 228.565 790.964 228.292L795.22 224.039C795.492 223.768 795.934 223.768 796.208 224.039C796.48 224.311 796.48 224.753 796.208 225.027L791.952 229.279C791.815 229.416 791.637 229.484 791.458 229.484Z" fill="white"/>
<path d="M795.714 229.484C795.534 229.484 795.357 229.416 795.22 229.279L790.964 225.027C790.69 224.755 790.69 224.313 790.964 224.039C791.236 223.768 791.678 223.768 791.952 224.039L796.208 228.292C796.48 228.565 796.48 229.005 796.208 229.279C796.071 229.416 795.893 229.484 795.714 229.484Z" fill="white"/>
<path d="M781.276 224.016C781.276 224.62 780.786 225.11 780.181 225.11C779.576 225.11 779.085 224.62 779.085 224.016C779.085 223.411 779.576 222.921 780.181 222.921C780.786 222.921 781.276 223.411 781.276 224.016Z" fill="white"/>
<path d="M781.276 229.307C781.276 229.911 780.786 230.401 780.181 230.401C779.576 230.401 779.085 229.911 779.085 229.307C779.085 228.702 779.576 228.212 780.181 228.212C780.786 228.212 781.276 228.702 781.276 229.307Z" fill="white"/>
<path d="M809.342 210.712V207.872C807.71 207.844 805.036 206.635 805.036 206.635C803.865 206.075 804.701 204.296 805.711 204.751C805.711 204.751 808.187 205.96 809.764 205.96C811.762 205.96 813.113 204.806 813.113 203.205C813.113 201.604 812.015 200.702 809.932 199.859C807.062 198.735 805.289 197.441 805.289 194.995C805.289 192.549 806.949 190.888 809.538 190.467V187.627C809.538 186.841 811.283 186.845 811.283 187.627V190.354C812.972 190.409 814.941 191.338 814.941 191.338C816.055 191.767 815.106 193.645 814.238 193.194C814.238 193.194 812.493 192.238 810.692 192.238C808.526 192.238 807.71 193.532 807.71 194.656C807.71 196.119 808.751 196.849 811.199 197.862C814.099 199.044 815.561 200.506 815.561 203.007C815.561 205.228 814.014 207.31 811.114 207.789V210.713C811.114 211.457 809.342 211.438 809.342 210.713V210.712Z" fill="white"/>
<path d="M787.786 202.171C787.368 202.171 787.029 201.833 787.029 201.415V176.742C787.029 173.577 789.607 171 792.776 171H820.629C821.048 171 821.386 171.338 821.386 171.756C821.386 172.174 821.048 172.512 820.629 172.512H792.774C790.441 172.512 788.543 174.409 788.543 176.741V201.413C788.543 201.831 788.204 202.17 787.786 202.17V202.171Z" fill="white"/>
<path d="M827.253 227.299H805.038C804.62 227.299 804.281 226.961 804.281 226.543C804.281 226.125 804.62 225.787 805.038 225.787H827.253C829.586 225.787 831.485 223.89 831.485 221.558V183.363C831.485 182.946 831.823 182.607 832.242 182.607C832.66 182.607 832.998 182.946 832.998 183.363V221.558C832.998 224.724 830.421 227.301 827.251 227.301L827.253 227.299Z" fill="white"/>
<path d="M832.242 184.119H820.627C820.209 184.119 819.87 183.781 819.87 183.363V171.756C819.87 171.449 820.055 171.174 820.338 171.057C820.621 170.941 820.947 171.005 821.163 171.222L832.778 182.827C832.995 183.043 833.059 183.369 832.943 183.651C832.826 183.932 832.551 184.119 832.243 184.119H832.242ZM821.384 182.605H830.413L821.384 173.583V182.605Z" fill="white"/>
</g>
<g opacity="0.3">
<path d="M1319.44 240.865H1300.5C1298.54 240.865 1296.95 239.269 1296.95 237.311V218.387C1296.95 216.426 1298.54 214.833 1300.5 214.833H1319.44C1321.41 214.833 1323 216.428 1323 218.387V237.311C1323 239.271 1321.4 240.865 1319.44 240.865ZM1300.5 216.512C1299.47 216.512 1298.63 217.353 1298.63 218.389V237.313C1298.63 238.349 1299.47 239.189 1300.5 239.189H1319.44C1320.48 239.189 1321.32 238.349 1321.32 237.313V218.389C1321.32 217.353 1320.48 216.512 1319.44 216.512H1300.5Z" fill="white"/>
<path d="M1309.97 240.865C1309.51 240.865 1309.13 240.49 1309.13 240.026V215.674C1309.13 215.211 1309.51 214.835 1309.97 214.835C1310.44 214.835 1310.81 215.211 1310.81 215.674V240.026C1310.81 240.49 1310.44 240.865 1309.97 240.865Z" fill="white"/>
<path d="M1322.16 228.689H1297.79C1297.32 228.689 1296.95 228.314 1296.95 227.85C1296.95 227.387 1297.32 227.011 1297.79 227.011H1322.16C1322.62 227.011 1323 227.387 1323 227.85C1323 228.314 1322.62 228.689 1322.16 228.689Z" fill="white"/>
<path d="M1303.71 224.992C1303.28 224.992 1302.93 224.645 1302.93 224.217V218.674C1302.93 218.246 1303.28 217.901 1303.71 217.901C1304.13 217.901 1304.48 218.248 1304.48 218.674V224.217C1304.48 224.645 1304.13 224.992 1303.71 224.992Z" fill="white"/>
<path d="M1306.48 222.219H1300.93C1300.51 222.219 1300.16 221.873 1300.16 221.446C1300.16 221.02 1300.51 220.673 1300.93 220.673H1306.48C1306.91 220.673 1307.25 221.02 1307.25 221.446C1307.25 221.873 1306.91 222.219 1306.48 222.219Z" fill="white"/>
<path d="M1318.84 222.219H1313.29C1312.86 222.219 1312.52 221.873 1312.52 221.446C1312.52 221.02 1312.86 220.673 1313.29 220.673H1318.84C1319.27 220.673 1319.61 221.02 1319.61 221.446C1319.61 221.873 1319.27 222.219 1318.84 222.219Z" fill="white"/>
<path d="M1306.48 234.744H1300.93C1300.51 234.744 1300.16 234.397 1300.16 233.971C1300.16 233.544 1300.51 233.198 1300.93 233.198H1306.48C1306.91 233.198 1307.25 233.544 1307.25 233.971C1307.25 234.397 1306.91 234.744 1306.48 234.744Z" fill="white"/>
<path d="M1314.1 236.704C1313.9 236.704 1313.7 236.628 1313.55 236.477C1313.25 236.175 1313.25 235.685 1313.55 235.382L1317.48 231.461C1317.78 231.16 1318.27 231.16 1318.57 231.461C1318.87 231.762 1318.87 232.252 1318.57 232.556L1314.65 236.477C1314.5 236.628 1314.3 236.704 1314.1 236.704Z" fill="white"/>
<path d="M1318.02 236.704C1317.82 236.704 1317.63 236.628 1317.48 236.477L1313.55 232.556C1313.25 232.255 1313.25 231.764 1313.55 231.461C1313.85 231.16 1314.34 231.16 1314.65 231.461L1318.57 235.382C1318.87 235.685 1318.87 236.173 1318.57 236.477C1318.42 236.628 1318.22 236.704 1318.02 236.704Z" fill="white"/>
<path d="M1304.72 231.531C1304.72 232.088 1304.27 232.539 1303.71 232.539C1303.15 232.539 1302.7 232.088 1302.7 231.531C1302.7 230.973 1303.15 230.522 1303.71 230.522C1304.27 230.522 1304.72 230.973 1304.72 231.531Z" fill="white"/>
<path d="M1304.72 236.409C1304.72 236.966 1304.27 237.418 1303.71 237.418C1303.15 237.418 1302.7 236.966 1302.7 236.409C1302.7 235.851 1303.15 235.4 1303.71 235.4C1304.27 235.4 1304.72 235.851 1304.72 236.409Z" fill="white"/>
<path d="M1292.57 234.343H1275.6C1268.65 234.343 1263 228.696 1263 221.757V208.006C1263 195.877 1272.88 186.01 1285.01 186.01H1289.36C1301.5 186.01 1311.37 195.877 1311.37 208.006V211.104C1311.37 211.568 1311 211.943 1310.53 211.943C1310.07 211.943 1309.69 211.568 1309.69 211.104V208.006C1309.69 196.802 1300.57 187.689 1289.36 187.689H1285.02C1273.8 187.689 1264.68 196.804 1264.68 208.006V221.757C1264.68 227.771 1269.58 232.663 1275.6 232.663H1292.58C1293.04 232.663 1293.42 233.039 1293.42 233.502C1293.42 233.966 1293.04 234.341 1292.58 234.341L1292.57 234.343Z" fill="white"/>
<path d="M1287.19 187.687C1278.41 187.687 1277.8 173.303 1277.78 172.69C1277.78 172.101 1278.11 171.597 1278.62 171.375C1279.14 171.154 1279.73 171.26 1280.14 171.648L1282.6 173.998C1282.77 174.156 1283.03 174.156 1283.2 173.998L1285.73 171.584C1286.55 170.805 1287.83 170.805 1288.64 171.584L1291.18 173.998C1291.34 174.158 1291.61 174.158 1291.77 173.998L1294.24 171.646C1294.64 171.258 1295.24 171.152 1295.75 171.373C1296.27 171.593 1296.6 172.097 1296.6 172.657C1296.58 173.299 1295.96 187.683 1287.18 187.683L1287.19 187.687ZM1279.5 173.362C1279.73 176.114 1281 186.008 1287.19 186.008C1293.38 186.008 1294.64 176.163 1294.87 173.364L1292.93 175.214C1292.11 175.995 1290.83 175.991 1290.02 175.214L1287.48 172.802C1287.32 172.647 1287.06 172.642 1286.89 172.802L1284.36 175.218C1283.54 175.997 1282.26 175.997 1281.44 175.218L1279.5 173.366V173.362Z" fill="white"/>
<path d="M1286.46 223.338V220.278C1284.71 220.247 1281.83 218.945 1281.83 218.945C1280.57 218.34 1281.46 216.427 1282.55 216.917C1282.55 216.917 1285.22 218.22 1286.92 218.22C1289.07 218.22 1290.53 216.979 1290.53 215.252C1290.53 213.526 1289.34 212.558 1287.1 211.65C1284.01 210.438 1282.1 209.045 1282.1 206.41C1282.1 203.776 1283.89 201.99 1286.68 201.534V198.475C1286.68 197.628 1288.56 197.632 1288.56 198.475V201.413C1290.37 201.475 1292.5 202.473 1292.5 202.473C1293.7 202.935 1292.67 204.959 1291.74 204.473C1291.74 204.473 1289.86 203.443 1287.92 203.443C1285.59 203.443 1284.71 204.836 1284.71 206.048C1284.71 207.622 1285.83 208.41 1288.46 209.501C1291.59 210.772 1293.16 212.347 1293.16 215.043C1293.16 217.436 1291.5 219.677 1288.37 220.192V223.342C1288.37 224.143 1286.46 224.123 1286.46 223.342V223.338Z" fill="white"/>
</g>
<g opacity="0.3">
<path d="M1774.31 229.861H1759.03C1755.7 229.861 1753 227.16 1753 223.84V177.019C1753 173.699 1755.7 171 1759.03 171H1790.47C1793.79 171 1796.49 173.701 1796.49 177.019V209.189C1796.49 209.705 1796.08 210.123 1795.56 210.123C1795.04 210.123 1794.62 209.705 1794.62 209.189V177.019C1794.62 174.731 1792.76 172.868 1790.47 172.868H1759.03C1756.73 172.868 1754.87 174.731 1754.87 177.019V223.843C1754.87 226.133 1756.74 227.993 1759.03 227.993H1774.31C1774.83 227.993 1775.25 228.411 1775.25 228.927C1775.25 229.443 1774.83 229.861 1774.31 229.861Z" fill="white"/>
<path d="M1787.42 192.497H1762.07C1760.58 192.497 1759.37 191.286 1759.37 189.798V180.096C1759.37 178.608 1760.58 177.398 1762.07 177.398H1787.42C1788.91 177.398 1790.12 178.608 1790.12 180.096V189.798C1790.12 191.284 1788.91 192.497 1787.42 192.497ZM1762.07 179.268C1761.62 179.268 1761.24 179.64 1761.24 180.096V189.798C1761.24 190.254 1761.62 190.627 1762.07 190.627H1787.42C1787.88 190.627 1788.25 190.254 1788.25 189.798V180.096C1788.25 179.64 1787.88 179.268 1787.42 179.268H1762.07Z" fill="white"/>
<path d="M1775.47 223.464H1762.48C1760.77 223.464 1759.37 222.073 1759.37 220.363V200.568C1759.37 198.858 1760.77 197.467 1762.48 197.467H1787.02C1788.73 197.467 1790.12 198.858 1790.12 200.568V211.497C1790.12 212.013 1789.71 212.431 1789.19 212.431C1788.67 212.431 1788.25 212.013 1788.25 211.497V200.568C1788.25 199.887 1787.7 199.337 1787.02 199.337H1762.47C1761.79 199.337 1761.24 199.89 1761.24 200.568V220.363C1761.24 221.043 1761.8 221.594 1762.47 221.594H1775.46C1775.98 221.594 1776.4 222.012 1776.4 222.528C1776.4 223.044 1775.98 223.461 1775.46 223.461L1775.47 223.464Z" fill="white"/>
<path d="M1769.73 223.464C1769.21 223.464 1768.79 223.046 1768.79 222.53V198.403C1768.79 197.887 1769.21 197.469 1769.73 197.469C1770.24 197.469 1770.66 197.887 1770.66 198.403V222.53C1770.66 223.046 1770.24 223.464 1769.73 223.464Z" fill="white"/>
<path d="M1779.77 209.536C1779.25 209.536 1778.83 209.118 1778.83 208.602V198.401C1778.83 197.885 1779.25 197.467 1779.77 197.467C1780.29 197.467 1780.7 197.885 1780.7 198.401V208.602C1780.7 209.118 1780.29 209.536 1779.77 209.536Z" fill="white"/>
<path d="M1773.7 215.483H1760.31C1759.79 215.483 1759.37 215.065 1759.37 214.549C1759.37 214.033 1759.79 213.615 1760.31 213.615H1773.7C1774.21 213.615 1774.63 214.033 1774.63 214.549C1774.63 215.065 1774.21 215.483 1773.7 215.483Z" fill="white"/>
<path d="M1789.18 207.317H1760.31C1759.79 207.317 1759.37 206.9 1759.37 206.384C1759.37 205.868 1759.79 205.45 1760.31 205.45H1789.19C1789.7 205.45 1790.12 205.868 1790.12 206.384C1790.12 206.9 1789.7 207.317 1789.19 207.317H1789.18Z" fill="white"/>
<path d="M1791.05 229.574C1790.72 229.574 1790.4 229.4 1790.23 229.094L1785.67 220.911C1784.67 219.117 1785.31 216.84 1787.11 215.84C1788.91 214.842 1791.19 215.486 1792.19 217.283L1795.65 223.498C1795.9 223.95 1795.74 224.519 1795.29 224.77C1794.84 225.014 1794.27 224.857 1794.02 224.407L1790.56 218.192C1790.06 217.295 1788.92 216.977 1788.02 217.473C1787.13 217.97 1786.8 219.105 1787.3 220.002L1791.87 228.185C1792.12 228.638 1791.96 229.206 1791.5 229.457C1791.36 229.537 1791.2 229.576 1791.05 229.576V229.574Z" fill="white"/>
<path d="M1801.37 225.117C1801.04 225.117 1800.72 224.943 1800.55 224.637L1796.68 217.687C1796.18 216.792 1795.04 216.468 1794.15 216.968C1793.71 217.21 1793.4 217.607 1793.26 218.084C1793.13 218.562 1793.18 219.064 1793.43 219.498L1795.65 223.493C1795.9 223.945 1795.74 224.514 1795.29 224.765C1794.84 225.009 1794.27 224.852 1794.02 224.402L1791.79 220.407C1790.79 218.612 1791.44 216.336 1793.24 215.336C1795.03 214.34 1797.31 214.984 1798.31 216.778L1802.19 223.729C1802.44 224.181 1802.28 224.749 1801.83 225C1801.68 225.08 1801.53 225.119 1801.37 225.119L1801.37 225.117Z" fill="white"/>
<path d="M1795.98 247.9C1794.14 247.9 1792.31 247.377 1790.71 246.341C1789.84 245.772 1789.04 245.252 1788.57 244.928C1787.53 244.215 1785.98 242.989 1783.82 241.179C1783.06 240.544 1782.29 239.923 1781.51 239.32L1778.57 237.051C1777.85 236.498 1777.47 235.61 1777.57 234.731C1777.68 233.767 1778.19 232.884 1778.97 232.304C1779.75 231.726 1780.74 231.495 1781.7 231.662C1782.93 231.884 1784.11 232.297 1785.22 232.888L1786.27 233.47L1777.29 217.365C1776.32 215.634 1776.78 213.435 1778.33 212.358C1779.2 211.753 1780.28 211.538 1781.31 211.778C1782.33 212.013 1783.22 212.677 1783.73 213.595L1791.87 228.185C1792.12 228.637 1791.96 229.205 1791.5 229.457C1791.05 229.703 1790.48 229.543 1790.23 229.094L1782.09 214.504C1781.84 214.045 1781.4 213.714 1780.89 213.597C1780.37 213.474 1779.84 213.581 1779.4 213.89C1778.63 214.426 1778.42 215.554 1778.92 216.456L1789.49 235.413C1789.69 235.779 1789.63 236.233 1789.34 236.528C1789.04 236.825 1788.58 236.886 1788.22 236.685L1784.32 234.53C1783.4 234.037 1782.4 233.687 1781.36 233.502C1780.91 233.42 1780.45 233.528 1780.08 233.804C1779.71 234.08 1779.48 234.484 1779.43 234.943C1779.4 235.178 1779.51 235.42 1779.71 235.573L1782.65 237.843C1783.45 238.462 1784.24 239.099 1785.02 239.749C1787.11 241.496 1788.65 242.722 1789.63 243.391C1790.09 243.711 1790.87 244.222 1791.73 244.777C1794.16 246.352 1797.24 246.457 1799.78 245.046L1807.12 240.959C1808.94 239.946 1810.26 238.283 1810.83 236.279C1811.4 234.274 1811.15 232.169 1810.14 230.347L1803.99 219.317C1803.73 218.858 1803.29 218.527 1802.78 218.408C1802.26 218.289 1801.73 218.394 1801.29 218.7C1800.52 219.237 1800.31 220.365 1800.81 221.267L1802.19 223.733C1802.44 224.185 1802.28 224.753 1801.83 225.004C1801.37 225.249 1800.8 225.093 1800.55 224.644L1799.18 222.178C1798.21 220.447 1798.67 218.246 1800.22 217.168C1801.09 216.563 1802.17 216.346 1803.2 216.588C1804.23 216.826 1805.11 217.488 1805.62 218.408L1811.77 229.438C1813.03 231.694 1813.33 234.306 1812.63 236.79C1811.92 239.274 1810.29 241.336 1808.03 242.594L1800.69 246.681C1799.22 247.498 1797.6 247.907 1795.98 247.907L1795.98 247.9Z" fill="white"/>
</g>
</g>
</svg>
