<svg id="eXgQcfO95UJ1" xmlns="http://www.w3.org/2000/svg" xmlns:xlink="http://www.w3.org/1999/xlink" viewBox="0 0 192 185" shape-rendering="geometricPrecision" text-rendering="geometricPrecision"><defs><linearGradient id="eXgQcfO95UJ162-fill" x1="150.906" y1="61.1832" x2="65.6476" y2="136.352" spreadMethod="pad" gradientUnits="userSpaceOnUse" gradientTransform="translate(0 0)"><stop id="eXgQcfO95UJ162-fill-0" offset="0%" stop-color="#36cddb"/><stop id="eXgQcfO95UJ162-fill-1" offset="100%" stop-color="#3081a7"/></linearGradient></defs><path id="eXgQcfO95UJ2" d="M18.3488,72.6879C37.0947,31.7838,88.2845,7.36244,132.459,23.5227c32.019,11.7147,58.135,43.9438,55.609,74.0643-4.845,57.725-114.3949,101.669-157.5042,66.5C6.91777,144.793,4.56575,102.76,18.3488,72.6879Z" transform="matrix(.889804 0 0 0.96123 7.916077-1.217234)" fill="#ecf3fe"/><path d="M109.008,149.949c-1.682,0-3.263-1.061-3.856-2.758L69.5708,45.5306c-.3629-1.0416-.3061-2.163.1642-3.163.4702-.9968,1.2939-1.7509,2.3259-2.1183L149.254,12.5617c2.124-.7604,4.465.3675,5.216,2.5177L190.051,116.74c.363,1.042.306,2.163-.164,3.163-.47.997-1.294,1.751-2.326,2.118l-77.193,27.688c-.448.16-.908.236-1.36.236v.004ZM150.614,13.2646c-.351,0-.704.0607-1.051.1853L72.3702,41.1375c-.7953.2844-1.4328.8659-1.7958,1.6358-.3629.77-.4071,1.6359-.1262,2.441L106.029,146.875c.581,1.661,2.386,2.534,4.027,1.942l77.193-27.687c.795-.284,1.432-.866,1.795-1.636s.408-1.636.127-2.441L153.59,15.3925c-.458-1.31-1.679-2.1279-2.976-2.1279v0Z" fill="#444"/><g style="mix-blend-mode:multiply" opacity="0.2"><path d="M17.8262,97.2687c7.1249,0,12.9007-5.1073,12.9007-11.4075s-5.7758-11.4076-12.9007-11.4076-12.90066,5.1073-12.90066,11.4076s5.77586,11.4075,12.90066,11.4075Z" fill="#3a7ec1"/></g><g style="mix-blend-mode:multiply" opacity="0.2"><path d="M86.9483,184.868c7.1248,0,12.9006-5.552,12.9006-12.402c0-6.849-5.7758-12.402-12.9006-12.402-7.1249,0-12.9007,5.553-12.9007,12.402c0,6.85,5.7758,12.402,12.9007,12.402Z" fill="#3a7ec1"/></g><g style="mix-blend-mode:multiply" opacity="0.2"><path d="M26.7117,107.518c7.1249,0,12.9007-5.108,12.9007-11.4078c0-6.3002-5.7758-11.4076-12.9007-11.4076s-12.9007,5.1074-12.9007,11.4076c0,6.2998,5.7759,11.4078,12.9007,11.4078Z" fill="#3a7ec1"/></g><g id="eXgQcfO95UJ10" transform="translate(.000003 0.000006)"><path d="M35.412,93.6711l-.1591,1.1471c.2183-1.5717.0259-3.2215-.6291-4.7969-1.9836-4.7485-7.4792-7.0278-12.2753-5.0911-1.6283.6554-2.9679,1.7169-3.9449,3.0167l.1591-1.1471c.9807-1.2998,2.3166-2.3575,3.945-3.0167c4.7961-1.9367,10.2916.3426,12.2752,5.0911.6587,1.5754.8475,3.2253.6291,4.7969Z" fill="#816436"/><path d="M28.6211,88.2821l-.1591,1.1471c-1.1509-1.2588-2.6534-1.5121-4.5149-.7635-.7882.3166-1.384.7486-1.7911,1.2886l.1591-1.1471c.4071-.54,1.0029-.9683,1.7912-1.2886c1.8614-.7523,3.3639-.4953,4.5148.7635" fill="#858585"/><path d="M28.6211,88.2821l-.1591,1.1471c-1.1509-1.2588-2.6534-1.5121-4.5149-.7635-.7882.3166-1.384.7486-1.7911,1.2886l.1591-1.1471c.4071-.54,1.0029-.9683,1.7912-1.2886c1.8614-.7523,3.3639-.4953,4.5148.7635" fill="#858585"/><path d="M28.6212,88.282l-.1554,1.1433-1.6321,1.3892.1592-1.1434l1.6283-1.3891Z" fill="#806335"/><path d="M26.9928,89.6712l-.1591,1.1471c-.5663-.6406-1.2583-.7933-2.0835-.4619-.4219.1714-.7143.365-.8808.581l.1591-1.1471c.1665-.216.4589-.4134.8808-.5809.8252-.3315,1.5173-.1788,2.0835.4618Z" fill="#816436"/><path d="M24.0323,89.7903l-.1591,1.1471c-.0444.0596-.0814.1229-.1073.1862l.1591-1.1471c.0259-.0633.0629-.1266.1073-.1862Z" fill="#866838"/><path d="M23.9213,89.9802l-.1591,1.1471c-.0222.0559-.037.1117-.0444.1676l.1591-1.1471c.0074-.0559.0222-.1117.0444-.1676Z" fill="#8b6c3a"/><path d="M28.6211,88.2821l-.1591,1.1471c-1.1509-1.2588-2.6534-1.5121-4.5149-.7635-.7882.3166-1.384.7486-1.7911,1.2886l.1591-1.1471c.4071-.54,1.0029-.9683,1.7912-1.2886c1.8614-.7523,3.3639-.4953,4.5148.7635" fill="#858585"/><path d="M22.3152,88.8071l-.1591,1.1471c-.1369.1825-.2516.3762-.3479.5847-.0222.0447-.0407.0931-.0592.1378l.1592-1.1471c.0185-.0446.037-.0931.0592-.1378.0925-.2085.2109-.4022.3478-.5847Z" fill="#8a8a8a"/><path d="M21.9081,89.5259l-.1592,1.1471c-.0999.2495-.1702.499-.2035.7485l.1591-1.147c.0333-.2496.1037-.4991.2036-.7486Z" fill="#8f8f8f"/><path d="M28.6582,94.2745l-.1591,1.1471c.0222-.1527,0-.3054-.0592-.4507-.1147-.2755-.3183-.4469-.6069-.5065-.2887-.0558-.7883-.0223-1.4914.1043-1.3101.2384-2.3167.2458-3.0087.0261s-1.2101-.7449-1.558-1.5717c-.222-.5363-.2998-1.0688-.2257-1.5977l.1591-1.1471c-.074.5289,0,1.0615.2257,1.5978.3442.8267.866,1.3519,1.558,1.5716s1.6987.2123,3.0087-.0261c.7031-.1303,1.2027-.1638,1.4914-.1042.2924.0595.4922.2271.6069.5065.0629.1452.0814.2979.0592.4506" fill="#816436"/><path d="M28.5917,94.5127l-.1592,1.1471c-.0222.0521-.0481.108-.0777.1601-.0222.041-.0481.0782-.0777.1192l.1591-1.1471c.0296-.0372.0555-.0782.0777-.1192.0297-.0521.0556-.108.0778-.1601Z" fill="#8a8a8a"/><path d="M30.9157,94.1441l-.1592,1.1471c.0741-.5474,0-1.0875-.222-1.62-.2257-.5438-.5847-.9721-1.0769-1.2849-.4885-.3166-1.0029-.4805-1.5358-.4954-.5292-.0149-1.3212.0782-2.3685.2719-.6291.1192-1.0547.1341-1.2841.0447s-.3923-.2458-.4848-.473c-.0629-.1564-.0888-.3017-.0666-.4395l.1591-1.1471c-.0185.1378,0,.2868.0666.4395.0926.2235.2554.3836.4848.473s.6551.0782,1.2842-.0447c1.0473-.1936,1.8392-.2868,2.3684-.2719.5329.0149,1.0436.1788,1.5358.4954.4922.3128.8512.7411,1.0769,1.2849.2221.5325.2961,1.0726.2221,1.62Z" fill="#858585"/><path d="M30.9157,94.1441l-.1592,1.1471c.0741-.5474,0-1.0875-.222-1.62-.2257-.5438-.5847-.9721-1.0769-1.2849-.4885-.3166-1.0029-.4805-1.5358-.4954-.5292-.0149-1.3212.0782-2.3685.2719-.6291.1192-1.0547.1341-1.2841.0447s-.3923-.2458-.4848-.473c-.0629-.1564-.0888-.3017-.0666-.4395l.1591-1.1471c-.0185.1378,0,.2868.0666.4395.0926.2235.2554.3836.4848.473s.6551.0782,1.2842-.0447c1.0473-.1936,1.8392-.2868,2.3684-.2719.5329.0149,1.0436.1788,1.5358.4954.4922.3128.8512.7411,1.0769,1.2849.2221.5325.2961,1.0726.2221,1.62Z" fill="#858585"/><path d="M35.412,93.6711l-.1591,1.1471c.2183-1.5717.0259-3.2215-.6291-4.7969-1.9836-4.7485-7.4792-7.0278-12.2753-5.0911-1.6283.6554-2.9679,1.7169-3.9449,3.0167l.1591-1.1471c.9807-1.2998,2.3166-2.3575,3.945-3.0167c4.7961-1.9367,10.2916.3426,12.2752,5.0911.6587,1.5754.8475,3.2253.6291,4.7969Z" fill="#816436"/><path d="M35.412,93.6711l-.1591,1.1471c.2183-1.5717.0259-3.2215-.6291-4.7969-1.9836-4.7485-7.4792-7.0278-12.2753-5.0911-1.6283.6554-2.9679,1.7169-3.9449,3.0167l.1591-1.1471c.9807-1.2998,2.3166-2.3575,3.945-3.0167c4.7961-1.9367,10.2916.3426,12.2752,5.0911.6587,1.5754.8475,3.2253.6291,4.7969Z" fill="#816436"/><path d="M18.5626,86.7961l-.1591,1.1471c-.4885.6481-.8882,1.352-1.1879,2.0968l.1591-1.1471c.2998-.7448.6994-1.4525,1.1879-2.0968Z" fill="#866838"/><path d="M17.371,88.8928l-.1591,1.1471c-.2849.7002-.4811,1.4376-.5847,2.1899l.1591-1.1471c.1036-.7523.2998-1.4897.5847-2.1899Z" fill="#8b6c3a"/><path d="M30.9157,94.1441l-.1592,1.1471c.0741-.5474,0-1.0875-.222-1.62-.2257-.5438-.5847-.9721-1.0769-1.2849-.4885-.3166-1.0029-.4805-1.5358-.4954-.5292-.0149-1.3212.0782-2.3685.2719-.6291.1192-1.0547.1341-1.2841.0447s-.3923-.2458-.4848-.473c-.0629-.1564-.0888-.3017-.0666-.4395l.1591-1.1471c-.0185.1378,0,.2868.0666.4395.0926.2235.2554.3836.4848.473s.6551.0782,1.2842-.0447c1.0473-.1936,1.8392-.2868,2.3684-.2719.5329.0149,1.0436.1788,1.5358.4954.4922.3128.8512.7411,1.0769,1.2849.2221.5325.2961,1.0726.2221,1.62Z" fill="#858585"/><path d="M28.4363,94.7886l-.1592,1.1471c-.185.2458-.4996.458-.94.6368-1.0547.4246-1.8799.2458-2.4794-.54l.1591-1.1471c.5995.7858,1.4248.9646,2.4795.54.4404-.1787.7549-.391.94-.6368Z" fill="#858585"/><path d="M28.6584,94.2744l-.1592,1.1471c-.0111.0782-.0333.1564-.0666.2384l.1591-1.1471c.0334-.082.0556-.1602.0667-.2384Z" fill="#8f8f8f"/><path d="M28.5917,94.5127l-.1592,1.1471c-.0222.0521-.0481.108-.0777.1601-.0222.041-.0481.0782-.0777.1192l.1591-1.1471c.0296-.0372.0555-.0782.0777-.1192.0297-.0521.0556-.108.0778-.1601Z" fill="#8a8a8a"/><path d="M28.4363,94.7883l-.1592,1.1471c-.185.2458-.4996.4581-.94.6369-1.0547.4245-1.8799.2458-2.4794-.5401l.1591-1.147c.5995.7858,1.4248.9646,2.4795.54.4404-.1788.7549-.3911.94-.6369Z" fill="#858585"/><path d="M28.4363,94.7886l-.1592,1.1471c-.185.2458-.4996.458-.94.6368-1.0547.4246-1.8799.2458-2.4794-.54l.1591-1.1471c.5995.7858,1.4248.9646,2.4795.54.4404-.1787.7549-.391.94-.6368Z" fill="#858585"/><path d="M28.4363,94.7886l-.1592,1.1471c-.185.2458-.4996.458-.94.6368-1.0547.4246-1.8799.2458-2.4794-.54l.1591-1.1471c.5995.7858,1.4248.9646,2.4795.54.4404-.1787.7549-.391.94-.6368Z" fill="#858585"/><path d="M25.0167,94.8853l-.1591,1.147-1.8615,1.2924.1554-1.1434l1.8652-1.296Z" fill="#828282"/><path d="M30.9156,94.144l-.1591,1.1471c-.037.2756-.1147.5512-.2257.8305l.1591-1.147c.111-.2794.1887-.555.2257-.8306Z" fill="#8b6c3a"/><path d="M30.69,94.9783l-.1591,1.1471c-.0185.0484-.0408.1005-.063.1489-.0925.2011-.2072.3948-.3441.5773l.1591-1.1471c.1369-.1825.2517-.3761.3442-.5772.0222-.0485.0444-.1006.0629-.149Z" fill="#866838"/><path d="M30.2828,95.7046l-.1591,1.1471c-.4663.6182-1.199,1.1322-2.2019,1.5344-.9733.3948-1.8948.5065-2.7608.3464-.8659-.1639-1.5876-.6332-2.1686-1.4041l.1592-1.1471c.5773.7747,1.2989,1.2439,2.1686,1.4041.8659.1638,1.7874.0484,2.7607-.3464.9992-.4022,1.7319-.9162,2.2019-1.5344" fill="#816436"/><path d="M35.4121,93.6711l-.1592,1.1471c-.1036.7523-.2997,1.4897-.5847,2.1899l.1591-1.1471c.285-.7001.4811-1.4375.5848-2.1899Z" fill="#8f8f8f"/><path d="M34.8273,95.8611l-.1591,1.1471c-.2998.7448-.6995,1.4524-1.188,2.0968l.1592-1.1471c.4884-.6481.8881-1.352,1.1879-2.0968Z" fill="#8a8a8a"/><path d="M33.6393,97.9578l-.1591,1.1471c-.9807,1.3001-2.3204,2.3571-3.9487,3.0171-4.7924,1.933-10.288-.347-12.2715-5.0952-.6588-1.5754-.8475-3.2253-.6292-4.7969l.1592-1.1471c-.2184,1.5716-.0259,3.2215.6328,4.7969c1.9836,4.7483,7.4791,7.0273,12.2715,5.0953c1.6284-.66,2.968-1.7174,3.9487-3.0172" fill="#858585"/><path d="M38.4946,94.0957l-.1591,1.1471c-.1369,1.0018-.3997,1.9813-.7772,2.9161l.1592-1.1471c.3775-.9348.6402-1.9105.7771-2.9161Z" fill="#e29d2d"/><path d="M37.7176,97.012l-.1591,1.147c-.3997.9907-.9326,1.933-1.5802,2.793l.1591-1.1468c.6476-.8603,1.1805-1.8026,1.5802-2.7932Z" fill="#e29d2d"/><path d="M36.1373,99.8051l-.1591,1.1469c-1.3026,1.728-3.0864,3.14-5.255,4.015-6.3837,2.577-13.6963-.458-16.3386-6.7782-.8771-2.0968-1.1287-4.2942-.8401-6.3835l.1591-1.1471c-.2886,2.0931-.037,4.2867.8401,6.3835c2.6423,6.3203,9.9549,9.3553,16.3386,6.7783c2.1686-.875,3.9524-2.287,5.255-4.0149" fill="#e29d2d"/><path d="M37.6582,87.7122c-1.8651-4.4617-6.0617-7.2884-10.6173-7.6497-1.8948-.1564-3.8487.1155-5.7213.8752-5.8767,2.3687-8.915,8.6739-7.3015,14.5919.1369.5102.3146,1.0167.5255,1.5195c2.6423,6.3199,9.9549,9.3559,16.3386,6.7779c6.3838-2.573,9.4183-9.7834,6.776-16.1073v-.0075ZM29.6943,100.974c-4.7924,1.937-10.2917-.346-12.2716-5.0944-.0703-.1638-.1332-.3277-.1924-.4953-1.632-4.6256.6476-9.7391,5.2772-11.6049c1.7579-.7114,3.6156-.8566,5.355-.5177c3.0012.5847,5.662,2.5996,6.9203,5.6051c1.9873,4.7485-.2961,10.1673-5.0922,12.1002l.0037.007Z" fill="#f9c067"/><path d="M34.7829,88.8703c-1.2582-3.0055-3.9191-5.024-6.9203-5.605-1.7394-.3389-3.5971-.1974-5.355.5176-4.6295,1.8659-6.9129,6.9794-5.2772,11.605.0592.1638.1222.3314.1925.4953c1.9835,4.7488,7.4791,7.0278,12.2715,5.0948c4.7924-1.9366,7.0758-7.3517,5.0922-12.1002l-.0037-.0075ZM30.627,95.1272c-.4034.8864-1.2471,1.5903-2.5461,2.1154-.9733.391-1.8948.5065-2.7644.3463-.5995-.1117-1.125-.3724-1.5876-.7746-.2073-.1788-.4034-.3911-.581-.6294l1.8651-1.2961c.5995.7858,1.4248.9646,2.4795.5363.5107-.2048.8512-.4543,1.0177-.7523.1702-.2942.1961-.581.0814-.8491-.1147-.2793-.3146-.4469-.6069-.5065-.2887-.0559-.7883-.0224-1.4914.1042-1.3137.2384-2.3129.2458-3.0087.0261-.2109-.0707-.4033-.1638-.581-.2868-.4071-.283-.7327-.7113-.9733-1.2848-.3478-.8343-.3367-1.6648.037-2.4842.3738-.823,1.088-1.445,2.139-1.8696c1.2509-.5027,2.3389-.5586,3.2678-.1527.4552.1937.8696.4991,1.2471.9125l-1.6283,1.3929c-.148-.1639-.3035-.3017-.4663-.3985-.4663-.2868-1.0029-.3128-1.6135-.0633-.8808.3538-1.2027.8119-.9659,1.3743.0962.2234.2554.3836.4848.4729.1628.0633.433.0745.7994.0336.1443-.0149.3034-.0447.4811-.0745c1.051-.1937,1.8392-.2868,2.3721-.2719.5292.0149,1.0436.1788,1.5358.4953s.8512.7449,1.0769,1.2849c.3553.8492.3294,1.7169-.0703,2.6033v-.0037Z" fill="#fff"/><path d="M24.1064,87.5186c1.8615-.7523,3.364-.4953,4.5149.7635L26.993,89.6713c-.5662-.6406-1.2583-.7933-2.0835-.4618-.8771.3538-1.1991.8119-.9622,1.3779.0925.2235.2553.3836.4848.473s.655.0782,1.2841-.0447c1.0473-.1936,1.8393-.2867,2.3685-.2718.5329.0149,1.0436.1787,1.5358.4953.4922.3128.8511.7411,1.0769,1.2849.3552.8491.3293,1.7169-.0703,2.6033-.3997.8826-1.2472,1.5903-2.5461,2.1154-.9733.3948-1.8948.5065-2.7608.3463-.8696-.1638-1.5876-.6331-2.1686-1.404l1.8652-1.2961c.5995.7858,1.4248.9646,2.4795.54.5107-.2048.8474-.4581,1.0177-.7523.1702-.2979.1961-.581.0814-.8491-.1148-.2756-.3183-.4469-.6069-.5065-.2887-.0559-.7883-.0224-1.4914.1043-1.3101.2383-2.3167.2458-3.0087.026s-1.2101-.7448-1.558-1.5716c-.3479-.8343-.3368-1.6648.037-2.4841.3738-.8231,1.0843-1.4451,2.139-1.8696v-.0075Z" fill="#f9c067"/></g><path d="M27.896,84.148c0,1.1172-.1813,2.1973-.5218,3.2178-.2183.6629-.5033,1.2997-.8512,1.9068-.3663.6443-.7993,1.2514-1.2915,1.8175-.6735.7746-1.4507,1.4711-2.324,2.0669-1.6284,1.1248-3.5638,1.9032-5.6769,2.2272-.7254.1117-1.4729.1713-2.2316.1713-.3293,0-.655-.0112-.9769-.0335-1.6136-5.9179,1.421-12.2195,7.3015-14.5919c1.8725-.7597,3.8302-1.0316,5.7212-.8752.4367,1.0056.7217,2.0856.8216,3.2029.0222.2905.037.5848.037.8864l-.0074.0038Z" opacity="0.21" fill="#686868"/><g id="eXgQcfO95UJ50" transform="translate(.00001 0)"><path d="M94.8274,171.054l-.1592,1.147c.2184-1.571.0259-3.221-.6328-4.796-1.9836-4.749-7.4791-7.028-12.2753-5.092-1.6283.656-2.9679,1.717-3.9449,3.017l.1591-1.147c.9807-1.3,2.3167-2.357,3.945-3.017c4.7961-1.936,10.2916.343,12.2752,5.091.6588,1.576.8475,3.226.6291,4.797" fill="#816436"/><path d="M88.0364,165.665l-.1591,1.147c-1.1509-1.258-2.6534-1.512-4.5149-.763-.7882.317-1.384.749-1.7911,1.289l.1591-1.147c.4071-.541,1.0029-.969,1.7912-1.289c1.8614-.752,3.3639-.495,4.5148.763Z" fill="#858585"/><path d="M88.0364,165.665l-.1591,1.147c-1.1509-1.258-2.6534-1.512-4.5149-.763-.7882.317-1.384.749-1.7911,1.289l.1591-1.147c.4071-.541,1.0029-.969,1.7912-1.289c1.8614-.752,3.3639-.495,4.5148.763Z" fill="#858585"/><path d="M88.0365,165.665l-.1592,1.144-1.6283,1.389.1592-1.144l1.6283-1.389Z" fill="#806335"/><path d="M86.4081,167.054l-.1592,1.148c-.5662-.641-1.2582-.794-2.0835-.462-.4218.171-.7142.365-.8807.581l.1591-1.147c.1665-.216.4589-.414.8808-.581.8252-.332,1.5173-.179,2.0835.461Z" fill="#816436"/><path d="M83.4439,167.174l-.1591,1.147c-.0444.06-.0814.123-.1073.186l.1591-1.147c.0259-.063.0629-.127.1073-.186Z" fill="#866838"/><path d="M83.3366,167.364l-.1591,1.147c-.0222.055-.037.111-.0444.167l.1591-1.147c.0074-.056.0222-.112.0444-.167Z" fill="#8b6c3a"/><path d="M88.0364,165.665l-.1591,1.147c-1.1509-1.258-2.6534-1.512-4.5149-.763-.7882.317-1.384.749-1.7911,1.289l.1591-1.147c.4071-.541,1.0029-.969,1.7912-1.289c1.8614-.752,3.3639-.495,4.5148.763Z" fill="#858585"/><path d="M81.7305,166.19l-.1591,1.148c-.1369.182-.2517.376-.3479.584-.0222.045-.0407.093-.0592.138l.1591-1.147c.0185-.045.037-.093.0592-.138.0926-.208.211-.402.3479-.585Z" fill="#8a8a8a"/><path d="M81.3234,166.909l-.1592,1.147c-.0999.25-.1702.499-.2035.749l.1591-1.147c.0333-.25.1036-.499.2036-.749Z" fill="#8f8f8f"/><path d="M88.0698,171.658l-.1591,1.147c.0222-.153,0-.305-.0592-.451-.1147-.275-.3183-.447-.6069-.506-.2887-.056-.7883-.023-1.4914.104-1.31.238-2.3166.246-3.0087.026s-1.2101-.745-1.558-1.572c-.222-.536-.2997-1.068-.2257-1.597l.1591-1.147c-.074.528,0,1.061.2258,1.597.3441.827.8659,1.352,1.558,1.572.692.22,1.6986.212,3.0086-.026.7032-.13,1.2028-.164,1.4914-.104.2924.059.4922.227.6069.506.0629.145.0814.298.0592.451Z" fill="#816436"/><path d="M88.0069,171.896l-.1591,1.147c-.0222.052-.0481.108-.0777.16-.0222.041-.0481.079-.0777.12l.1591-1.147c.0296-.038.0555-.079.0777-.12.0296-.052.0555-.108.0777-.16Z" fill="#8a8a8a"/><path d="M90.331,171.531l-.1592,1.147c.074-.547,0-1.087-.222-1.62-.2258-.543-.5847-.972-1.0769-1.285-.4885-.316-1.0029-.48-1.5358-.495-.5292-.015-1.3212.078-2.3685.272-.6291.119-1.0547.134-1.2841.045-.2295-.09-.3923-.246-.4848-.473-.0629-.157-.0888-.302-.0666-.44l.1591-1.147c-.0185.138,0,.287.0666.44.0925.223.2554.383.4848.473.2295.089.655.078,1.2842-.045c1.0473-.194,1.8392-.287,2.3684-.272.5329.015,1.0436.179,1.5358.495.4922.313.8512.742,1.0769,1.285.222.533.2961,1.073.2221,1.62Z" fill="#858585"/><path d="M90.331,171.531l-.1592,1.147c.074-.547,0-1.087-.222-1.62-.2258-.543-.5847-.972-1.0769-1.285-.4885-.316-1.0029-.48-1.5358-.495-.5292-.015-1.3212.078-2.3685.272-.6291.119-1.0547.134-1.2841.045-.2295-.09-.3923-.246-.4848-.473-.0629-.157-.0888-.302-.0666-.44l.1591-1.147c-.0185.138,0,.287.0666.44.0925.223.2554.383.4848.473.2295.089.655.078,1.2842-.045c1.0473-.194,1.8392-.287,2.3684-.272.5329.015,1.0436.179,1.5358.495.4922.313.8512.742,1.0769,1.285.222.533.2961,1.073.2221,1.62Z" fill="#858585"/><path d="M94.8274,171.054l-.1592,1.147c.2184-1.571.0259-3.221-.6328-4.796-1.9836-4.749-7.4791-7.028-12.2753-5.092-1.6283.656-2.9679,1.717-3.9449,3.017l.1591-1.147c.9807-1.3,2.3167-2.357,3.945-3.017c4.7961-1.936,10.2916.343,12.2752,5.091.6588,1.576.8475,3.226.6291,4.797" fill="#816436"/><path d="M94.8274,171.054l-.1592,1.147c.2184-1.571.0259-3.221-.6328-4.796-1.9836-4.749-7.4791-7.028-12.2753-5.092-1.6283.656-2.9679,1.717-3.9449,3.017l.1591-1.147c.9807-1.3,2.3167-2.357,3.945-3.017c4.7961-1.936,10.2916.343,12.2752,5.091.6588,1.576.8475,3.226.6291,4.797" fill="#816436"/><path d="M77.9743,164.179l-.1592,1.148c-.4885.648-.8881,1.351-1.1879,2.096l.1591-1.147c.2998-.745.6995-1.452,1.188-2.097Z" fill="#866838"/><path d="M76.7863,166.276l-.1591,1.147c-.285.7-.4811,1.438-.5847,2.19l.1591-1.147c.1036-.752.2998-1.49.5847-2.19Z" fill="#8b6c3a"/><path d="M90.331,171.531l-.1592,1.147c.074-.547,0-1.087-.222-1.62-.2258-.543-.5847-.972-1.0769-1.285-.4885-.316-1.0029-.48-1.5358-.495-.5292-.015-1.3212.078-2.3685.272-.6291.119-1.0547.134-1.2841.045-.2295-.09-.3923-.246-.4848-.473-.0629-.157-.0888-.302-.0666-.44l.1591-1.147c-.0185.138,0,.287.0666.44.0925.223.2554.383.4848.473.2295.089.655.078,1.2842-.045c1.0473-.194,1.8392-.287,2.3684-.272.5329.015,1.0436.179,1.5358.495.4922.313.8512.742,1.0769,1.285.222.533.2961,1.073.2221,1.62Z" fill="#858585"/><path d="M87.8515,172.172l-.1591,1.147c-.185.246-.4996.458-.94.637-1.0547.424-1.8799.246-2.4795-.54l.1592-1.147c.5995.786,1.4247.964,2.4795.54.4403-.179.7549-.391.9399-.637Z" fill="#858585"/><path d="M88.07,171.658l-.1592,1.147c-.0111.078-.0333.156-.0666.238l.1592-1.147c.0333-.082.0555-.16.0666-.238Z" fill="#8f8f8f"/><path d="M88.0069,171.896l-.1591,1.147c-.0222.052-.0481.108-.0777.16-.0222.041-.0481.079-.0777.12l.1591-1.147c.0296-.038.0555-.079.0777-.12.0296-.052.0555-.108.0777-.16Z" fill="#8a8a8a"/><path d="M87.8515,172.172l-.1591,1.147c-.185.246-.4996.458-.94.637-1.0547.424-1.8799.245-2.4795-.54l.1592-1.148c.5995.786,1.4247.965,2.4795.54.4403-.178.7549-.391.9399-.636Z" fill="#858585"/><path d="M87.8515,172.172l-.1591,1.147c-.185.246-.4996.458-.94.637-1.0547.424-1.8799.246-2.4795-.54l.1592-1.147c.5995.786,1.4247.964,2.4795.54.4403-.179.7549-.391.9399-.637Z" fill="#858585"/><path d="M87.8515,172.172l-.1591,1.147c-.185.246-.4996.458-.94.637-1.0547.424-1.8799.246-2.4795-.54l.1592-1.147c.5995.786,1.4247.964,2.4795.54.4403-.179.7549-.391.9399-.637Z" fill="#858585"/><path d="M84.432,172.269l-.1591,1.147-1.8652,1.296.1591-1.147l1.8652-1.296Z" fill="#828282"/><path d="M90.3309,171.531l-.1591,1.147c-.037.276-.1147.552-.2258.831l.1592-1.147c.111-.28.1887-.555.2257-.831Z" fill="#8b6c3a"/><path d="M90.1053,172.362l-.1592,1.147c-.0185.048-.0407.1-.0629.149-.0925.201-.2072.395-.3441.577l.1591-1.147c.1369-.182.2516-.376.3442-.577.0222-.049.0444-.101.0629-.149Z" fill="#866838"/><path d="M89.6944,173.088l-.1591,1.147c-.4663.618-1.199,1.132-2.2019,1.535-.9733.394-1.8948.506-2.7607.346-.8697-.164-1.5876-.633-2.1686-1.404l.1591-1.147c.5773.775,1.2989,1.244,2.1686,1.404.8697.164,1.7874.048,2.7607-.346.9992-.403,1.732-.917,2.2019-1.535Z" fill="#816436"/><path d="M94.8273,171.054l-.1591,1.148c-.1036.752-.2997,1.489-.5847,2.189l.1591-1.147c.285-.7.4811-1.437.5847-2.19Z" fill="#8f8f8f"/><path d="M94.2426,173.244l-.1592,1.147c-.2997.745-.6994,1.453-1.1879,2.097l.1591-1.147c.4885-.648.8882-1.352,1.188-2.097Z" fill="#8a8a8a"/><path d="M93.0546,175.341l-.1591,1.147c-.9807,1.3-2.3204,2.358-3.9487,3.017-4.7924,1.933-10.288-.346-12.2716-5.095-.6587-1.575-.8474-3.225-.6291-4.797l.1592-1.147c-.2184,1.572-.0259,3.222.6291,4.797c1.9836,4.748,7.4791,7.028,12.2715,5.095c1.6283-.659,2.968-1.717,3.9487-3.017Z" fill="#858585"/><path d="M97.9099,171.479l-.1591,1.147c-.1369,1.002-.3997,1.982-.7772,2.916l.1592-1.147c.3774-.934.6402-1.91.7771-2.916Z" fill="#e29d2d"/><path d="M97.1329,174.395l-.1591,1.147c-.3997.991-.9326,1.933-1.5802,2.794l.1591-1.148c.6476-.86,1.1805-1.802,1.5802-2.793Z" fill="#e29d2d"/><path d="M95.5526,177.188l-.1591,1.147c-1.3027,1.729-3.0864,3.14-5.255,4.015-6.3837,2.578-13.6963-.458-16.3386-6.778-.8771-2.097-1.1288-4.294-.8401-6.383l.1591-1.147c-.2886,2.093-.037,4.286.8401,6.383c2.6423,6.32,9.9549,9.355,16.3386,6.778c2.1686-.875,3.9524-2.287,5.255-4.015Z" fill="#e29d2d"/><path d="M80.7313,158.317c6.3837-2.577,13.6963.458,16.3386,6.779c2.6423,6.32-.3923,13.53-6.776,16.107s-13.6963-.458-16.3386-6.778.3923-13.53,6.776-16.108v0Zm8.3747,20.041c4.7961-1.937,7.0757-7.352,5.0885-12.1-1.9836-4.749-7.4792-7.028-12.2753-5.092-4.7924,1.933-7.072,7.352-5.0885,12.101c1.9836,4.748,7.4792,7.028,12.2716,5.095" fill="#f9c067"/><path d="M81.9192,161.163c4.7961-1.937,10.2916.342,12.2752,5.091c1.9836,4.748-.296,10.167-5.0885,12.1s-10.2879-.346-12.2715-5.095c-1.9836-4.748.296-10.167,5.0885-12.1l-.0037.004Zm8.1193,11.348c.3997-.887.4256-1.754.0703-2.604-.2257-.543-.5847-.972-1.0769-1.284-.4885-.317-1.0029-.481-1.5358-.496-.5292-.015-1.3211.078-2.3684.272-.6291.119-1.0547.134-1.2842.045-.2294-.09-.3922-.246-.4848-.473-.2368-.563.0851-1.021.9622-1.378.8253-.332,1.5173-.179,2.0835.462l1.6283-1.39c-1.1509-1.258-2.6534-1.512-4.5148-.763-1.0547.424-1.7653,1.05-2.139,1.87-.3738.823-.3849,1.649-.0371,2.484.3442.826.866,1.352,1.558,1.571.6921.22,1.6987.213,3.0087-.026.7032-.13,1.2028-.164,1.4914-.104.2924.06.4922.227.6069.506.1147.272.0888.555-.0814.85-.1665.294-.507.547-1.0177.752-1.0547.424-1.8799.246-2.4795-.54l-1.8651,1.296c.581.775,1.2989,1.244,2.1686,1.404.8697.164,1.7874.048,2.7607-.346c1.299-.525,2.1427-1.229,2.5461-2.116" fill="#fff"/><path d="M83.5217,164.902c1.8614-.752,3.3639-.495,4.5149.763l-1.6284,1.39c-.5662-.641-1.2582-.794-2.0835-.462-.877.354-1.199.812-.9621,1.378.0925.223.2553.383.4848.473.2294.089.655.078,1.2841-.045c1.0473-.194,1.8392-.287,2.3685-.272.5329.015,1.0436.179,1.5357.495.4922.313.8512.742,1.077,1.285.3552.85.3293,1.717-.0704,2.604-.3996.882-1.2471,1.59-2.546,2.115-.9733.395-1.8948.507-2.7608.346-.8659-.163-1.5876-.633-2.1686-1.404l1.8652-1.296c.5995.786,1.4247.965,2.4794.54.5107-.204.8475-.458,1.0177-.752.1703-.298.1962-.581.0815-.849-.1148-.276-.3183-.447-.607-.507-.2886-.055-.7882-.022-1.4914.105-1.31.238-2.3166.245-3.0086.026-.6921-.22-1.2102-.745-1.558-1.572-.3479-.834-.3368-1.665.037-2.484.3738-.823,1.0843-1.445,2.139-1.87v-.007Z" fill="#f9c067"/></g><g id="eXgQcfO95UJ89" transform="translate(.000001 0.000001)"><path d="M17.545,75.1761l.4663,1.6126c-1.2768-.6667-2.5683-.5624-3.8673.3091l-.4663-1.6126c1.3027-.8715,2.5905-.9758,3.8673-.3091" fill="#858585"/><path d="M17.545,75.1761l.4663,1.6126c-1.2768-.6667-2.5683-.5624-3.8673.3091l-.4663-1.6126c1.3027-.8715,2.5905-.9758,3.8673-.3091" fill="#858585"/><path d="M17.545,75.1761l.4663,1.6126c-1.2768-.6667-2.5683-.5624-3.8673.3091l-.4663-1.6126c1.3027-.8715,2.5905-.9758,3.8673-.3091" fill="#858585"/><path d="M13.6778,75.4851l.4663,1.6126c-.2109.1416-.4256.3054-.6402.4916-.1184.1006-.2257.2012-.3294.3054l-.4662-1.6126c.1036-.1043.2109-.2048.3293-.3054.2147-.1825.4256-.3463.6402-.4916Z" fill="#8a8a8a"/><path d="M13.6778,75.4851l.4663,1.6126c-.2109.1416-.4256.3054-.6402.4916-.1184.1006-.2257.2012-.3294.3054l-.4662-1.6126c.1036-.1043.2109-.2048.3293-.3054.2147-.1825.4256-.3463.6402-.4916Z" fill="#8a8a8a"/><path d="M17.545,75.1761l.4663,1.6126c-1.2768-.6667-2.5683-.5624-3.8673.3091l-.4663-1.6126c1.3027-.8715,2.5905-.9758,3.8673-.3091" fill="#858585"/><path d="M25.4979,77.1389l.4663,1.6126c-.359-1.2476-1.0066-2.432-1.9466-3.4599-3.1234-3.4152-8.3969-3.9068-12.2679-1.3221l-.4663-1.6126c3.871-2.5884,9.1445-2.0931,12.2679,1.3221.94,1.0279,1.5876,2.2122,1.9466,3.4599" fill="#816436"/><path d="M11.2835,72.3569l.4662,1.6127c-.3256.2197-.6402.4581-.9473.7188-.1925.1638-.3775.3389-.5514.5139l-.46633-1.6126c.17393-.1751.35893-.3464.55143-.514.3034-.2607.618-.5028.9474-.7188" fill="#866838"/><path d="M17.5451,75.176l.4663,1.6164-1.0954,1.8174-.4663-1.6163l1.0954-1.8175Z" fill="#95733e"/><path d="M16.4496,76.9935l.4662,1.6126c-.6439-.35-1.2656-.324-1.8577.0745l-.4663-1.6126c.5958-.3985,1.2138-.4246,1.8578-.0745Z" fill="#816436"/><path d="M14.5918,77.0682l.4663,1.6126c-.0851.0559-.1702.1229-.2553.1937-.0778.067-.1518.134-.2147.1973l-.4663-1.6126c.0666-.067.137-.1303.2147-.2011.0851-.0745.1702-.1378.2553-.1936" fill="#866838"/><path d="M14.1219,77.4629l.4663,1.6126c-.1073.108-.1961.2123-.2664.3166l-.4663-1.6126c.0703-.1043.1591-.2086.2664-.3166Z" fill="#8b6c3a"/><path d="M13.8517,77.7793l.4662,1.6126c-.0518.0745-.0925.149-.1258.2198l-.4663-1.6127c.0333-.0707.074-.1452.1259-.2197Z" fill="#906f3c"/><path d="M13.7258,77.999l.4663,1.6127c-.0296.0707-.0518.1377-.0666.2048l-.4663-1.6126c.0111-.0671.0333-.1341.0666-.2049Z" fill="#95733e"/><path d="M13.663,78.2039l.4662,1.6126c-.0222.108-.0148.216.0111.3165l-.4662-1.6126c-.0296-.1005-.0333-.2085-.0111-.3165Z" fill="#9a7740"/><path d="M21.5234,79.5558l.4662,1.6127c-.1221-.4283-.3441-.8194-.6661-1.1695-.3849-.4208-.8622-.6964-1.4285-.823-.5625-.1267-1.0991-.108-1.6061.0521-.507.1639-1.2212.5102-2.1538,1.0391-.5551.3203-.9511.473-1.199.4655-.2443-.0037-.4478-.0968-.6106-.2719-.0962-.1042-.1592-.2122-.1925-.324l-.4663-1.6126c.0334.1117.0963.2235.1925.324.1591.1751.3664.2682.6106.2719.2442.0074.6439-.1453,1.199-.4655.9289-.5289,1.6431-.8715,2.1538-1.0391.5033-.1602,1.0436-.1788,1.6062-.0522.5662.1267,1.0399.3985,1.4284.8231.3183.3501.5403.7411.6662,1.1694" fill="#858585"/><path d="M13.6778,75.4851l.4663,1.6126c-.2109.1416-.4256.3054-.6402.4916-.1184.1006-.2257.2012-.3294.3054l-.4662-1.6126c.1036-.1043.2109-.2048.3293-.3054.2147-.1825.4256-.3463.6402-.4916Z" fill="#8a8a8a"/><path d="M12.7119,76.282l.4663,1.6126c-.1998.2011-.3737.4097-.5181.6182l-.4663-1.6126c.1444-.2123.3183-.4171.5181-.6182Z" fill="#8f8f8f"/><path d="M12.1902,76.9004l.4663,1.6126c-.1296.1862-.2369.3762-.3257.5736l-.4663-1.6127c.0851-.1936.1961-.3836.3257-.5735Z" fill="#949494"/><path d="M11.8682,77.4739l.4663,1.6126c-.0999.2235-.1702.4506-.2146.6816l-.4663-1.6127c.0444-.2309.1147-.4581.2146-.6815Z" fill="#999"/><path d="M11.6535,78.1555l.4663,1.6126c-.0148.082-.0259.1676-.037.2496-.0408.4022-.0111.7784.0925,1.1322l-.4663-1.6127c-.1036-.3538-.1332-.7337-.0925-1.1322.0074-.0856.0222-.1675.037-.2495Z" fill="#9e9e9e"/><path d="M21.5234,79.5558l.4662,1.6127c-.1221-.4283-.3441-.8194-.6661-1.1695-.3849-.4208-.8622-.6964-1.4285-.823-.5625-.1267-1.0991-.108-1.6061.0521-.507.1639-1.2212.5102-2.1538,1.0391-.5551.3203-.9511.473-1.199.4655-.2443-.0037-.4478-.0968-.6106-.2719-.0962-.1042-.1592-.2122-.1925-.324l-.4663-1.6126c.0334.1117.0963.2235.1925.324.1591.1751.3664.2682.6106.2719.2442.0074.6439-.1453,1.199-.4655.9289-.5289,1.6431-.8715,2.1538-1.0391.5033-.1602,1.0436-.1788,1.6062-.0522.5662.1267,1.0399.3985,1.4284.8231.3183.3501.5403.7411.6662,1.1694" fill="#858585"/><path d="M21.5234,79.5558l.4662,1.6127c-.1221-.4283-.3441-.8194-.6661-1.1695-.3849-.4208-.8622-.6964-1.4285-.823-.5625-.1267-1.0991-.108-1.6061.0521-.507.1639-1.2212.5102-2.1538,1.0391-.5551.3203-.9511.473-1.199.4655-.2443-.0037-.4478-.0968-.6106-.2719-.0962-.1042-.1592-.2122-.1925-.324l-.4663-1.6126c.0334.1117.0963.2235.1925.324.1591.1751.3664.2682.6106.2719.2442.0074.6439-.1453,1.199-.4655.9289-.5289,1.6431-.8715,2.1538-1.0391.5033-.1602,1.0436-.1788,1.6062-.0522.5662.1267,1.0399.3985,1.4284.8231.3183.3501.5403.7411.6662,1.1694" fill="#858585"/><path d="M25.4979,77.1389l.4663,1.6126c-.359-1.2476-1.0066-2.432-1.9466-3.4599-3.1234-3.4152-8.3969-3.9068-12.2679-1.3221l-.4663-1.6126c3.871-2.5884,9.1445-2.0931,12.2679,1.3221.94,1.0279,1.5876,2.2122,1.9466,3.4599" fill="#816436"/><path d="M11.2835,72.3567l.4662,1.6126c-.3256.2198-.6402.4581-.9473.7188-.1925.1639-.3775.3389-.5514.514l-.46633-1.6127c.17393-.175.35893-.3463.55143-.5139.3034-.2607.618-.5028.9474-.7188" fill="#866838"/><path d="M9.78484,73.5894l.46626,1.6126c-.39965.4022-.75862.8342-1.06948,1.2849l-.46629-1.6127c.31086-.4506.66983-.8826,1.06951-1.2848Z" fill="#8b6c3a"/><path d="M8.71889,74.8743l.46629,1.6126c-.32566.473-.60692.972-.83266,1.4823l-.46629-1.6127c.22944-.5139.507-1.0092.83266-1.4822Z" fill="#906f3c"/><path d="M7.88254,76.3567l.46629,1.6126c-.28866.6518-.4996,1.3259-.62912,2.0111l-.46629-1.6126c.12952-.6852.33676-1.3631.62912-2.0111Z" fill="#95733e"/><path d="M7.25717,78.3677l.46629,1.6126c-.25165,1.3445-.19244,2.7299.18503,4.0483L7.4422,82.416c-.37747-1.3147-.44038-2.7038-.18503-4.0483Z" fill="#9a7740"/><path d="M19.4842,81.0679l.4663,1.6126c0,0,0,.0112,0,.0149-.0148.0782-.0407.1601-.0777.2421l-.4663-1.6127c.037-.0819.0629-.1601.0777-.242c0-.0038,0-.0112,0-.0149Z" fill="#999"/><path d="M19.2583,81.5781l.4663,1.6126c-.0777.1118-.1702.2235-.2849.3352l-.4663-1.6126c.111-.1117.2072-.2272.2849-.3352Z" fill="#8f8f8f"/><path d="M18.9736,81.9133l.4663,1.6126c-.0667.0671-.137.1304-.211.1974-.1147.1006-.2294.1863-.3442.2645l-.4662-1.6127c.1147-.0782.2294-.1638.3441-.2644.0777-.067.1481-.1303.211-.1974Z" fill="#8a8a8a"/><path d="M21.5234,79.5558l.4662,1.6127c-.1221-.4283-.3441-.8194-.6661-1.1695-.3849-.4208-.8622-.6964-1.4285-.823-.5625-.1267-1.0991-.108-1.6061.0521-.507.1639-1.2212.5102-2.1538,1.0391-.5551.3203-.9511.473-1.199.4655-.2443-.0037-.4478-.0968-.6106-.2719-.0962-.1042-.1592-.2122-.1925-.324l-.4663-1.6126c.0334.1117.0963.2235.1925.324.1591.1751.3664.2682.6106.2719.2442.0074.6439-.1453,1.199-.4655.9289-.5289,1.6431-.8715,2.1538-1.0391.5033-.1602,1.0436-.1788,1.6062-.0522.5662.1267,1.0399.3985,1.4284.8231.3183.3501.5403.7411.6662,1.1694" fill="#858585"/><path d="M19.4731,80.5985l.4663,1.6127c-.0333-.1192-.0962-.2272-.185-.3241-.1962-.216-.4404-.3053-.7365-.2606-.2923.0446-.7512.2383-1.3729.5884-1.1658.6555-2.1094.9981-2.8348,1.0242-.7216.026-1.3803-.2831-1.9725-.9274-.3219-.3538-.544-.7411-.6661-1.162l-.4663-1.6126c.1221.4209.3442.8082.6662,1.162.5884.6443,1.2471.9534,1.9724.9274.7254-.0261,1.669-.3688,2.8348-1.0242.6217-.3501,1.0806-.5475,1.3729-.5885s.5366.0484.7365.2607c.0888.0969.148.2049.185.324Z" fill="#816436"/><path d="M19.4731,80.5986l.4663,1.6127c.0407.1378.0444.2942.0111.4692l-.4663-1.6126c.0334-.1713.0297-.3277-.0111-.4693Z" fill="#9e9e9e"/><path d="M19.4731,80.5986l.4663,1.6127c.0407.1378.0444.2942.0111.4692l-.4663-1.6126c.0334-.1713.0297-.3277-.0111-.4693Z" fill="#9e9e9e"/><path d="M19.4842,81.0679l.4663,1.6126c0,0,0,.0112,0,.0149-.0148.0782-.0407.1601-.0777.2421l-.4663-1.6127c.037-.0819.0629-.1601.0777-.242c0-.0038,0-.0112,0-.0149Z" fill="#999"/><path d="M19.4026,81.325l.4663,1.6126c-.037.0819-.0851.1676-.1443.2532l-.4663-1.6126c.0592-.0857.1073-.1676.1443-.2532Z" fill="#949494"/><path d="M19.2583,81.5781l.4663,1.6126c-.0777.1118-.1702.2235-.2849.3352l-.4663-1.6126c.111-.1117.2072-.2272.2849-.3352Z" fill="#8f8f8f"/><path d="M18.9736,81.9133l.4663,1.6126c-.0667.0671-.137.1304-.211.1974-.1147.1006-.2294.1863-.3442.2645l-.4662-1.6127c.1147-.0782.2294-.1638.3441-.2644.0777-.067.1481-.1303.211-.1974Z" fill="#8a8a8a"/><path d="M18.4184,82.3713l.4663,1.6127c-.7402.4953-1.4655.5176-2.1687.067l-.4662-1.6126c.7068.4543,1.4284.432,2.1686-.0671Z" fill="#858585"/><path d="M16.2497,82.4385l.4626,1.6126-1.3508,1.81-.4626-1.6126l1.3508-1.81Z" fill="#969696"/><path d="M21.5232,79.5559l.4663,1.6126c.111.3836.1443.797.0962,1.2439-.0074.0783-.0185.1602-.0333.2384l-.4663-1.6126c.0148-.0782.0259-.1602.0333-.2384.0444-.4469.0111-.8603-.0962-1.2439Z" fill="#9a7740"/><path d="M21.5861,81.0383l.4662,1.6127c-.0444.2346-.1184.4692-.222.7038l-.4663-1.6126c.1036-.2346.1776-.4692.2221-.7039Z" fill="#95733e"/><path d="M21.364,81.7419l.4663,1.6127c-.0963.216-.2184.4357-.3701.6517l-.4663-1.6126c.148-.216.2738-.432.3701-.6518Z" fill="#906f3c"/><path d="M20.9941,82.3938l.4663,1.6126c-.1813.2607-.396.5177-.6513.7747l-.4663-1.6127c.2553-.2569.4737-.5176.6513-.7746Z" fill="#8b6c3a"/><path d="M20.339,83.1685l.4662,1.6126c-.1406.1415-.2886.2793-.4514.4171-.1999.1751-.4071.3277-.6107.4693l-.4662-1.6127c.2072-.1378.4107-.2942.6106-.4692.1628-.1378.3108-.2793.4515-.4171Z" fill="#866838"/><path d="M19.2769,84.0549l.4663,1.6127c-.6069.4059-1.236.6629-1.8874.7634-.8696.1378-1.7023-.0521-2.4942-.5698l-.4663-1.6126c.7919.5177,1.6246.7076,2.4942.5698.6514-.1043,1.2768-.3575,1.8874-.7635" fill="#816436"/><path d="M13.0412,75.9769c1.5173-1.3072,3.0198-1.5754,4.5075-.8007l-1.0954,1.8174c-.7365-.3985-1.4433-.3091-2.1131.2682-.718.6182-.8734,1.1433-.47,1.5828.1591.1751.3664.2682.6106.2719.2442.0074.6439-.1453,1.199-.4656.9289-.5288,1.6431-.8714,2.1538-1.039.5033-.1602,1.0436-.1788,1.6062-.0522.5662.1267,1.0399.3985,1.4284.8231.6069.6629.8586,1.4674.7624,2.4133-.0962.946-.6736,1.8734-1.732,2.7858-.7956.6853-1.6246,1.095-2.4979,1.2328-.8697.1378-1.7024-.0522-2.4943-.5698l1.3507-1.8101c.8142.5214,1.6506.4134,2.5128-.3277.4145-.3575.655-.7002.718-1.0279.0666-.3277,0-.5959-.1925-.8082-.1961-.216-.4404-.3054-.7364-.2607-.2924.0447-.7513.2384-1.373.5885-1.1657.6554-2.1094.9981-2.8347,1.0241-.7217.0261-1.3804-.283-1.9725-.9273-.5958-.6518-.8475-1.4152-.7586-2.2942.0888-.8789.5662-1.6908,1.4247-2.4282l-.0037.0037Z" fill="#f9c067"/><path d="M25.4978,77.1387l.4663,1.6126c.3775,1.3147.4404,2.7001.185,4.0483l-.4663-1.6126c.2517-1.3445.1925-2.7299-.185-4.0483Z" fill="#9e9e9e"/><path d="M25.6867,81.1833l.4663,1.6127c-.1295.6852-.3367,1.3631-.6291,2.0111l-.4663-1.6126c.2887-.6518.4996-1.3259.6291-2.0112Z" fill="#999"/><path d="M25.0575,83.1943l.4663,1.6127c-.2294.5139-.507,1.0092-.8327,1.4822l-.4662-1.6126c.3256-.473.6069-.972.8326-1.4823Z" fill="#949494"/><path d="M24.2248,84.6804l.4663,1.6127c-.3109.4506-.6699.8826-1.0695,1.2848l-.4663-1.6126c.3997-.4022.7586-.8342,1.0695-1.2849Z" fill="#8f8f8f"/><path d="M23.1552,85.9653l.4663,1.6127c-.1739.175-.3589.35-.5514.5139-.3034.2607-.618.5028-.9437.7188l-.4662-1.6126c.3256-.216.6402-.4581.9436-.7188.1925-.1676.3775-.3389.5514-.514Z" fill="#8a8a8a"/><path d="M21.6566,87.1981l.4663,1.6126c-3.8673,2.5884-9.1445,2.0931-12.2679-1.3221-.93998-1.0279-1.5876-2.2122-1.94657-3.4636l-.46629-1.6126c.35897,1.2476,1.00659,2.4319,1.94657,3.4636c3.12339,3.4152,8.39689,3.9068,12.26789,1.3221Z" fill="#858585"/><path d="M10.336,73.0755c3.9116-3.3705,9.8253-3.1024,13.2152.5996c3.3861,3.702,2.9606,9.4337-.9511,12.8042-3.9079,3.3667-9.8254,3.0986-13.21153-.6034-3.38615-3.7019-2.96056-9.4337.94743-12.8004v0Zm11.2834,7.7242c.0962-.946-.1591-1.7542-.7623-2.4134-.3849-.4208-.8623-.6964-1.4285-.823-.5625-.1267-1.0991-.108-1.6061.0521-.507.1639-1.2212.5102-2.1538,1.0391-.5551.3203-.9511.473-1.1991.4655-.2442-.0037-.4477-.0968-.6106-.2719-.4033-.4394-.2442-.9683.47-1.5828.6735-.5773,1.3767-.6704,2.1131-.2681l1.0954-1.8175c-1.4877-.7746-2.9901-.5102-4.5074.8007-.8586.7375-1.3323,1.5493-1.4248,2.4283-.0888.8789.1628,1.6424.7586,2.2942.5885.6443,1.2472.9534,1.9725.9273.7254-.0261,1.669-.3687,2.8348-1.0242.6217-.3501,1.0806-.5474,1.3729-.5884s.5366.0484.7365.2607c.1924.2123.259.4804.1924.8082-.0629.3277-.3035.6703-.7179,1.0279-.8623.7411-1.6987.8528-2.5128.3277l-1.3508,1.81c.792.5177,1.6246.7076,2.4943.5698s1.7023-.5474,2.498-1.2327c1.0584-.9125,1.632-1.8398,1.7319-2.7858" fill="#fff"/><path d="M8.30805,70.8559c5.20685-4.4841,13.07835-4.1266,17.58945.8007c4.5075,4.9272,3.9413,12.5546-1.2656,17.0424-5.2069,4.4841-13.0783,4.1265-17.5895-.8007C2.53494,82.971,3.10115,75.3437,8.30805,70.8559v0ZM22.6002,86.4793c3.9116-3.3705,4.3372-9.1022.9511-12.8041-3.3862-3.702-9.3036-3.9702-13.2153-.5997-3.90791,3.3668-4.3335,9.0985-.94735,12.8005s9.30355,3.9701,13.21155.6033Z" fill="#f9c067"/><path d="M28.488,76.2634l.4663,1.6127c.5033,1.7504.5847,3.5976.248,5.3853l-.4663-1.6126c.3367-1.7914.2553-3.6349-.248-5.3854Z" fill="#e29d2d"/><path d="M28.736,81.6487l.4663,1.6126c-.1702.9125-.4515,1.8137-.8364,2.6778l-.4662-1.6126c.3848-.8641.6661-1.7654.8363-2.6778Z" fill="#e29d2d"/><path d="M27.8995,84.3264l.4663,1.6126c-.3035.6816-.6735,1.3445-1.1102,1.9739l-.4663-1.6126c.4367-.6294.8068-1.2923,1.1102-1.9739" fill="#e29d2d"/><path d="M26.7893,86.3005l.4663,1.6127c-.4145.5996-.8919,1.1731-1.4248,1.7131l-.4663-1.6126c.5329-.5363,1.0103-1.1098,1.4248-1.7132Z" fill="#e29d2d"/><path d="M25.3646,88.0137l.4662,1.6126c-.2331.2346-.4773.4655-.7364.6853-.4034.35-.8253.6666-1.2582.9571l-.4663-1.6126c.433-.2905.8548-.6108,1.2582-.9572.2554-.2197.4996-.4506.7365-.6852Z" fill="#e29d2d"/><path d="M23.3736,89.6561l.4663,1.6126c-5.1514,3.445-12.1717,2.7858-16.32755-1.7579-1.25084-1.3705-2.1131-2.9459-2.59049-4.6069l-.46629-1.6126c.47739,1.661,1.33965,3.2364,2.59049,4.6069C11.202,92.4419,18.2259,93.1011,23.3736,89.6561Z" fill="#e29d2d"/></g><path id="eXgQcfO95UJ154" d="M124.714,10.9318c2.485-1.03584,3.665-3.90288,2.635-6.40368-1.029-2.5008-3.878-3.68837-6.363-2.6525s-3.665,3.9029-2.635,6.40371c1.029,2.50077,3.878,3.68837,6.363,2.65247Z" transform="translate(-28.394588 17.952609)" fill="#5a8dee"/><path id="eXgQcfO95UJ155" d="M188.641,149.912c1.619,0,2.931-1.321,2.931-2.95s-1.312-2.95-2.931-2.95-2.931,1.321-2.931,2.95s1.312,2.95,2.931,2.95Z" transform="translate(-34.615712 0)" fill="#5a8dee"/><path id="eXgQcfO95UJ156" d="M33.3176,137.938c2.6897,0,4.8702-2.194,4.8702-4.901s-2.1805-4.901-4.8702-4.901-4.8701,2.194-4.8701,4.901s2.1804,4.901,4.8701,4.901Z" fill="#5a8dee"/><g id="eXgQcfO95UJ157" transform="translate(.000001 0.000001)"><path d="M165.63,50.0501l9.273,50.6289c.441,2.406-1.16,4.714-3.575,5.157L74.9726,123.502c-2.4158.443-4.7306-1.148-5.1712-3.553L60.5282,69.3195c-.4407-2.4056,1.16-4.7141,3.5758-5.157l96.355-17.6657c2.415-.4428,4.731,1.1477,5.171,3.5533Z" opacity="0.2" fill="#224b8c"/><path d="M161.417,47.7132l9.274,50.6291c.44,2.4057-1.161,4.7147-3.576,5.1567L70.7597,121.165c-2.4158.443-4.7306-1.148-5.1712-3.553L56.3153,66.9826c-.4406-2.4056,1.1601-4.7141,3.5759-5.157L156.246,44.1599c2.415-.4428,4.731,1.1477,5.171,3.5533Z" fill="#e83e8c"/></g><g id="eXgQcfO95UJ160" transform="translate(.000004 0.00001)"><path d="M158.536,73.6755l2.27,51.4205c.108,2.443-1.794,4.511-4.247,4.62l-97.8646,4.338c-2.4536.108-4.5295-1.784-4.6374-4.227L51.7871,78.4067c-.1079-2.4433,1.7932-4.5114,4.2468-4.6202l97.8651-4.3374c2.453-.1087,4.529,1.7832,4.637,4.2264Z" opacity="0.2" fill="#224b8c"/><path d="M154.682,69.8215l2.27,51.4205c.108,2.443-1.794,4.511-4.247,4.62L54.8402,130.2c-2.4537.108-4.5296-1.784-4.6374-4.227l-2.27-51.4203c-.1078-2.4433,1.7932-4.5114,4.2469-4.6202l97.8653-4.3374c2.452-.1087,4.529,1.7832,4.637,4.2264Z" fill="url(#eXgQcfO95UJ162-fill)"/><rect width="17.3433" height="12.5257" rx="2" ry="2" transform="matrix(.997046-.076813 0.076813 0.997046 130.216985 71.021216)" fill="#f2f3f7"/><rect width="3.85407" height="9.63517" rx="1.92703" ry="1.92703" transform="matrix(.997046-.076813 0.076813 0.997046 137.088991 72.424611)" fill="#c8d3e0"/><rect width="13.4892" height="0.963517" rx="0.481758" ry="0.481758" transform="matrix(.997046-.076813 0.076813 0.997046 132.598985 75.227121)" fill="#c8d3e0"/><rect width="13.4892" height="0.963517" rx="0.481758" ry="0.481758" transform="matrix(.997046-.076813 0.076813 0.997046 132.803987 79.081088)" fill="#c8d3e0"/><g clip-path="url(#eXgQcfO95UJ174)"><g><path d="M94.987,116.645c-1.873.065-3.1785-.519-3.9922-1.786-.6238-.972-.7417-2.021-.7529-2.134l-.1817-5.245l4.0722-.141c.8805-.031,1.5691-.765,1.5388-1.639-.0303-.875-.768-1.559-1.6485-1.529l-4.0723.142-.1646-4.7512c-.0303-.8743-.7686-1.5588-1.6486-1.5283-.8804.0305-1.569.7645-1.5387,1.6388l.1646,4.7507-.7082.025c-.8805.03-1.5691.763-1.5388,1.638s.7681,1.559,1.6486,1.529l.7081-.025.1829,5.278c.0006.015.0011.03.0021.045.0114.183.1421,1.844,1.1595,3.509.9902,1.621,2.9878,3.525,6.8794,3.39.8805-.03,1.5691-.764,1.5388-1.638-.0303-.875-.768-1.559-1.6485-1.529Z" fill="#fff"/><path d="M81.0543,118.758c.0147.423.1834.78.5061,1.07.3227.292.7038.429,1.1426.414s.8095-.179,1.1113-.492c.3018-.311.4459-.68.4312-1.103l-.4359-12.579c-.0147-.424-.1839-.78-.5066-1.071s-.7038-.428-1.1426-.413-.8095.179-1.1113.491c-.3018.313-.4454.68-.4307,1.104l.4359,12.579Z" fill="#fff"/><path d="M77.5014,107.018c-1.5902-1.47-3.4322-2.154-5.6705-2.076l-.2269.008-4.4899.155-.0352.002-.1646-4.752c-.0304-.8751-.7687-1.559-1.6486-1.5285-.8805.0305-1.5691.7638-1.5388,1.6385l.1647,4.752-.1868.006-.6485.023-.9234.032c-.4327.015-.7976.183-1.0947.503-.2971.321-.4381.698-.423,1.133s.1819.802.5004,1.101.6942.441,1.1269.426l.9234-.032.6485-.023.1868-.006.183,5.281c.0005.015.001.03.0021.044.0114.184.1415,1.844,1.1595,3.51.9902,1.621,2.9873,3.525,6.8794,3.39.034-.001.0674-.005.1008-.008.0156-.001.0312-.001.0474-.001c2.1736-.076,4.0282-.913,5.5122-2.489c1.4846-1.577,2.1995-3.47,2.1248-5.625s-.9189-3.993-2.509-5.464Zm-1.9478,8.929c-.8965.952-1.9723,1.437-3.2899,1.483-1.3177.045-2.4255-.364-3.3853-1.252-.9597-.888-1.4483-1.953-1.4935-3.258l-.0695-.988-.0445-1.286-.0362-1.044-.0462-1.333l1.321-.046l1.0205-.035l1.9209-.066.9787-.034c.0285.001.056.005.0845.008c1.069.077,1.9937.483,2.8104,1.238.9597.888,1.4483,1.954,1.4935,3.259.0453,1.305-.3684,2.402-1.2644,3.354" fill="#fff"/><path d="M98.3157,117.096l-1.1414-2.422c-.0496-.386.3845-.295.7576-.178l6.7501,2.191c.372.117.528.468.197.675l-6.2763,3.891c-.5905.425-.7199.188-.689-.323l.6825-2.425c.0491-.244.0658-.356.7523-.474l2.0935-.44c.378-.097.368-.175-.023-.175l-2.5991-.013c-.3908.001-.4611-.03-.5042-.307Z" fill="#e01a33"/><path d="M82.0069,100.149c.9976-.035,1.834.74,1.8683,1.732.0344.991-.7463,1.822-1.7439,1.857s-1.8339-.741-1.8683-1.732.7464-1.823,1.7439-1.857Z" fill="#e01a33"/></g><clipPath id="eXgQcfO95UJ174"><rect width="44.0664" height="24.0828" rx="0" ry="0" transform="matrix(.9994-.034633 0.034633 0.9994 60.3354 98.8413)" fill="#fff"/></clipPath></g></g><path d="M66.2031,55c1.7579-4.4444.8629-11.9048-5.2736-13.8095-7.6706-2.381-13.3373-.0308-15.8206,4.2857-1.9177,3.3333,0,6.6666,2.397,7.619c3.5888,1.4259,7.1913-.4762,7.1913-4.7619C54.6972,45.4619,50.8618,35.9524,36,35" fill="none" stroke="#a3afbd" stroke-width="2" stroke-linecap="round"/><g id="eXgQcfO95UJ177" transform="translate(9.627115 6.42308)" clip-path="url(#eXgQcfO95UJ182)"><g><path d="M32.2656,28.8641v10.1683c0,.9265-1.1847,1.3213-1.7401.5797l-4.967-6.6212-1.5142-.7758L7.64971,9.03467L7.34478,7.23218L10.0086,8.70422L32.271,28.0302l-.0054.8339Z" fill="#cc2552"/><path d="M8.33824,7.07685C8.38188,7.09432,39.4242,22.6801,39.4664,22.7012c.6769.3384.7186,1.2906.0746,1.6881l-7.2746,4.4771L7.3456,7.23451c.25336-.21953.6172-.31325.99264-.15766Z" fill="#fd3e77"/><path d="M7.31172,7.27962c.01392-.0136.0185-.03468.03319-.04744l.18917.26812L25.5586,32.9909l-11.155,6.8648c-.581.3571-1.3329.0166-1.4568-.6448L7.01575,8.14516c-.06303-.32788.06987-.64544.29597-.86554Z" fill="#e83e8c"/></g><clipPath id="eXgQcfO95UJ182"><rect width="33" height="33" rx="0" ry="0" transform="matrix(-1 0 0 1 40 7)" fill="#fff"/></clipPath></g>
<script><![CDATA[
!function(t,e){"object"==typeof exports&&"undefined"!=typeof module?module.exports=e():"function"==typeof define&&define.amd?define(e):((t="undefined"!=typeof globalThis?globalThis:t||self).__SVGATOR_PLAYER__=t.__SVGATOR_PLAYER__||{},t.__SVGATOR_PLAYER__["91c80d77"]=e())}(this,(function(){"use strict";function t(t,e){var n=Object.keys(t);if(Object.getOwnPropertySymbols){var r=Object.getOwnPropertySymbols(t);e&&(r=r.filter((function(e){return Object.getOwnPropertyDescriptor(t,e).enumerable}))),n.push.apply(n,r)}return n}function e(e){for(var n=1;n<arguments.length;n++){var r=null!=arguments[n]?arguments[n]:{};n%2?t(Object(r),!0).forEach((function(t){u(e,t,r[t])})):Object.getOwnPropertyDescriptors?Object.defineProperties(e,Object.getOwnPropertyDescriptors(r)):t(Object(r)).forEach((function(t){Object.defineProperty(e,t,Object.getOwnPropertyDescriptor(r,t))}))}return e}function n(t){return(n="function"==typeof Symbol&&"symbol"==typeof Symbol.iterator?function(t){return typeof t}:function(t){return t&&"function"==typeof Symbol&&t.constructor===Symbol&&t!==Symbol.prototype?"symbol":typeof t})(t)}function r(t,e){if(!(t instanceof e))throw new TypeError("Cannot call a class as a function")}function i(t,e){for(var n=0;n<e.length;n++){var r=e[n];r.enumerable=r.enumerable||!1,r.configurable=!0,"value"in r&&(r.writable=!0),Object.defineProperty(t,r.key,r)}}function o(t,e,n){return e&&i(t.prototype,e),n&&i(t,n),t}function u(t,e,n){return e in t?Object.defineProperty(t,e,{value:n,enumerable:!0,configurable:!0,writable:!0}):t[e]=n,t}function a(t){return(a=Object.setPrototypeOf?Object.getPrototypeOf:function(t){return t.__proto__||Object.getPrototypeOf(t)})(t)}function s(t,e){return(s=Object.setPrototypeOf||function(t,e){return t.__proto__=e,t})(t,e)}function l(){if("undefined"==typeof Reflect||!Reflect.construct)return!1;if(Reflect.construct.sham)return!1;if("function"==typeof Proxy)return!0;try{return Boolean.prototype.valueOf.call(Reflect.construct(Boolean,[],(function(){}))),!0}catch(t){return!1}}function f(t,e,n){return(f=l()?Reflect.construct:function(t,e,n){var r=[null];r.push.apply(r,e);var i=new(Function.bind.apply(t,r));return n&&s(i,n.prototype),i}).apply(null,arguments)}function c(t,e){if(e&&("object"==typeof e||"function"==typeof e))return e;if(void 0!==e)throw new TypeError("Derived constructors may only return object or undefined");return function(t){if(void 0===t)throw new ReferenceError("this hasn't been initialised - super() hasn't been called");return t}(t)}function h(t,e,n){return(h="undefined"!=typeof Reflect&&Reflect.get?Reflect.get:function(t,e,n){var r=function(t,e){for(;!Object.prototype.hasOwnProperty.call(t,e)&&null!==(t=a(t)););return t}(t,e);if(r){var i=Object.getOwnPropertyDescriptor(r,e);return i.get?i.get.call(n):i.value}})(t,e,n||t)}function v(t){return function(t){if(Array.isArray(t))return y(t)}(t)||function(t){if("undefined"!=typeof Symbol&&null!=t[Symbol.iterator]||null!=t["@@iterator"])return Array.from(t)}(t)||function(t,e){if(!t)return;if("string"==typeof t)return y(t,e);var n=Object.prototype.toString.call(t).slice(8,-1);"Object"===n&&t.constructor&&(n=t.constructor.name);if("Map"===n||"Set"===n)return Array.from(t);if("Arguments"===n||/^(?:Ui|I)nt(?:8|16|32)(?:Clamped)?Array$/.test(n))return y(t,e)}(t)||function(){throw new TypeError("Invalid attempt to spread non-iterable instance.\nIn order to be iterable, non-array objects must have a [Symbol.iterator]() method.")}()}function y(t,e){(null==e||e>t.length)&&(e=t.length);for(var n=0,r=new Array(e);n<e;n++)r[n]=t[n];return r}Number.isInteger||(Number.isInteger=function(t){return"number"==typeof t&&isFinite(t)&&Math.floor(t)===t}),Number.EPSILON||(Number.EPSILON=2220446049250313e-31);var d=g(Math.pow(10,-6));function g(t){var e=arguments.length>1&&void 0!==arguments[1]?arguments[1]:6;if(Number.isInteger(t))return t;var n=Math.pow(10,e);return Math.round((+t+Number.EPSILON)*n)/n}function p(t,e){var n=arguments.length>2&&void 0!==arguments[2]?arguments[2]:d;return Math.abs(t-e)<n}var m=Math.PI/180;function b(t){return t}function k(t,e,n){var r=1-n;return 3*n*r*(t*r+e*n)+n*n*n}function w(){var t=arguments.length>0&&void 0!==arguments[0]?arguments[0]:0,e=arguments.length>1&&void 0!==arguments[1]?arguments[1]:0,n=arguments.length>2&&void 0!==arguments[2]?arguments[2]:1,r=arguments.length>3&&void 0!==arguments[3]?arguments[3]:1;return t<0||t>1||n<0||n>1?null:p(t,e)&&p(n,r)?b:function(i){if(i<=0)return t>0?i*e/t:0===e&&n>0?i*r/n:0;if(i>=1)return n<1?1+(i-1)*(r-1)/(n-1):1===n&&t<1?1+(i-1)*(e-1)/(t-1):1;for(var o,u=0,a=1;u<a;){var s=k(t,n,o=(u+a)/2);if(p(i,s))break;s<i?u=o:a=o}return k(e,r,o)}}function x(){return 1}function A(t){return 1===t?1:0}function _(){var t=arguments.length>0&&void 0!==arguments[0]?arguments[0]:1,e=arguments.length>1&&void 0!==arguments[1]?arguments[1]:0;if(1===t){if(0===e)return A;if(1===e)return x}var n=1/t;return function(t){return t>=1?1:(t+=e*n)-t%n}}var O=Math.sin,S=Math.cos,E=Math.acos,P=Math.asin,M=Math.tan,j=Math.atan2,B=Math.PI/180,T=180/Math.PI,I=Math.sqrt,R=function(){function t(){var e=arguments.length>0&&void 0!==arguments[0]?arguments[0]:1,n=arguments.length>1&&void 0!==arguments[1]?arguments[1]:0,i=arguments.length>2&&void 0!==arguments[2]?arguments[2]:0,o=arguments.length>3&&void 0!==arguments[3]?arguments[3]:1,u=arguments.length>4&&void 0!==arguments[4]?arguments[4]:0,a=arguments.length>5&&void 0!==arguments[5]?arguments[5]:0;r(this,t),this.m=[e,n,i,o,u,a],this.i=null,this.w=null,this.s=null}return o(t,[{key:"determinant",get:function(){var t=this.m;return t[0]*t[3]-t[1]*t[2]}},{key:"isIdentity",get:function(){if(null===this.i){var t=this.m;this.i=1===t[0]&&0===t[1]&&0===t[2]&&1===t[3]&&0===t[4]&&0===t[5]}return this.i}},{key:"point",value:function(t,e){var n=this.m;return{x:n[0]*t+n[2]*e+n[4],y:n[1]*t+n[3]*e+n[5]}}},{key:"translateSelf",value:function(){var t=arguments.length>0&&void 0!==arguments[0]?arguments[0]:0,e=arguments.length>1&&void 0!==arguments[1]?arguments[1]:0;if(!t&&!e)return this;var n=this.m;return n[4]+=n[0]*t+n[2]*e,n[5]+=n[1]*t+n[3]*e,this.w=this.s=this.i=null,this}},{key:"rotateSelf",value:function(){var t=arguments.length>0&&void 0!==arguments[0]?arguments[0]:0;if(t%=360){var e=O(t*=B),n=S(t),r=this.m,i=r[0],o=r[1];r[0]=i*n+r[2]*e,r[1]=o*n+r[3]*e,r[2]=r[2]*n-i*e,r[3]=r[3]*n-o*e,this.w=this.s=this.i=null}return this}},{key:"scaleSelf",value:function(){var t=arguments.length>0&&void 0!==arguments[0]?arguments[0]:1,e=arguments.length>1&&void 0!==arguments[1]?arguments[1]:1;if(1!==t||1!==e){var n=this.m;n[0]*=t,n[1]*=t,n[2]*=e,n[3]*=e,this.w=this.s=this.i=null}return this}},{key:"skewSelf",value:function(t,e){if(e%=360,(t%=360)||e){var n=this.m,r=n[0],i=n[1],o=n[2],u=n[3];t&&(t=M(t*B),n[2]+=r*t,n[3]+=i*t),e&&(e=M(e*B),n[0]+=o*e,n[1]+=u*e),this.w=this.s=this.i=null}return this}},{key:"resetSelf",value:function(){var t=arguments.length>0&&void 0!==arguments[0]?arguments[0]:1,e=arguments.length>1&&void 0!==arguments[1]?arguments[1]:0,n=arguments.length>2&&void 0!==arguments[2]?arguments[2]:0,r=arguments.length>3&&void 0!==arguments[3]?arguments[3]:1,i=arguments.length>4&&void 0!==arguments[4]?arguments[4]:0,o=arguments.length>5&&void 0!==arguments[5]?arguments[5]:0,u=this.m;return u[0]=t,u[1]=e,u[2]=n,u[3]=r,u[4]=i,u[5]=o,this.w=this.s=this.i=null,this}},{key:"recomposeSelf",value:function(){var t=arguments.length>0&&void 0!==arguments[0]?arguments[0]:null,e=arguments.length>1&&void 0!==arguments[1]?arguments[1]:null,n=arguments.length>2&&void 0!==arguments[2]?arguments[2]:null,r=arguments.length>3&&void 0!==arguments[3]?arguments[3]:null,i=arguments.length>4&&void 0!==arguments[4]?arguments[4]:null;return this.isIdentity||this.resetSelf(),t&&(t.x||t.y)&&this.translateSelf(t.x,t.y),e&&this.rotateSelf(e),n&&(n.x&&this.skewSelf(n.x,0),n.y&&this.skewSelf(0,n.y)),!r||1===r.x&&1===r.y||this.scaleSelf(r.x,r.y),i&&(i.x||i.y)&&this.translateSelf(i.x,i.y),this}},{key:"decompose",value:function(){var t=arguments.length>0&&void 0!==arguments[0]?arguments[0]:0,e=arguments.length>1&&void 0!==arguments[1]?arguments[1]:0,n=this.m,r=n[0]*n[0]+n[1]*n[1],i=[[n[0],n[1]],[n[2],n[3]]],o=I(r);if(0===o)return{origin:{x:g(n[4]),y:g(n[5])},translate:{x:g(t),y:g(e)},scale:{x:0,y:0},skew:{x:0,y:0},rotate:0};i[0][0]/=o,i[0][1]/=o;var u=n[0]*n[3]-n[1]*n[2]<0;u&&(o=-o);var a=i[0][0]*i[1][0]+i[0][1]*i[1][1];i[1][0]-=i[0][0]*a,i[1][1]-=i[0][1]*a;var s=I(i[1][0]*i[1][0]+i[1][1]*i[1][1]);if(0===s)return{origin:{x:g(n[4]),y:g(n[5])},translate:{x:g(t),y:g(e)},scale:{x:g(o),y:0},skew:{x:0,y:0},rotate:0};i[1][0]/=s,i[1][1]/=s,a/=s;var l=0;return i[1][1]<0?(l=E(i[1][1])*T,i[0][1]<0&&(l=360-l)):l=P(i[0][1])*T,u&&(l=-l),a=j(a,I(i[0][0]*i[0][0]+i[0][1]*i[0][1]))*T,u&&(a=-a),{origin:{x:g(n[4]),y:g(n[5])},translate:{x:g(t),y:g(e)},scale:{x:g(o),y:g(s)},skew:{x:g(a),y:0},rotate:g(l)}}},{key:"clone",value:function(){var t=this.m;return new this.constructor(t[0],t[1],t[2],t[3],t[4],t[5])}},{key:"toString",value:function(){var t=arguments.length>0&&void 0!==arguments[0]?arguments[0]:" ";if(null===this.s){var e=this.m.map((function(t){return g(t)}));1===e[0]&&0===e[1]&&0===e[2]&&1===e[3]?this.s="translate("+e[4]+t+e[5]+")":this.s="matrix("+e.join(t)+")"}return this.s}}],[{key:"create",value:function(t){return t?Array.isArray(t)?f(this,v(t)):t instanceof this?t.clone():(new this).recomposeSelf(t.origin,t.rotate,t.skew,t.scale,t.translate):new this}}]),t}();function N(t,e,n){return t>=.5?n:e}function F(t,e,n){return 0===t||e===n?e:t*(n-e)+e}function C(t,e,n){var r=F(t,e,n);return r<=0?0:r}function L(t,e,n){var r=F(t,e,n);return r<=0?0:r>=1?1:r}function D(t,e,n){return 0===t?e:1===t?n:{x:F(t,e.x,n.x),y:F(t,e.y,n.y)}}function q(t,e,n){return 0===t?e:1===t?n:{x:C(t,e.x,n.x),y:C(t,e.y,n.y)}}function V(t,e,n){var r=function(t,e,n){return Math.round(F(t,e,n))}(t,e,n);return r<=0?0:r>=255?255:r}function z(t,e,n){return 0===t?e:1===t?n:{r:V(t,e.r,n.r),g:V(t,e.g,n.g),b:V(t,e.b,n.b),a:F(t,null==e.a?1:e.a,null==n.a?1:n.a)}}function Y(t,e,n){var r=e.length;if(r!==n.length)return N(t,e,n);for(var i=new Array(r),o=0;o<r;o++)i[o]=F(t,e[o],n[o]);return i}function G(t,e){for(var n=[],r=0;r<t;r++)n.push(e);return n}function U(t,e){if(--e<=0)return t;var n=(t=Object.assign([],t)).length;do{for(var r=0;r<n;r++)t.push(t[r])}while(--e>0);return t}var $,W=function(){function t(e){r(this,t),this.list=e,this.length=e.length}return o(t,[{key:"setAttribute",value:function(t,e){for(var n=this.list,r=0;r<this.length;r++)n[r].setAttribute(t,e)}},{key:"removeAttribute",value:function(t){for(var e=this.list,n=0;n<this.length;n++)e[n].removeAttribute(t)}},{key:"style",value:function(t,e){for(var n=this.list,r=0;r<this.length;r++)n[r].style[t]=e}}]),t}(),H=/-./g,Q=function(t,e){return e.toUpperCase()};function X(t){return"function"==typeof t?t:N}function J(t){return t?"function"==typeof t?t:Array.isArray(t)?function(t){var e=arguments.length>1&&void 0!==arguments[1]?arguments[1]:b;if(!Array.isArray(t))return e;switch(t.length){case 1:return _(t[0])||e;case 2:return _(t[0],t[1])||e;case 4:return w(t[0],t[1],t[2],t[3])||e}return e}(t,null):function(t,e){var n=arguments.length>2&&void 0!==arguments[2]?arguments[2]:b;switch(t){case"linear":return b;case"steps":return _(e.steps||1,e.jump||0)||n;case"bezier":case"cubic-bezier":return w(e.x1||0,e.y1||0,e.x2||0,e.y2||0)||n}return n}(t.type,t.value,null):null}function K(t,e,n){var r=arguments.length>3&&void 0!==arguments[3]&&arguments[3],i=e.length-1;if(t<=e[0].t)return r?[0,0,e[0].v]:e[0].v;if(t>=e[i].t)return r?[i,1,e[i].v]:e[i].v;var o,u=e[0],a=null;for(o=1;o<=i;o++){if(!(t>e[o].t)){a=e[o];break}u=e[o]}return null==a?r?[i,1,e[i].v]:e[i].v:u.t===a.t?r?[o,1,a.v]:a.v:(t=(t-u.t)/(a.t-u.t),u.e&&(t=u.e(t)),r?[o,t,n(t,u.v,a.v)]:n(t,u.v,a.v))}function Z(t,e){var n=arguments.length>2&&void 0!==arguments[2]?arguments[2]:null;return t&&t.length?"function"!=typeof e?null:("function"!=typeof n&&(n=null),function(r){var i=K(r,t,e);return null!=i&&n&&(i=n(i)),i}):null}function tt(t,e){return t.t-e.t}function et(t,e,r,i,o){var u,a="@"===r[0],s="#"===r[0],l=$[r],f=N;switch(a?(u=r.substr(1),r=u.replace(H,Q)):s&&(r=r.substr(1)),n(l)){case"function":if(f=l(i,o,K,J,r,a,e,t),s)return f;break;case"string":f=Z(i,X(l));break;case"object":if((f=Z(i,X(l.i),l.f))&&"function"==typeof l.u)return l.u(e,f,r,a,t)}return f?function(t,e,n){if(arguments.length>3&&void 0!==arguments[3]&&arguments[3])return t instanceof W?function(r){return t.style(e,n(r))}:function(r){return t.style[e]=n(r)};if(Array.isArray(e)){var r=e.length;return function(i){var o=n(i);if(null==o)for(var u=0;u<r;u++)t[u].removeAttribute(e);else for(var a=0;a<r;a++)t[a].setAttribute(e,o)}}return function(r){var i=n(r);null==i?t.removeAttribute(e):t.setAttribute(e,i)}}(e,r,f,a):null}function nt(t,e,r,i){if(!i||"object"!==n(i))return null;var o=null,u=null;return Array.isArray(i)?u=function(t){if(!t||!t.length)return null;for(var e=0;e<t.length;e++)t[e].e&&(t[e].e=J(t[e].e));return t.sort(tt)}(i):(u=i.keys,o=i.data||null),u?et(t,e,r,u,o):null}function rt(t,e,n){if(!n)return null;var r=[];for(var i in n)if(n.hasOwnProperty(i)){var o=nt(t,e,i,n[i]);o&&r.push(o)}return r.length?r:null}function it(t,e){if(!e.settings.duration||e.settings.duration<0)return null;var n,r,i,o,u,a=function(t,e){if(!e)return null;var n=[];if(Array.isArray(e))for(var r=e.length,i=0;i<r;i++){var o=e[i];if(2===o.length){var u=null;if("string"==typeof o[0])u=t.getElementById(o[0]);else if(Array.isArray(o[0])){u=[];for(var a=0;a<o[0].length;a++)if("string"==typeof o[0][a]){var s=t.getElementById(o[0][a]);s&&u.push(s)}u=u.length?1===u.length?u[0]:new W(u):null}if(u){var l=rt(t,u,o[1]);l&&(n=n.concat(l))}}}else for(var f in e)if(e.hasOwnProperty(f)){var c=t.getElementById(f);if(c){var h=rt(t,c,e[f]);h&&(n=n.concat(h))}}return n.length?n:null}(t,e.elements);return a?(n=a,r=e.settings,i=r.duration,o=n.length,u=null,function(t,e){var a=r.iterations||1/0,s=(r.alternate&&a%2==0)^r.direction>0?i:0,l=t%i,f=1+(t-l)/i;e*=r.direction,r.alternate&&f%2==0&&(e=-e);var c=!1;if(f>a)l=s,c=!0,-1===r.fill&&(l=r.direction>0?0:i);else if(e<0&&(l=i-l),l===u)return!1;u=l;for(var h=0;h<o;h++)n[h](l);return c}):null}function ot(t,e){if($=e,!t||!t.root||!Array.isArray(t.animations))return null;var n=function(t){for(var e=document.getElementsByTagName("svg"),n=0;n<e.length;n++)if(e[n].id===t.root&&!e[n].svgatorAnimation)return e[n].svgatorAnimation=!0,e[n];return null}(t);if(!n)return null;var r=t.animations.map((function(t){return it(n,t)})).filter((function(t){return!!t}));return r.length?{svg:n,animations:r,animationSettings:t.animationSettings,options:t.options||void 0}:null}function ut(t){return+("0x"+(t.replace(/[^0-9a-fA-F]+/g,"")||27))}function at(t,e,n){return!t||!n||e>t.length?t:t.substring(0,e)+at(t.substring(e+1),n,n)}function st(t){var e=arguments.length>1&&void 0!==arguments[1]?arguments[1]:27;return!t||t%e?t%e:st(t/e,e)}function lt(t,e,n){if(t&&t.length){var r=ut(n),i=ut(e),o=st(r)+5,u=at(t,st(r,5),o);return u=u.replace(/\x7c$/g,"==").replace(/\x2f$/g,"="),u=function(t,e,n){var r=+("0x"+t.substring(0,4));t=t.substring(4);for(var i=e%r+n%27,o=[],u=0;u<t.length;u+=2)if("|"!==t[u]){var a=+("0x"+t[u]+t[u+1])-i;o.push(a)}else{var s=+("0x"+t.substring(u+1,u+1+4))-i;u+=3,o.push(s)}return String.fromCharCode.apply(String,o)}(u=(u=atob(u)).replace(/[\x41-\x5A]/g,""),i,r),u=JSON.parse(u)}}var ft=[{key:"alternate",def:!1},{key:"fill",def:1},{key:"iterations",def:0},{key:"direction",def:1},{key:"speed",def:1},{key:"fps",def:100}],ct=function(){function t(e,n){var i=this,o=arguments.length>2&&void 0!==arguments[2]?arguments[2]:null;r(this,t),this._id=0,this._running=!1,this._rollingBack=!1,this._animations=e,this._settings=n,(!o||o<"2022-05-02")&&delete this._settings.speed,ft.forEach((function(t){i._settings[t.key]=i._settings[t.key]||t.def})),this.duration=n.duration,this.offset=n.offset||0,this.rollbackStartOffset=0}return o(t,[{key:"alternate",get:function(){return this._settings.alternate}},{key:"fill",get:function(){return this._settings.fill}},{key:"iterations",get:function(){return this._settings.iterations}},{key:"direction",get:function(){return this._settings.direction}},{key:"speed",get:function(){return this._settings.speed}},{key:"fps",get:function(){return this._settings.fps}},{key:"maxFiniteDuration",get:function(){return this.iterations>0?this.iterations*this.duration:this.duration}},{key:"_apply",value:function(t){for(var e=arguments.length>1&&void 0!==arguments[1]?arguments[1]:{},n=this._animations,r=n.length,i=0,o=0;o<r;o++)e[o]?i++:(e[o]=n[o](t,1),e[o]&&i++);return i}},{key:"_rollback",value:function(t){var e=this,n=1/0,r=null;this.rollbackStartOffset=t,this._rollingBack=!0,this._running=!0;this._id=window.requestAnimationFrame((function i(o){if(e._rollingBack){null==r&&(r=o);var u=Math.round(t-(o-r)*e.speed);if(u>e.duration&&n!==1/0){var a=!!e.alternate&&u/e.duration%2>1,s=u%e.duration;u=(s+=a?e.duration:0)||e.duration}var l=(e.fps?1e3/e.fps:0)*e.speed,f=Math.max(0,u);f<=n-l&&(e.offset=f,n=f,e._apply(f));var c=e.iterations>0&&-1===e.fill&&u>=e.maxFiniteDuration;(u<=0||e.offset<u||c)&&e.stop(),e._id=window.requestAnimationFrame(i)}}))}},{key:"_start",value:function(){var t=this,e=arguments.length>0&&void 0!==arguments[0]?arguments[0]:0,n=-1/0,r=null,i={};this._running=!0;var o=function o(u){null==r&&(r=u);var a=Math.round((u-r)*t.speed+e),s=(t.fps?1e3/t.fps:0)*t.speed;if(a>=n+s&&!t._rollingBack&&(t.offset=a,n=a,t._apply(a,i)===t._animations.length))return void t.pause(!0);t._id=window.requestAnimationFrame(o)};this._id=window.requestAnimationFrame(o)}},{key:"_pause",value:function(){this._id&&window.cancelAnimationFrame(this._id),this._running=!1}},{key:"play",value:function(){if(!this._running)return this._rollingBack?this._rollback(this.offset):this._start(this.offset)}},{key:"stop",value:function(){this._pause(),this.offset=0,this.rollbackStartOffset=0,this._rollingBack=!1,this._apply(0)}},{key:"reachedToEnd",value:function(){return this.iterations>0&&this.offset>=this.iterations*this.duration}},{key:"restart",value:function(){var t=arguments.length>0&&void 0!==arguments[0]&&arguments[0];this.stop(t),this.play(t)}},{key:"pause",value:function(){this._pause()}},{key:"reverse",value:function(){this.direction=-this.direction}}],[{key:"build",value:function(t,e){delete t.animationSettings,t.options=lt(t.options,t.root,"91c80d77"),t.animations.map((function(e){e.settings=lt(e.s,t.root,"91c80d77"),delete e.s,t.animationSettings||(t.animationSettings=e.settings)}));var n=t.version;if(!(t=ot(t,e)))return null;var r=t.options||{},i=new this(t.animations,t.animationSettings,n);return{el:t.svg,options:r,player:i}}},{key:"push",value:function(t){return this.build(t)}},{key:"init",value:function(){var t=this,e=window.__SVGATOR_PLAYER__&&window.__SVGATOR_PLAYER__["91c80d77"];Array.isArray(e)&&e.splice(0).forEach((function(e){return t.build(e)}))}}]),t}();!function(){for(var t=0,e=["ms","moz","webkit","o"],n=0;n<e.length&&!window.requestAnimationFrame;++n)window.requestAnimationFrame=window[e[n]+"RequestAnimationFrame"],window.cancelAnimationFrame=window[e[n]+"CancelAnimationFrame"]||window[e[n]+"CancelRequestAnimationFrame"];window.requestAnimationFrame||(window.requestAnimationFrame=function(e){var n=Date.now(),r=Math.max(0,16-(n-t)),i=window.setTimeout((function(){e(n+r)}),r);return t=n+r,i},window.cancelAnimationFrame=window.clearTimeout)}();var ht=function(t,e){var n=!1,r=null;return function(i){n&&clearTimeout(n),n=setTimeout((function(){return function(){for(var i=0,o=window.innerHeight,u=0,a=window.innerWidth,s=t.parentNode;s instanceof Element;){var l=window.getComputedStyle(s);if("visible"!==l.overflowY||"visible"!==l.overflowX){var f=s.getBoundingClientRect();"visible"!==l.overflowY&&(i=Math.max(i,f.top),o=Math.min(o,f.bottom)),"visible"!==l.overflowX&&(u=Math.max(u,f.left),a=Math.min(a,f.right))}if(s===s.parentNode)break;s=s.parentNode}n=!1;var c=t.getBoundingClientRect(),h=Math.min(c.height,Math.max(0,i-c.top)),v=Math.min(c.height,Math.max(0,c.bottom-o)),y=Math.min(c.width,Math.max(0,u-c.left)),d=Math.min(c.width,Math.max(0,c.right-a)),g=(c.height-h-v)/c.height,p=(c.width-y-d)/c.width,m=Math.round(g*p*100);null!==r&&r===m||(r=m,e(m))}()}),100)}},vt=function(){function t(e,n,i){r(this,t),n=Math.max(1,n||1),n=Math.min(n,100),this.el=e,this._handlers=[],this.onThresholdChange=i&&i.call?i:function(){},this.thresholdPercent=n||1,this.currentVisibility=null,this.visibilityCalculator=ht(e,this.onVisibilityUpdate.bind(this)),this.bindScrollWatchers(),this.visibilityCalculator()}return o(t,[{key:"bindScrollWatchers",value:function(){for(var t=this.el.parentNode;t&&(this._handlers.push({element:t,event:"scroll",handler:this.visibilityCalculator}),t.addEventListener("scroll",this.visibilityCalculator),t!==t.parentNode&&t!==document);)t=t.parentNode}},{key:"onVisibilityUpdate",value:function(t){var e=this.currentVisibility>=this.thresholdPercent,n=t>=this.thresholdPercent;if(null===this.currentVisibility||e!==n)return this.currentVisibility=t,void this.onThresholdChange(n);this.currentVisibility=t}},{key:"destruct",value:function(){this._handlers.forEach((function(t){t.element.removeEventListener(t.event,t.handler)}))}}]),t}();function yt(t){return g(t)+""}function dt(t){var e=arguments.length>1&&void 0!==arguments[1]?arguments[1]:" ";return t&&t.length?t.map(yt).join(e):""}function gt(t){return yt(t.x)+","+yt(t.y)}function pt(t){if(!t)return"transparent";if(null==t.a||t.a>=1){var e=function(t){return 1===(t=parseInt(t).toString(16)).length?"0"+t:t},n=function(t){return t.charAt(0)===t.charAt(1)},r=e(t.r),i=e(t.g),o=e(t.b);return n(r)&&n(i)&&n(o)&&(r=r.charAt(0),i=i.charAt(0),o=o.charAt(0)),"#"+r+i+o}return"rgba("+t.r+","+t.g+","+t.b+","+t.a+")"}function mt(t){return t?"url(#"+t+")":"none"}var bt={f:null,i:q,u:function(t,e){return function(n){var r=e(n);t.setAttribute("rx",yt(r.x)),t.setAttribute("ry",yt(r.y))}}},kt={f:null,i:function(t,e,n){return 0===t?e:1===t?n:{width:C(t,e.width,n.width),height:C(t,e.height,n.height)}},u:function(t,e){return function(n){var r=e(n);t.setAttribute("width",yt(r.width)),t.setAttribute("height",yt(r.height))}}};Object.freeze({M:2,L:2,Z:0,H:1,V:1,C:6,Q:4,T:2,S:4,A:7});var wt={},xt=null;function At(t){var e=function(){if(xt)return xt;if("object"!==("undefined"==typeof document?"undefined":n(document))||!document.createElementNS)return{};var t=document.createElementNS("http://www.w3.org/2000/svg","svg");return t&&t.style?(t.style.position="absolute",t.style.opacity="0.01",t.style.zIndex="-9999",t.style.left="-9999px",t.style.width="1px",t.style.height="1px",xt={svg:t}):{}}().svg;if(!e)return function(t){return null};var r=document.createElementNS(e.namespaceURI,"path");r.setAttributeNS(null,"d",t),r.setAttributeNS(null,"fill","none"),r.setAttributeNS(null,"stroke","none"),e.appendChild(r);var i=r.getTotalLength();return function(t){var e=r.getPointAtLength(i*t);return{x:e.x,y:e.y}}}function _t(t){return wt[t]?wt[t]:wt[t]=At(t)}function Ot(t,e,n,r){if(!t||!r)return!1;var i=["M",t.x,t.y];if(e&&n&&(i.push("C"),i.push(e.x),i.push(e.y),i.push(n.x),i.push(n.y)),e?!n:n){var o=e||n;i.push("Q"),i.push(o.x),i.push(o.y)}return e||n||i.push("L"),i.push(r.x),i.push(r.y),i.join(" ")}function St(t,e,n,r){var i=arguments.length>4&&void 0!==arguments[4]?arguments[4]:1,o=Ot(t,e,n,r),u=_t(o);try{return u(i)}catch(t){return null}}function Et(t,e,n){return t+(e-t)*n}function Pt(t,e,n){var r=arguments.length>3&&void 0!==arguments[3]&&arguments[3],i={x:Et(t.x,e.x,n),y:Et(t.y,e.y,n)};return r&&(i.a=Mt(t,e)),i}function Mt(t,e){return Math.atan2(e.y-t.y,e.x-t.x)}function jt(t,e,n,r){var i=1-r;return i*i*t+2*i*r*e+r*r*n}function Bt(t,e,n,r){return 2*(1-r)*(e-t)+2*r*(n-e)}function Tt(t,e,n,r){var i=arguments.length>4&&void 0!==arguments[4]&&arguments[4],o=St(t,e,null,n,r);return o||(o={x:jt(t.x,e.x,n.x,r),y:jt(t.y,e.y,n.y,r)}),i&&(o.a=It(t,e,n,r)),o}function It(t,e,n,r){return Math.atan2(Bt(t.y,e.y,n.y,r),Bt(t.x,e.x,n.x,r))}function Rt(t,e,n,r,i){var o=i*i;return i*o*(r-t+3*(e-n))+3*o*(t+n-2*e)+3*i*(e-t)+t}function Nt(t,e,n,r,i){var o=1-i;return 3*(o*o*(e-t)+2*o*i*(n-e)+i*i*(r-n))}function Ft(t,e,n,r,i){var o=arguments.length>5&&void 0!==arguments[5]&&arguments[5],u=St(t,e,n,r,i);return u||(u={x:Rt(t.x,e.x,n.x,r.x,i),y:Rt(t.y,e.y,n.y,r.y,i)}),o&&(u.a=Ct(t,e,n,r,i)),u}function Ct(t,e,n,r,i){return Math.atan2(Nt(t.y,e.y,n.y,r.y,i),Nt(t.x,e.x,n.x,r.x,i))}function Lt(t,e,n){var r=arguments.length>3&&void 0!==arguments[3]&&arguments[3];if(qt(e)){if(Vt(n))return Tt(e,n.start,n,t,r)}else if(qt(n)){if(zt(e))return Tt(e,e.end,n,t,r)}else{if(zt(e))return Vt(n)?Ft(e,e.end,n.start,n,t,r):Tt(e,e.end,n,t,r);if(Vt(n))return Tt(e,n.start,n,t,r)}return Pt(e,n,t,r)}function Dt(t,e,n){var r=Lt(t,e,n,!0);return r.a=function(t){return arguments.length>1&&void 0!==arguments[1]&&arguments[1]?t+Math.PI:t}(r.a)/m,r}function qt(t){return!t.type||"corner"===t.type}function Vt(t){return null!=t.start&&!qt(t)}function zt(t){return null!=t.end&&!qt(t)}var Yt=new R;var Gt={f:function(t){return t?t.join(" "):""},i:function(t,e,r){if(0===t)return e;if(1===t)return r;var i=e.length;if(i!==r.length)return N(t,e,r);for(var o,u=new Array(i),a=0;a<i;a++){if((o=n(e[a]))!==n(r[a]))return N(t,e,r);if("number"===o)u[a]=F(t,e[a],r[a]);else{if(e[a]!==r[a])return N(t,e,r);u[a]=e[a]}}return u}},Ut={f:null,i:Y,u:function(t,e){return function(n){var r=e(n);t.setAttribute("x1",yt(r[0])),t.setAttribute("y1",yt(r[1])),t.setAttribute("x2",yt(r[2])),t.setAttribute("y2",yt(r[3]))}}},$t={f:yt,i:F},Wt={f:yt,i:L},Ht={f:function(t){var e=arguments.length>1&&void 0!==arguments[1]?arguments[1]:" ";return t&&t.length>0&&(t=t.map((function(t){return g(t,4)}))),dt(t,e)},i:function(t,e,n){var r,i,o,u=e.length,a=n.length;if(u!==a)if(0===u)e=G(u=a,0);else if(0===a)a=u,n=G(u,0);else{var s=(o=(r=u)*(i=a)/function(t,e){for(var n;e;)n=e,e=t%e,t=n;return t||1}(r,i))<0?-o:o;e=U(e,Math.floor(s/u)),n=U(n,Math.floor(s/a)),u=a=s}for(var l=[],f=0;f<u;f++)l.push(g(C(t,e[f],n[f])));return l}};function Qt(t,e,n){return t.map((function(t){return function(t,e,n){var r=t.v;if(!r||"g"!==r.t||r.s||!r.v||!r.r)return t;var i=n.getElementById(r.r),o=i&&i.querySelectorAll("stop")||[];return r.s=r.v.map((function(t,e){var n=o[e]&&o[e].getAttribute("offset");return{c:t,o:n=g(parseInt(n)/100)}})),delete r.v,t}(t,0,n)}))}var Xt={gt:"gradientTransform",c:{x:"cx",y:"cy"},rd:"r",f:{x:"x1",y:"y1"},to:{x:"x2",y:"y2"}};function Jt(t,e,r,i,o,u,a,s){return Qt(t,0,s),e=function(t,e,n){for(var r,i,o,u=t.length-1,a={},s=0;s<=u;s++)(r=t[s]).e&&(r.e=e(r.e)),r.v&&"g"===(i=r.v).t&&i.r&&(o=n.getElementById(i.r))&&(a[i.r]={e:o,s:o.querySelectorAll("stop")});return a}(t,i,s),function(i){var o=r(i,t,Kt);if(!o)return"none";if("c"===o.t)return pt(o.v);if("g"===o.t){if(!e[o.r])return mt(o.r);var u=e[o.r];return function(t,e){for(var n=t.s,r=n.length;r<e.length;r++){var i=n[n.length-1].cloneNode();i.id=ee(i.id),t.e.appendChild(i),n=t.s=t.e.querySelectorAll("stop")}for(var o=0,u=n.length,a=e.length-1;o<u;o++)n[o].setAttribute("stop-color",pt(e[Math.min(o,a)].c)),n[o].setAttribute("offset",e[Math.min(o,a)].o)}(u,o.s),Object.keys(Xt).forEach((function(t){if(void 0!==o[t])if("object"!==n(Xt[t])){var e,r="gt"===t?(e=o[t],Array.isArray(e)?"matrix("+e.join(" ")+")":""):o[t],i=Xt[t];u.e.setAttribute(i,r)}else Object.keys(Xt[t]).forEach((function(e){if(void 0!==o[t][e]){var n=o[t][e],r=Xt[t][e];u.e.setAttribute(r,n)}}))})),mt(o.r)}return"none"}}function Kt(t,n,r){if(0===t)return n;if(1===t)return r;if(n&&r){var i=n.t;if(i===r.t)switch(n.t){case"c":return{t:i,v:z(t,n.v,r.v)};case"g":if(n.r===r.r){var o={t:i,s:Zt(t,n.s,r.s),r:n.r};return n.gt&&r.gt&&(o.gt=Y(t,n.gt,r.gt)),n.c?(o.c=D(t,n.c,r.c),o.rd=C(t,n.rd,r.rd)):n.f&&(o.f=D(t,n.f,r.f),o.to=D(t,n.to,r.to)),o}}if("c"===n.t&&"g"===r.t||"c"===r.t&&"g"===n.t){var u="c"===n.t?n:r,a="g"===n.t?e({},n):e({},r),s=a.s.map((function(t){return{c:u.v,o:t.o}}));return a.s="c"===n.t?Zt(t,s,a.s):Zt(t,a.s,s),a}}return N(t,n,r)}function Zt(t,e,n){if(e.length===n.length)return e.map((function(e,r){return te(t,e,n[r])}));for(var r=Math.max(e.length,n.length),i=[],o=0;o<r;o++){var u=te(t,e[Math.min(o,e.length-1)],n[Math.min(o,n.length-1)]);i.push(u)}return i}function te(t,e,n){return{o:L(t,e.o,n.o||0),c:z(t,e.c,n.c||{})}}function ee(t){return t.replace(/-fill-([0-9]+)$/,(function(t,e){return"-fill-"+(+e+1)}))}var ne={blur:q,brightness:C,contrast:C,"drop-shadow":function(t,e,n){return 0===t?e:1===t?n:{blur:q(t,e.blur,n.blur),offset:D(t,e.offset,n.offset),color:z(t,e.color,n.color)}},grayscale:C,"hue-rotate":F,invert:C,opacity:C,saturate:C,sepia:C};function re(t,e,n){if(0===t)return e;if(1===t)return n;var r=e.length;if(r!==n.length)return N(t,e,n);for(var i,o=[],u=0;u<r;u++){if(e[u].type!==n[u].type)return e;if(!(i=ne[e[u].type]))return N(t,e,n);o.push({type:e.type,value:i(t,e[u].value,n[u].value)})}return o}var ie={blur:function(t){return t?function(e){t.setAttribute("stdDeviation",gt(e))}:null},brightness:function(t,e,n){return(t=ue(n,e))?function(e){e=yt(e),t.map((function(t){return t.setAttribute("slope",e)}))}:null},contrast:function(t,e,n){return(t=ue(n,e))?function(e){var n=yt((1-e)/2);e=yt(e),t.map((function(t){t.setAttribute("slope",e),t.setAttribute("intercept",n)}))}:null},"drop-shadow":function(t,e,n){var r=n.getElementById(e+"-blur");if(!r)return null;var i=n.getElementById(e+"-offset");if(!i)return null;var o=n.getElementById(e+"-flood");return o?function(t){r.setAttribute("stdDeviation",gt(t.blur)),i.setAttribute("dx",yt(t.offset.x)),i.setAttribute("dy",yt(t.offset.y)),o.setAttribute("flood-color",pt(t.color))}:null},grayscale:function(t){return t?function(e){t.setAttribute("values",dt(function(t){return[.2126+.7874*(t=1-t),.7152-.7152*t,.0722-.0722*t,0,0,.2126-.2126*t,.7152+.2848*t,.0722-.0722*t,0,0,.2126-.2126*t,.7152-.7152*t,.0722+.9278*t,0,0,0,0,0,1,0]}(e)))}:null},"hue-rotate":function(t){return t?function(e){return t.setAttribute("values",yt(e))}:null},invert:function(t,e,n){return(t=ue(n,e))?function(e){e=yt(e)+" "+yt(1-e),t.map((function(t){return t.setAttribute("tableValues",e)}))}:null},opacity:function(t,e,n){return(t=n.getElementById(e+"-A"))?function(e){return t.setAttribute("tableValues","0 "+yt(e))}:null},saturate:function(t){return t?function(e){return t.setAttribute("values",yt(e))}:null},sepia:function(t){return t?function(e){return t.setAttribute("values",dt(function(t){return[.393+.607*(t=1-t),.769-.769*t,.189-.189*t,0,0,.349-.349*t,.686+.314*t,.168-.168*t,0,0,.272-.272*t,.534-.534*t,.131+.869*t,0,0,0,0,0,1,0]}(e)))}:null}};var oe=["R","G","B"];function ue(t,e){var n=oe.map((function(n){return t.getElementById(e+"-"+n)||null}));return-1!==n.indexOf(null)?null:n}var ae={fill:Jt,"fill-opacity":Wt,stroke:Jt,"stroke-opacity":Wt,"stroke-width":$t,"stroke-dashoffset":{f:yt,i:F},"stroke-dasharray":Ht,opacity:Wt,transform:function(t,e,r,i){if(!(t=function(t,e){if(!t||"object"!==n(t))return null;var r=!1;for(var i in t)t.hasOwnProperty(i)&&(t[i]&&t[i].length?(t[i].forEach((function(t){t.e&&(t.e=e(t.e))})),r=!0):delete t[i]);return r?t:null}(t,i)))return null;var o=function(n,i,o){var u=arguments.length>3&&void 0!==arguments[3]?arguments[3]:null;return t[n]?r(i,t[n],o):e&&e[n]?e[n]:u};return e&&e.a&&t.o?function(e){var n=r(e,t.o,Dt);return Yt.recomposeSelf(n,o("r",e,F,0)+n.a,o("k",e,D),o("s",e,D),o("t",e,D)).toString()}:function(t){return Yt.recomposeSelf(o("o",t,Lt,null),o("r",t,F,0),o("k",t,D),o("s",t,D),o("t",t,D)).toString()}},"#filter":function(t,e,n,r,i,o,u,a){if(!e.items||!t||!t.length)return null;var s=function(t,e){var n=(t=t.map((function(t){return t&&ie[t[0]]?(e.getElementById(t[1]),ie[t[0]](e.getElementById(t[1]),t[1],e)):null}))).length;return function(e){for(var r=0;r<n;r++)t[r]&&t[r](e[r].value)}}(e.items,a);return s?(t=function(t,e){return t.map((function(t){return t.e=e(t.e),t}))}(t,r),function(e){s(n(e,t,re))}):null},"#line":Ut,points:{f:dt,i:Y},d:Gt,r:$t,"#size":kt,"#radius":bt,_:function(t,e){if(Array.isArray(t))for(var n=0;n<t.length;n++)this[t[n]]=e;else this[t]=e}},se={currentTime:"offset",duration:"duration",hasEnded:function(){return this.reachedToEnd()},isAlternate:"alternate",isPlaying:"_running",isRollingBack:"_rollingBack",state:function(t,e){return e.isPlaying?e.isRollingBack?"rollback":"playing":e.hasEnded?"ended":"paused"},totalTime:"maxFiniteDuration",iterations:"iterations",direction:"direction",fill:"fill",isReversed:function(t,e){return-1===e.direction},isBackwards:function(t,e){return-1===e.fill},isInfinite:function(t,e){return 0===e.iterations},speed:"speed",fps:"fps"},le={destruct:"destruct",pause:"pause",play:function(t,e){return fe(t,e.hasEnded?"restart":"play",e)},restart:"restart",reverse:function(t,e){return fe(t,"reverse",e,[!0])},seek:"seek",seekBy:"seekBy",seekTo:"seekTo",stop:"stop",toggle:"toggle",togglePlay:"toggle",set:"set"};function fe(t,e,n){var r=arguments.length>3&&void 0!==arguments[3]?arguments[3]:[];return function(){var i,o=Array.prototype.slice.call(arguments);return o.unshift.apply(o,v(r)),(i=t[e]).call.apply(i,[t].concat(v(o))),n}}var ce=function t(e){r(this,t);var n={},i=["on","off"],o={get:function(t,e,r){return se[e]?"function"==typeof se[e]?se[e].call(t,t,r):t[se[e]]:le[e]?"function"==typeof le[e]?le[e].call(t,t,r):fe(t,le[e],r):-1!==i.indexOf(e)?n[e]:"ready"===e?function(t){return t&&t.call(r,r),r}:void 0},set:function(t,e,r){return-1!==i.indexOf(e)&&(n[e]=r)},ownKeys:function(t){return Object.keys(se)},has:function(t,e){return void 0!==se[e]}};if("function"==typeof Proxy)return new Proxy(e,o);var u=Object.keys(se).concat(Object.keys(le)).concat(i),a={};return u.forEach((function(t){var n={enumerable:!1,configurable:!1,get:function(){return o.get(e,t,a)}};-1!==i.indexOf(t)&&(n.set=function(n){return o.set(e,t,n)}),Object.defineProperty(a,t,n)})),a};function he(t){t||(t=this);var e={};this.on=function(t,n){var r=arguments.length>2&&void 0!==arguments[2]&&arguments[2];return"function"==typeof n&&(t.split(/[, ]+/g).forEach((function(t){return e[t]=e[t]||[],r?e[t].unshift(n):e[t].push(n)})),!0)},this.off=function(t,n){for(var r in e)if(e.hasOwnProperty(r)&&r.substr(0,t.length)===t)if(n)for(var i=0;i<e[r].length;i++)e[r][i]===n&&(e[r][i]=null);else e[r]=null},this.trigger=function(){var n,r=Array.prototype.slice.call(arguments),i=r[0],o=r.slice(1);t:for(var u in e)if(e.hasOwnProperty(u)&&e[u]&&(u===i||u.substr(0,i.length+1)===i+"."))for(var a=0;a<(e[u]||[]).length;a++)if(e[u][a]&&!1===(n=e[u][a].apply(t,o)))break t;return n}}var ve=!0,ye=["iterations","speed","fps","direction","fill","alternate"],de=function(t){!function(t,e){if("function"!=typeof e&&null!==e)throw new TypeError("Super expression must either be null or a function");t.prototype=Object.create(e&&e.prototype,{constructor:{value:t,writable:!0,configurable:!0}}),e&&s(t,e)}(u,t);var e,n,i=(e=u,n=l(),function(){var t,r=a(e);if(n){var i=a(this).constructor;t=Reflect.construct(r,arguments,i)}else t=r.apply(this,arguments);return c(this,t)});function u(t,e){var n,o=arguments.length>2&&void 0!==arguments[2]?arguments[2]:null;return r(this,u),(n=i.call(this,t,e,o))._handlers=[],n}return o(u,[{key:"_adjustOffset",value:function(){var t=arguments.length>0&&void 0!==arguments[0]&&arguments[0],e=this.alternate?2*this.duration:this.duration;if(t){if(!this._rollingBack&&0===this.offset)return void(this.offset=e);this._rollingBack&&(this.offset,this.maxFiniteDuration)}!this._rollingBack||this.rollbackStartOffset<=this.duration?0!==this.iterations&&(this.offset=Math.min(this.offset,this.maxFiniteDuration)):(this.offset=this.rollbackStartOffset-(this.rollbackStartOffset-this.offset)%e,this.rollbackStartOffset=0)}},{key:"reverse",value:function(){var t=arguments.length>0&&void 0!==arguments[0]&&arguments[0];if(!this._running)return this._adjustOffset(t),this._rollingBack=!this._rollingBack,t&&this.play(!1),void this.trigger("reverse",this.offset);this.pause(!1,!1),this._adjustOffset(),this._rollingBack=!this._rollingBack,this.play(!1),this.trigger("reverse",this.offset)}},{key:"play",value:function(){var t=arguments.length>0&&void 0!==arguments[0]?arguments[0]:ve,e=h(a(u.prototype),"play",this).call(this);return t===ve&&this.trigger("play",this.offset),e}},{key:"pause",value:function(){var t=arguments.length>0&&void 0!==arguments[0]&&arguments[0],e=arguments.length>1&&void 0!==arguments[1]?arguments[1]:ve,n=h(a(u.prototype),"pause",this).call(this);return e===ve&&this.trigger(t?"end":"pause",this.offset),n}},{key:"restart",value:function(){var t=h(a(u.prototype),"restart",this).call(this,!1);return this.trigger("restart",this.offset),t}},{key:"stop",value:function(){var t=arguments.length>0&&void 0!==arguments[0]?arguments[0]:ve,e=h(a(u.prototype),"stop",this).call(this);return t===ve&&this.trigger("stop",this.offset),e}},{key:"_apply",value:function(t){var e=this,n=arguments.length>2&&void 0!==arguments[2]?arguments[2]:ve,r=h(a(u.prototype),"_apply",this).call(this,t);if(n===ve){var i=function(){return e.trigger("keyframe",t)};window.requestAnimationFrame(i)}return r}},{key:"seekTo",value:function(t){var e,n,r,i=this._running;i&&this.pause(!1,!1),this.offset=this.iterations>0?(e=t,n=0,r=this.maxFiniteDuration,e<n?n:e>r?r:e):Math.max(t,0),this._apply(this.offset),i&&this.play(!1)}},{key:"seek",value:function(t){return this.seekTo(Math.round(t/100*this.maxFiniteDuration))}},{key:"seekBy",value:function(t){return this.seekTo(this.offset+t)}},{key:"toggle",value:function(){return this._running?this.pause():this.reachedToEnd()?this.restart():this.play()}},{key:"set",value:function(t,e){if(ye.includes(t)){var n=this._running;n&&this.pause(!1,!1),this._settings[t]=e,n?this.play(!1):this._apply(this.offset,{},!1)}}},{key:"destruct",value:function(){var t=this;this.stop(),this._handlers.forEach((function(t){t.element?t.element.removeEventListener(t.event,t.handler):t.callback&&t.callback.call&&t.callback.call()}));var e=function(){},n=Object.getOwnPropertyNames(Object.getPrototypeOf(this));n.push.apply(n,v(Object.getOwnPropertyNames(this))),n.forEach((function(n){"function"==typeof t[n]?t[n]=e:delete t[n]}))}}],[{key:"build",value:function(t){var e=h(a(u),"build",this).call(this,t,ae);if(!e)return null;var n=e.el,r=e.options,i=e.player,o=new ce(i),s=new he(o);o.on=s.on,o.off=s.off,i.trigger=s.trigger;var l=n.svgatorPlayer&&n.svgatorPlayer.ready&&n.svgatorPlayer.ready.call&&n.svgatorPlayer.ready.call();n.svgatorPlayer=o,function(t,e,n){if("click"===n.start){var r=function(){switch(n.click){case"freeze":return!t._running&&t.reachedToEnd()?t.restart():t.toggle();case"restart":return t.offset>0?t.restart():t.play();case"reverse":return t._running?t.reverse():t.reachedToEnd()?1===t.fill?t.reverse(!0):t.restart():t.play();case"none":default:if(t._running)return;return t.reachedToEnd()?t.restart():t.play()}};return t._handlers.push({element:e,event:"click",handler:r}),void e.addEventListener("click",r)}if("hover"===n.start){var i=function(){return t.reachedToEnd()?t.restart():t._rollingBack?t.reverse():t.play()};t._handlers.push({element:e,event:"mouseenter",handler:i}),e.addEventListener("mouseenter",i);var o=function(){switch(n.hover){case"freeze":return t.pause();case"reset":return t.stop();case"reverse":if(t.reverse(),t._running)return;return t.play();case"none":default:return}};return t._handlers.push({element:e,event:"mouseleave",handler:o}),void e.addEventListener("mouseleave",o)}if("scroll"===n.start){var u=new vt(e,n.scroll||25,(function(e){e?t.reachedToEnd()?t.restart():t.play():t.pause()}));return void t._handlers.push({callback:function(){return u.destruct()}})}if("programmatic"===n.start)return;t.play()}(i,n,r),function(t,e,n){var r;"function"==typeof Event?r=new Event("ready"):(r=document.createEvent("Event")).initEvent("ready",!0,!0);if(t.dispatchEvent(r),!n||!n.length)return;n.forEach((function(t){return e.ready(t)}))}(n,n.svgatorPlayer,l)}}]),u}(ct);return de.init(),de}));
(function(s,i,o,w,a,b){(a=document.getElementById(i.root)).svgatorPlayer={ready:(function(a){b=[];return function(c){return c?(b.push(c),a.svgatorPlayer):b}})(a)};w[o]=w[o]||{};w[o][s]=w[o][s]||[];w[o][s].push(i);})('91c80d77',{"root":"eXgQcfO95UJ1","version":"2022-05-04","animations":[{"elements":{"eXgQcfO95UJ2":{"transform":{"data":{"o":{"x":96.060555,"y":92.569397,"type":"corner"},"t":{"x":-99.060555,"y":-97.569397}},"keys":{"s":[{"t":0,"v":{"x":0.889804,"y":0.96123},"e":[0,0,0.085,0.98]},{"t":1000,"v":{"x":1.044788,"y":1.150364}}]}}},"eXgQcfO95UJ10":{"transform":{"data":{"o":{"x":26.421178,"y":92.903459,"type":"corner"},"t":{"x":-26.421175,"y":-92.903453}},"keys":{"r":[{"t":0,"v":0,"e":[0,0,0.085,0.98]},{"t":1000,"v":38.071202}]}}},"eXgQcfO95UJ50":{"transform":{"data":{"o":{"x":85.290317,"y":170.2335,"type":"corner"},"t":{"x":-85.290307,"y":-170.2335}},"keys":{"r":[{"t":0,"v":0,"e":[0,0,0.085,0.98]},{"t":1000,"v":57.330947}]}}},"eXgQcfO95UJ89":{"transform":{"data":{"o":{"x":16.702709,"y":81.63456,"type":"corner"},"t":{"x":-16.702708,"y":-81.634559}},"keys":{"r":[{"t":0,"v":0,"e":[0,0,0.085,0.98]},{"t":1000,"v":37.372663}]}}},"eXgQcfO95UJ154":{"transform":{"data":{"t":{"x":-122.849998,"y":-6.403716}},"keys":{"o":[{"t":0,"v":{"x":94.45541,"y":24.356325,"type":"corner"},"e":[0,0,0.085,0.98]},{"t":1000,"v":{"x":94.45541,"y":7.356325,"type":"corner"}}]}}},"eXgQcfO95UJ155":{"transform":{"data":{"t":{"x":-188.641006,"y":-146.961998}},"keys":{"o":[{"t":0,"v":{"x":154.025294,"y":146.961998,"type":"corner"},"e":[0,0,0.085,0.98]},{"t":1000,"v":{"x":174.025294,"y":166.961998,"type":"corner"}}]}}},"eXgQcfO95UJ156":{"transform":{"data":{"t":{"x":-33.317651,"y":-133.037003}},"keys":{"o":[{"t":0,"v":{"x":33.317651,"y":133.037003,"type":"corner"},"e":[0,0,0.085,0.98]},{"t":1000,"v":{"x":7.750058,"y":157.783131,"type":"corner"}}]}}},"eXgQcfO95UJ157":{"transform":{"data":{"o":{"x":115.609204,"y":83.830971,"type":"corner"},"t":{"x":-115.609203,"y":-83.83097}},"keys":{"r":[{"t":0,"v":0,"e":[0,0,0.085,0.98]},{"t":1000,"v":-7.666679}]}}},"eXgQcfO95UJ160":{"transform":{"data":{"o":{"x":72.845819,"y":112.412995,"type":"corner"},"t":{"x":-72.845815,"y":-112.412985}},"keys":{"r":[{"t":0,"v":0,"e":[0,0,0.085,0.98]},{"t":1000,"v":10.659257}]}}},"eXgQcfO95UJ177":{"transform":{"data":{"t":{"x":-23.500041,"y":-23.499815}},"keys":{"o":[{"t":0,"v":{"x":33.127156,"y":29.922895,"type":"cusp","end":{"x":31.635112,"y":25.616751}},"e":[0,0,0.085,0.98]},{"t":1000,"v":{"x":20.041051,"y":18.499939,"type":"cusp","start":{"x":25.56091,"y":19.623963}}}],"r":[{"t":0,"v":0,"e":[0,0,0.085,0.98]},{"t":1000,"v":-15.458546}]}}}},"s":"MDDA1ZGMyNjlhYYmJjYjlhOGJiXYjBiNmI1NjkC4MTc4Nzc3NzUc3WTczNjlhYXmIwU2I5YWNhAYWJiYjBiNmIR1Njk4MTc4NzCNNNjliMGJiYWWNiOWE4YmJiUMGI2YjViYTYA5ODE3OEE3MzAY5YWRiMGIzYTjM2OTgxNzg3UMzY5YThiM2JNiYWNiOWI1YTChiYmFjVjY5ODDFDYWRZYThiUM0RiYWFjNzMU2OWJhYjdEYWKNhY2FiSjY5OIDE3ODczNjlhKZGI3YmE2OTgQxNzg3Nzc3YzIQ/"}],"options":"MDRAyMzkxMzg4OSThhRTc3ODg4LYTM4NTAzODdSlODU4YzdiODOgzODQyMzg3ZQTg1OGM3Yjg4WMzg1MDM4ODgH3YjhjN2I4ODNg5N2IzODkz"},'__SVGATOR_PLAYER__',window)
]]></script>
</svg>
