<svg width="309" height="452" viewBox="0 0 309 452" fill="none" xmlns="http://www.w3.org/2000/svg">
<path d="M122.871 280.307C122.871 280.307 129.929 224.193 159.767 214.821C189.605 205.452 243.439 206.702 257.582 126.936C265.862 80.2377 270.225 59.9712 272.418 51.1929C273.274 47.7679 270.376 44.2788 266.587 44.1819C239.781 43.4937 152.097 45.2368 126.111 95.6386C95.3044 155.392 122.871 280.307 122.871 280.307Z" fill="url(#paint0_linear_26_5273)"/>
<path opacity="0.5" d="M243.618 62.1451C211.027 80.2627 171.097 115.892 146.793 154.662C143.437 161.181 134.472 174.68 127.535 200.469C121.578 221.942 119.316 245.444 120.115 261.463C120.166 262.476 121.08 263.317 122.157 263.343C124.01 263.389 124.044 261.541 124.019 261.594C124.439 234.585 130.931 202.166 143.684 174.301C159.752 140.168 188.605 109.742 217.448 84.814L220.396 82.3804C242.64 63.75 246.625 64.3806 245.105 62.466C244.746 62.0144 244.096 61.8804 243.619 62.1418L243.618 62.1451Z" fill="white"/>
<path d="M14.6204 313.91C10.5905 313.082 68.9389 298.972 120.55 247.604C144.87 223.398 169.515 188.818 195.867 187.79C217.799 186.934 260.624 228.824 274.373 242.902C276.091 244.661 275.114 247.443 272.747 247.525C261.076 247.926 235.191 250.077 221.094 260.992C202.513 275.38 175.435 273.396 156.386 264.308C137.338 255.219 125.809 251.476 99.8343 270.56C73.8606 289.644 26.0686 316.261 14.6199 313.907L14.6204 313.91Z" fill="url(#paint1_linear_26_5273)"/>
<path opacity="0.5" d="M247.373 233.216C226.956 219.499 199.633 212.392 177.555 220.35L175.459 221.118C170.582 222.943 139.309 238.405 117.042 253.889C116.765 254.081 116.717 254.473 116.934 254.763C117.304 255.256 117.888 254.942 117.813 254.952C131.371 246.919 149.431 237.37 163.296 230.491C178.318 222.905 188.632 217.871 208.735 220.509C230.906 223.73 246.921 234.081 246.868 234.057C247.12 234.206 247.429 234.135 247.56 233.899C247.686 233.672 247.6 233.372 247.371 233.217L247.373 233.216Z" fill="white"/>
<defs>
<linearGradient id="paint0_linear_26_5273" x1="294.041" y1="8.49078" x2="35.0873" y2="94.1102" gradientUnits="userSpaceOnUse">
<stop stop-color="#CCFF8A"/>
<stop offset="1" stop-color="#20C997"/>
</linearGradient>
<linearGradient id="paint1_linear_26_5273" x1="313.572" y1="222.945" x2="13.8085" y2="230.605" gradientUnits="userSpaceOnUse">
<stop stop-color="#CCFF8A"/>
<stop offset="1" stop-color="#20C997"/>
</linearGradient>
</defs>
</svg>
