<svg width="834" height="1003" viewBox="0 0 834 1003" fill="none" xmlns="http://www.w3.org/2000/svg">
<path d="M273.542 414.388C273.542 414.388 272.999 414.321 272.009 414.165C271.445 414.077 271.107 413.559 271.248 413.008C271.313 412.766 271.457 412.559 271.648 412.407C271.389 412.059 271.101 411.657 270.793 411.213C270.486 410.769 270.634 410.137 271.125 409.801C271.617 409.466 272.265 409.552 272.572 409.996C273.443 411.246 274.127 412.102 274.454 412.513C274.546 412.633 274.611 412.715 274.644 412.756L276.077 414.699L273.546 414.386L273.542 414.388ZM266.898 413.231C265.233 412.892 263.536 412.511 261.86 412.102C261.31 411.967 261.02 411.421 261.205 410.881C261.396 410.343 261.992 410.011 262.54 410.143C264.195 410.544 265.864 410.919 267.505 411.256C268.06 411.368 268.374 411.905 268.208 412.449C268.179 412.543 268.135 412.632 268.084 412.714C267.835 413.101 267.356 413.324 266.898 413.231ZM269.56 407.306C269.044 407.597 268.411 407.455 268.146 406.981C267.319 405.49 266.585 403.974 265.966 402.481C265.759 401.98 266.029 401.377 266.571 401.133C267.114 400.889 267.72 401.096 267.928 401.597C268.52 403.03 269.227 404.482 270.02 405.916C270.196 406.231 270.16 406.615 269.965 406.918C269.868 407.069 269.729 407.204 269.559 407.302L269.56 407.306ZM265.623 398.339C265.058 398.521 264.49 398.236 264.351 397.712C263.905 396.016 263.604 394.325 263.456 392.684C263.406 392.136 263.835 391.614 264.412 391.518C264.99 391.421 265.498 391.788 265.548 392.337C265.686 393.874 265.972 395.463 266.392 397.061C266.464 397.335 266.405 397.62 266.253 397.855C266.113 398.074 265.892 398.255 265.623 398.339ZM256.882 410.794C255.226 410.327 253.574 409.825 251.975 409.309C251.443 409.134 251.194 408.567 251.424 408.039C251.656 407.505 252.269 407.22 252.801 407.395C254.375 407.904 256 408.396 257.633 408.857C258.175 409.011 258.444 409.57 258.238 410.101C258.209 410.171 258.178 410.233 258.138 410.295C257.875 410.708 257.351 410.929 256.882 410.794ZM264.425 388.501C263.849 388.489 263.429 388.032 263.488 387.477C263.624 386.215 263.861 384.962 264.189 383.751C264.32 383.27 264.435 382.809 264.54 382.356C264.668 381.806 265.23 381.417 265.798 381.491C266.365 381.564 266.718 382.073 266.591 382.626C266.481 383.102 266.354 383.593 266.218 384.096C265.918 385.201 265.702 386.35 265.574 387.509C265.558 387.674 265.501 387.826 265.412 387.965C265.203 388.29 264.826 388.509 264.421 388.502L264.425 388.501ZM273.994 370.217C273.614 370.068 273.396 369.712 273.41 369.329C272.854 368.629 272.466 367.752 272.206 366.633C272.082 366.103 272.442 365.538 273.008 365.372C273.574 365.205 274.132 365.502 274.256 366.033C274.571 367.391 275.078 368.203 275.953 368.758L274.851 370.551L273.988 370.215L273.994 370.217ZM266.272 378.478C265.693 378.496 265.249 378.058 265.285 377.5C265.389 375.777 265.283 374.194 264.972 372.797C264.852 372.265 265.221 371.701 265.784 371.54C266.352 371.38 266.907 371.679 267.027 372.211C267.376 373.775 267.493 375.537 267.38 377.433C267.368 377.612 267.31 377.785 267.215 377.931C267.015 378.244 266.663 378.457 266.273 378.469L266.272 378.478ZM247.145 407.64C245.542 407.051 243.949 406.425 242.406 405.779C241.891 405.565 241.696 404.975 241.963 404.461C242.231 403.942 242.866 403.706 243.38 403.917C244.897 404.553 246.464 405.168 248.041 405.747C248.565 405.937 248.788 406.519 248.543 407.041C248.522 407.083 248.501 407.125 248.475 407.164C248.196 407.605 247.628 407.814 247.145 407.64ZM269.268 368.418C267.437 367.739 265.84 367.165 264.514 366.713C263.985 366.533 263.746 365.958 263.981 365.431C264.223 364.911 264.835 364.626 265.369 364.804C266.71 365.262 268.326 365.841 270.173 366.526C270.695 366.721 270.917 367.3 270.668 367.823C270.647 367.865 270.625 367.903 270.599 367.943C270.316 368.385 269.747 368.594 269.267 368.415L269.268 368.418ZM272.734 362.392C272.157 362.488 271.649 362.121 271.599 361.573C271.465 360.121 271.297 358.526 270.975 356.726C270.879 356.188 271.261 355.636 271.832 355.496C272.403 355.357 272.948 355.676 273.043 356.214C273.381 358.081 273.553 359.725 273.69 361.222C273.709 361.45 273.647 361.674 273.525 361.869C273.356 362.132 273.071 362.334 272.734 362.392ZM264.596 368.85C264.115 369.202 263.463 369.142 263.137 368.71C262.19 367.458 261.125 366.71 260.42 366.219C260.122 366.012 259.885 365.838 259.722 365.696C259.636 365.619 259.566 365.548 259.511 365.483C259.162 365.072 259.271 364.456 259.735 364.081C260.194 363.705 260.879 363.756 261.229 364.171C261.349 364.28 261.531 364.401 261.752 364.556C262.5 365.08 263.755 365.958 264.873 367.436C265.119 367.759 265.108 368.199 264.888 368.545C264.814 368.662 264.718 368.768 264.597 368.854L264.596 368.85ZM237.768 403.713C236.402 403.061 235.054 402.383 233.761 401.698L233.257 401.429C232.774 401.168 232.635 400.56 232.95 400.068C233.269 399.577 233.921 399.389 234.405 399.654L234.904 399.921C236.171 400.595 237.492 401.26 238.831 401.898C239.332 402.135 239.499 402.735 239.207 403.239C239.199 403.255 239.19 403.267 239.181 403.279C238.878 403.754 238.256 403.951 237.771 403.72L237.768 403.713ZM271.132 352.622C270.574 352.823 269.993 352.564 269.833 352.044C269.375 350.549 268.811 349.034 268.162 347.542C267.948 347.047 268.206 346.437 268.746 346.185C269.286 345.934 269.893 346.132 270.113 346.629C270.789 348.185 271.376 349.764 271.857 351.321C271.946 351.605 271.889 351.906 271.728 352.153C271.592 352.361 271.39 352.53 271.137 352.624L271.132 352.622ZM267.441 343.556C266.926 343.851 266.293 343.708 266.028 343.234C265.863 342.936 265.692 342.636 265.515 342.33C264.888 341.248 264.195 340.204 263.451 339.231C263.125 338.799 263.244 338.162 263.727 337.813C264.202 337.459 264.86 337.521 265.188 337.949C265.976 338.982 266.714 340.087 267.377 341.233C267.557 341.546 267.736 341.856 267.905 342.165C268.081 342.48 268.045 342.863 267.851 343.17C267.754 343.321 267.619 343.455 267.445 343.554L267.441 343.556ZM230.364 398.561C230.021 399.036 229.36 399.187 228.894 398.898C227.449 398.001 226.042 397.063 224.712 396.112C224.266 395.794 224.201 395.153 224.581 394.708C224.953 394.251 225.615 394.141 226.061 394.459C227.356 395.387 228.727 396.302 230.141 397.174C230.591 397.453 230.698 398.036 230.402 398.504C230.39 398.522 230.378 398.539 230.364 398.561ZM261.75 335.629C261.328 336.044 260.664 336.076 260.267 335.706C259.117 334.623 257.854 333.623 256.522 332.731C256.067 332.425 255.974 331.794 256.346 331.337C256.706 330.872 257.364 330.739 257.819 331.045C259.238 331.994 260.573 333.056 261.801 334.206C262.138 334.522 262.173 335.027 261.914 335.426C261.869 335.498 261.813 335.566 261.746 335.631L261.75 335.629ZM222.237 392.893C221.834 393.325 221.171 393.394 220.75 393.046C219.457 391.963 218.213 390.831 217.054 389.686C216.67 389.301 216.709 388.667 217.14 388.261C217.575 387.857 218.239 387.838 218.622 388.218C219.742 389.329 220.951 390.426 222.206 391.478C222.572 391.787 222.628 392.316 222.358 392.732C222.32 392.789 222.282 392.842 222.233 392.894L222.237 392.893ZM252.298 330.363C250.837 329.684 249.294 329.097 247.71 328.621C247.173 328.46 246.911 327.894 247.127 327.363C247.345 326.827 247.953 326.531 248.494 326.69C250.169 327.196 251.804 327.813 253.346 328.533C253.85 328.765 254.023 329.368 253.734 329.87C253.726 329.886 253.715 329.903 253.707 329.919C253.407 330.388 252.79 330.588 252.302 330.362L252.298 330.363ZM215.152 386.094C214.686 386.465 214.029 386.427 213.683 386.011C212.61 384.723 211.605 383.383 210.695 382.025C210.394 381.574 210.556 380.944 211.05 380.616C211.544 380.288 212.191 380.383 212.492 380.834C213.369 382.139 214.335 383.429 215.368 384.671C215.636 384.994 215.639 385.449 215.408 385.812C215.343 385.917 215.256 386.01 215.152 386.094ZM242.856 327.521C240.366 327.137 238.607 327.143 238.17 327.195L235.883 327.783C235.314 327.93 234.766 327.612 234.663 327.077C234.56 326.542 234.94 325.986 235.509 325.839L237.743 325.264L237.748 325.279C239.244 324.902 243.316 325.522 243.363 325.528C243.926 325.615 244.268 326.129 244.127 326.68C244.095 326.792 244.049 326.898 243.989 326.992C243.751 327.362 243.3 327.586 242.855 327.517L242.856 327.521ZM209.555 378.092C209.031 378.374 208.405 378.213 208.156 377.732C207.388 376.246 206.705 374.71 206.124 373.16C205.936 372.651 206.227 372.057 206.771 371.829C207.319 371.599 207.919 371.825 208.107 372.334C208.662 373.815 209.314 375.29 210.05 376.71C210.211 377.022 210.171 377.395 209.983 377.691C209.88 377.853 209.733 377.991 209.55 378.09L209.555 378.092ZM205.907 369.008C205.342 369.178 204.777 368.888 204.649 368.359C204.255 366.743 203.951 365.069 203.746 363.385C203.68 362.839 204.095 362.306 204.668 362.195C205.244 362.082 205.765 362.436 205.832 362.982C206.029 364.595 206.319 366.195 206.694 367.744C206.759 368.012 206.7 368.294 206.554 368.523C206.411 368.746 206.181 368.926 205.904 369.014L205.907 369.008ZM230.718 329.107L225.551 330.436C224.982 330.583 224.434 330.265 224.331 329.73C224.228 329.195 224.608 328.639 225.177 328.492L230.344 327.163C230.913 327.016 231.461 327.334 231.564 327.869C231.612 328.128 231.554 328.388 231.414 328.606C231.263 328.845 231.017 329.032 230.718 329.107ZM204.482 359.209C203.903 359.264 203.426 358.86 203.419 358.306C203.4 356.642 203.468 354.918 203.625 353.183C203.674 352.624 204.182 352.173 204.762 352.171C205.339 352.171 205.769 352.619 205.718 353.175C205.569 354.845 205.506 356.505 205.523 358.103C205.524 358.306 205.462 358.505 205.357 358.672C205.171 358.963 204.852 359.171 204.485 359.207L204.482 359.209ZM220.384 331.765L215.216 333.094C214.648 333.241 214.1 332.923 213.996 332.388C213.893 331.854 214.274 331.297 214.842 331.15L220.01 329.821C220.578 329.675 221.126 329.992 221.229 330.527C221.278 330.786 221.22 331.046 221.079 331.264C220.929 331.504 220.683 331.69 220.384 331.765ZM205.169 349.157C204.598 349.109 204.216 348.621 204.316 348.066C204.617 346.409 204.996 344.705 205.447 342.992C205.593 342.443 206.166 342.071 206.727 342.163C207.287 342.256 207.626 342.775 207.48 343.323C207.044 344.98 206.675 346.636 206.381 348.24C206.355 348.379 206.303 348.507 206.229 348.624C206.006 348.972 205.595 349.196 205.165 349.158L205.169 349.157ZM207.628 339.206C207.076 339.076 206.782 338.532 206.966 337.988C207.503 336.415 208.105 334.798 208.763 333.188L208.979 332.657L209.675 332.48C210.243 332.333 210.792 332.651 210.895 333.185C210.963 333.536 210.828 333.893 210.564 334.141C209.979 335.593 209.441 337.042 208.96 338.46C208.933 338.546 208.894 338.624 208.848 338.696C208.593 339.094 208.097 339.315 207.633 339.208L207.628 339.206Z" fill="#91B3FA"/>
<path d="M226.31 329.763C226.31 329.763 249.434 331.309 248.577 347.857C247.72 364.404 242.568 381.255 247.999 386.579C247.999 386.579 204.962 375.303 218.389 332.678L226.307 329.768L226.31 329.763Z" fill="#FD3E77"/>
<path d="M233.733 283.486C233.733 283.486 256.378 277.2 261.395 282.504C266.165 287.549 278.245 334.993 279.409 339.608C279.462 339.817 279.333 340.036 279.115 340.119C277.311 340.82 275.346 340.687 273.818 339.752C266.43 335.243 244.509 321.592 239.459 315.311C233.362 307.722 233.734 283.49 233.734 283.49L233.733 283.486Z" fill="#6A9DFE"/>
<path d="M271.729 323.847C271.808 323.727 271.837 323.581 271.8 323.441C271.728 323.181 264.591 297.278 261.054 286.283C260.425 284.324 258.606 283.005 256.417 282.925C252.969 282.796 246.191 282.746 239.548 283.862C239.257 283.911 239.039 284.175 239.063 284.454C239.091 284.732 239.348 284.914 239.645 284.866C246.188 283.765 252.876 283.817 256.283 283.946C258.052 284.011 259.521 285.076 260.032 286.659C263.567 297.639 270.696 323.519 270.768 323.78C270.841 324.044 271.132 324.182 271.418 324.093C271.552 324.047 271.665 323.96 271.734 323.849L271.729 323.847Z" fill="url(#paint0_linear_26_5282)"/>
<path d="M186.689 300.302C186.689 300.302 165.58 311.021 164.991 318.501C164.429 325.619 184.149 370.086 186.076 374.411C186.164 374.605 186.396 374.683 186.614 374.6C188.418 373.899 189.832 372.449 190.431 370.692C193.318 362.191 201.714 336.758 201.734 328.505C201.757 318.537 186.694 300.304 186.694 300.304L186.689 300.302Z" fill="#6A9DFE"/>
<path d="M182.663 356.803C182.752 356.662 182.777 356.493 182.712 356.339C182.609 356.092 172.226 331.482 168.207 320.693C167.629 319.137 168.101 317.319 169.403 316.063C171.923 313.641 176.993 309.031 182.649 305.4C182.904 305.239 182.989 304.921 182.838 304.692C182.687 304.464 182.363 304.41 182.109 304.575C176.651 308.076 171.794 312.382 168.675 315.384C167.06 316.941 166.476 319.189 167.192 321.113C171.216 331.916 181.607 356.548 181.71 356.796C181.815 357.047 182.126 357.152 182.4 357.03C182.509 356.982 182.594 356.902 182.656 356.81L182.663 356.803Z" fill="url(#paint1_linear_26_5282)"/>
<path d="M210.476 212.937C217.02 221.036 223.047 230.993 227.263 243.077C240.347 280.588 242.964 310.912 243.464 319.572C243.553 321.141 242.718 322.69 241.314 323.639C230.243 331.119 218.227 335.892 205.27 337.974C202.832 338.366 200.487 337.419 199.198 335.543C193.59 327.421 177.989 303.04 165.694 267.056C161.587 255.037 160.112 243.39 160.15 232.779C178.435 219.754 198.827 215.004 210.48 212.935L210.476 212.937Z" fill="url(#paint2_linear_26_5282)"/>
<path d="M160.041 231.7C160.127 208.747 167.416 190.769 170.141 184.851C170.673 183.692 172.083 183.142 173.191 183.657C178.841 186.285 195.209 194.928 209.165 212.261C197.792 214.287 177.888 218.94 160.041 231.7Z" fill="#FD3E77"/>
<path d="M174.938 259.928C178.188 269.443 189.784 273.625 200.843 269.271C211.902 264.916 218.233 253.674 214.983 244.16C211.733 234.646 200.136 230.463 189.077 234.817C178.018 239.172 171.687 250.414 174.938 259.928Z" fill="url(#paint3_linear_26_5282)"/>
<path d="M178.283 258.02C180.872 265.599 190.111 268.934 198.924 265.465C207.736 261.993 212.78 253.036 210.19 245.457C207.601 237.878 198.362 234.544 189.549 238.012C180.737 241.484 175.693 250.441 178.283 258.02Z" fill="url(#paint4_linear_26_5282)"/>
<path d="M204.037 244.594C204.147 244.425 204.152 244.21 204.031 244.055C200.93 240.065 194.966 238.771 189.521 240.903C188.15 241.439 186.873 242.165 185.721 243.057C185.492 243.234 185.438 243.545 185.606 243.745C185.77 243.947 186.092 243.969 186.32 243.789C187.383 242.965 188.567 242.296 189.834 241.799C194.85 239.833 200.341 241.017 203.19 244.681C203.352 244.888 203.671 244.915 203.902 244.741C203.96 244.697 204.004 244.648 204.041 244.592L204.037 244.594Z" fill="#91B3FA"/>
<path d="M195.008 293.439C197.152 299.724 204.816 302.486 212.122 299.611C219.428 296.733 223.61 289.308 221.464 283.019C219.319 276.734 211.655 273.973 204.349 276.847C197.044 279.726 192.862 287.15 195.008 293.439Z" fill="url(#paint5_linear_26_5282)"/>
<path d="M197.217 292.175C198.928 297.183 205.031 299.386 210.852 297.092C216.674 294.798 220.007 288.88 218.297 283.872C216.587 278.865 210.483 276.661 204.662 278.956C198.84 281.25 195.507 287.167 197.217 292.175Z" fill="url(#paint6_linear_26_5282)"/>
<path d="M214.378 283.382C214.488 283.214 214.494 282.999 214.372 282.843C212.278 280.15 208.258 279.273 204.589 280.714C203.666 281.076 202.804 281.562 202.025 282.167C201.796 282.344 201.742 282.655 201.91 282.855C202.074 283.058 202.397 283.079 202.624 282.899C203.312 282.367 204.078 281.932 204.898 281.611C208.142 280.339 211.69 281.103 213.527 283.471C213.689 283.678 214.009 283.705 214.239 283.531C214.298 283.487 214.341 283.438 214.378 283.382Z" fill="#91B3FA"/>
<path d="M276.176 421.35L277.085 426.173C277.169 426.625 276.821 427.061 276.303 427.146C275.784 427.231 275.296 426.938 275.212 426.486L275.201 426.431L274.294 421.725L274.283 421.668C274.196 421.212 274.548 420.771 275.07 420.68C275.592 420.593 276.087 420.889 276.177 421.344L276.176 421.347L276.176 421.35Z" fill="#BDD0FB"/>
<path d="M277.825 430.966L277.994 435.842C278.01 436.289 277.608 436.672 277.102 436.698C276.593 436.723 276.168 436.382 276.153 435.935L276.15 435.889L275.966 431.115L275.964 431.063C275.945 430.61 276.347 430.224 276.863 430.196C277.378 430.168 277.807 430.512 277.825 430.966L277.825 430.968L277.825 430.966Z" fill="#BDD0FB"/>
<path d="M277.991 440.636L277.527 445.486C277.486 445.921 277.054 446.256 276.562 446.228C276.072 446.203 275.705 445.829 275.75 445.391L275.753 445.351L276.187 440.584L276.191 440.542C276.23 440.101 276.668 439.764 277.164 439.786C277.66 439.809 278.03 440.189 277.991 440.63L277.991 440.633L277.991 440.636Z" fill="#BDD0FB"/>
<path d="M276.909 450.201L275.907 455.008C275.819 455.431 275.361 455.72 274.884 455.653C274.406 455.586 274.089 455.19 274.178 454.767L274.181 454.736L275.151 449.996L275.154 449.962C275.246 449.534 275.707 449.242 276.191 449.307C276.676 449.371 276.995 449.773 276.909 450.201L276.909 450.204L276.909 450.201Z" fill="#BDD0FB"/>
<path d="M274.763 459.616L273.312 464.347C273.189 464.755 272.713 465.004 272.252 464.906C271.79 464.809 271.518 464.397 271.642 463.99L271.65 463.964L273.064 459.282L273.073 459.254C273.197 458.841 273.677 458.586 274.144 458.687C274.612 458.785 274.89 459.199 274.763 459.613L274.763 459.616Z" fill="#BDD0FB"/>
<path d="M271.737 468.83L269.911 473.474C269.757 473.864 269.275 474.082 268.831 473.956C268.389 473.83 268.153 473.414 268.308 473.021L268.316 473.002L270.105 468.396L270.114 468.374C270.269 467.978 270.757 467.757 271.205 467.883C271.653 468.009 271.892 468.431 271.737 468.827L271.737 468.83Z" fill="#BDD0FB"/>
<path d="M267.979 477.832L265.841 482.383C265.665 482.759 265.178 482.946 264.757 482.801C264.332 482.656 264.131 482.235 264.308 481.862L264.316 481.846L266.418 477.324L266.427 477.304C266.604 476.926 267.094 476.733 267.525 476.879C267.953 477.024 268.16 477.448 267.983 477.829L267.979 477.832Z" fill="#BDD0FB"/>
<path d="M263.615 486.619L261.213 491.079C261.021 491.437 260.536 491.599 260.132 491.44C259.727 491.282 259.555 490.861 259.747 490.503L259.754 490.489L262.122 486.053L262.13 486.036C262.322 485.672 262.814 485.508 263.225 485.667C263.636 485.826 263.811 486.252 263.619 486.616L263.615 486.619Z" fill="#BDD0FB"/>
<path d="M258.735 495.202L256.112 499.576C255.908 499.919 255.427 500.058 255.039 499.886C254.652 499.714 254.505 499.3 254.712 498.956L254.719 498.945L257.312 494.59L257.32 494.576C257.527 494.23 258.012 494.085 258.403 494.258C258.794 494.43 258.947 494.85 258.739 495.197L258.735 495.202Z" fill="#BDD0FB"/>
<path d="M253.418 503.589L250.599 507.878C250.383 508.205 249.91 508.324 249.542 508.147C249.174 507.966 249.05 507.556 249.262 507.23L249.263 507.221L252.055 502.947L252.062 502.936C252.279 502.604 252.758 502.482 253.133 502.663C253.507 502.843 253.634 503.26 253.418 503.592L253.418 503.589Z" fill="#BDD0FB"/>
<path d="M247.722 511.79L244.736 516C244.515 516.312 244.05 516.414 243.698 516.229C243.347 516.043 243.241 515.639 243.463 515.327L243.463 515.319L246.425 511.12L246.433 511.111C246.658 510.794 247.127 510.689 247.485 510.874C247.842 511.063 247.951 511.47 247.729 511.788L247.722 511.79Z" fill="#BDD0FB"/>
<path d="M241.698 519.822L238.562 523.953C238.335 524.251 237.88 524.34 237.542 524.149C237.207 523.959 237.118 523.563 237.345 523.263L237.345 523.257L240.454 519.132L240.461 519.124C240.689 518.821 241.15 518.729 241.495 518.923C241.836 519.114 241.929 519.515 241.698 519.822Z" fill="#BDD0FB"/>
<path d="M235.383 527.688L232.123 531.752C231.89 532.041 231.439 532.119 231.111 531.923C230.786 531.727 230.709 531.334 230.942 531.045L230.942 531.039L234.192 526.986L234.199 526.978C234.432 526.686 234.886 526.612 235.214 526.808C235.542 527.004 235.616 527.399 235.383 527.691L235.383 527.688Z" fill="#BDD0FB"/>
<path d="M228.817 535.407L225.436 539.401C225.197 539.684 224.747 539.747 224.429 539.546C224.111 539.344 224.05 538.952 224.289 538.669L224.289 538.663L227.66 534.681L227.66 534.675C227.906 534.392 228.356 534.326 228.677 534.528C228.995 534.729 229.059 535.124 228.82 535.408L228.817 535.407Z" fill="#BDD0FB"/>
<path d="M222.009 542.974L218.517 546.899C218.272 547.174 217.822 547.229 217.514 547.022C217.206 546.814 217.155 546.423 217.4 546.148L217.401 546.142L220.883 542.225L220.883 542.219C221.135 541.942 221.585 541.887 221.896 542.094C222.207 542.302 222.258 542.694 222.013 542.971L222.009 542.974Z" fill="#BDD0FB"/>
<path d="M214.987 550.398L211.393 554.256C211.141 554.525 210.696 554.571 210.395 554.358C210.094 554.145 210.052 553.756 210.303 553.488L210.304 553.482L213.887 549.632L213.888 549.626C214.142 549.358 214.591 549.311 214.896 549.521C215.197 549.734 215.238 550.126 214.99 550.395L214.987 550.398Z" fill="#BDD0FB"/>
<path d="M207.928 557.743L204.736 561.783L204.71 561.816C204.488 562.097 204.05 562.175 203.735 561.988C203.419 561.801 203.341 561.42 203.563 561.14L206.8 557.03C207.023 556.746 207.463 556.668 207.782 556.858C208.101 557.045 208.179 557.429 207.953 557.712L207.927 557.746L207.928 557.743Z" fill="#BDD0FB"/>
<path d="M201.867 565.645L199.288 569.975L199.269 570.008C199.092 570.307 198.672 570.432 198.335 570.282C197.998 570.135 197.866 569.77 198.046 569.472L200.661 565.072C200.838 564.77 201.262 564.649 201.599 564.796C201.939 564.946 202.071 565.31 201.89 565.609L201.871 565.642L201.867 565.645Z" fill="#BDD0FB"/>
<path d="M197.069 574.153L195.142 578.703L195.126 578.74C194.995 579.051 194.599 579.218 194.248 579.111C193.896 579.004 193.714 578.664 193.846 578.351L195.799 573.728C195.931 573.414 196.326 573.246 196.681 573.356C197.036 573.464 197.217 573.806 197.082 574.12L197.066 574.156L197.069 574.153Z" fill="#BDD0FB"/>
<path d="M193.609 583.137L192.359 587.831L192.349 587.867C192.263 588.188 191.903 588.393 191.542 588.326C191.18 588.258 190.956 587.946 191.042 587.626L192.305 582.859C192.391 582.539 192.754 582.333 193.116 582.398C193.477 582.466 193.701 582.78 193.618 583.101L193.609 583.137Z" fill="#BDD0FB"/>
<path d="M191.541 592.444L190.983 597.205L190.98 597.242C190.939 597.563 190.617 597.804 190.257 597.778C189.897 597.753 189.636 597.472 189.673 597.151L190.235 592.314C190.273 591.989 190.595 591.749 190.958 591.774C191.321 591.799 191.582 592.081 191.545 592.405L191.542 592.442L191.541 592.444Z" fill="#BDD0FB"/>
<path d="M190.926 601.918L191.047 606.7L191.044 606.737C191.058 607.059 190.768 607.329 190.408 607.344C190.044 607.359 189.745 607.112 189.738 606.794L189.611 601.938C189.603 601.617 189.89 601.343 190.254 601.328C190.617 601.314 190.919 601.56 190.926 601.882L190.923 601.918L190.926 601.918Z" fill="#BDD0FB"/>
<path d="M191.74 611.41L192.555 616.141L192.562 616.179C192.615 616.492 192.369 616.791 192.01 616.849C191.652 616.904 191.317 616.695 191.26 616.382L190.425 611.579C190.372 611.263 190.619 610.963 190.98 610.905C191.342 610.85 191.677 611.059 191.733 611.375L191.74 611.413L191.74 611.41Z" fill="#BDD0FB"/>
<path d="M193.978 620.772L195.488 625.375L195.498 625.41C195.599 625.712 195.394 626.035 195.046 626.131C194.698 626.227 194.334 626.056 194.233 625.754L192.697 621.081C192.596 620.776 192.801 620.453 193.149 620.357C193.5 620.261 193.864 620.432 193.965 620.734L193.978 620.769L193.978 620.772Z" fill="#BDD0FB"/>
<path d="M197.604 629.851L199.834 634.228L199.854 634.266C199.999 634.552 199.847 634.893 199.517 635.027C199.187 635.162 198.8 635.041 198.655 634.753L196.383 630.299C196.237 630.011 196.386 629.67 196.719 629.532C197.053 629.398 197.44 629.519 197.588 629.807L197.608 629.845L197.604 629.851Z" fill="#BDD0FB"/>
<path d="M202.692 638.442L205.605 642.522L205.626 642.552C205.813 642.818 205.719 643.172 205.411 643.343C205.102 643.514 204.703 643.441 204.512 643.175L201.551 639.035C201.361 638.769 201.458 638.415 201.767 638.241C202.075 638.067 202.477 638.143 202.668 638.409L202.692 638.439L202.692 638.442Z" fill="#BDD0FB"/>
<path d="M209.072 646.434L212.551 650.186L212.575 650.211C212.799 650.45 212.75 650.811 212.471 651.013C212.192 651.216 211.781 651.185 211.558 650.943L208.027 647.145C207.804 646.903 207.849 646.542 208.131 646.34C208.413 646.138 208.824 646.168 209.047 646.41L209.072 646.434Z" fill="#BDD0FB"/>
<path d="M216.521 653.759L220.489 657.148L220.514 657.17C220.767 657.386 220.768 657.745 220.516 657.973C220.264 658.201 219.856 658.212 219.606 657.996L215.582 654.566C215.329 654.351 215.327 653.988 215.579 653.76C215.832 653.532 216.243 653.522 216.496 653.738L216.524 653.759L216.521 653.759Z" fill="#BDD0FB"/>
<path d="M224.897 660.35L229.304 663.323L229.332 663.342C229.612 663.528 229.657 663.883 229.439 664.134C229.221 664.386 228.818 664.435 228.539 664.249L224.069 661.241C223.789 661.052 223.741 660.697 223.962 660.445C224.183 660.194 224.586 660.141 224.866 660.331L224.897 660.35Z" fill="#BDD0FB"/>
<path d="M234.107 666.094L238.91 668.583L238.945 668.602C239.244 668.759 239.341 669.104 239.158 669.375C238.974 669.645 238.583 669.74 238.284 669.584L233.407 667.064C233.104 666.908 233.008 666.56 233.191 666.289C233.375 666.016 233.769 665.921 234.069 666.077L234.104 666.094L234.107 666.094Z" fill="#BDD0FB"/>
<path d="M244.057 670.848L249.216 672.753L249.258 672.77C249.578 672.887 249.723 673.218 249.585 673.509C249.447 673.8 249.074 673.939 248.754 673.822L243.511 671.89C243.191 671.773 243.043 671.438 243.181 671.147C243.319 670.856 243.695 670.714 244.015 670.831L244.057 670.845L244.057 670.848Z" fill="#BDD0FB"/>
<path d="M254.65 674.413L260.097 675.606L260.146 675.618C260.481 675.692 260.682 676.003 260.593 676.313C260.503 676.622 260.163 676.815 259.825 676.741L254.275 675.531C253.937 675.456 253.736 675.145 253.826 674.833C253.915 674.52 254.259 674.327 254.597 674.402L254.646 674.413L254.65 674.413Z" fill="#BDD0FB"/>
<path d="M265.714 676.539L271.334 676.852L271.391 676.854C271.734 676.872 271.989 677.16 271.96 677.489C271.933 677.822 271.631 678.076 271.288 678.056L265.551 677.741C265.208 677.724 264.949 677.435 264.979 677.103C265.006 676.77 265.311 676.513 265.654 676.533L265.711 676.536L265.714 676.539Z" fill="#BDD0FB"/>
<path d="M276.995 677.058L282.582 676.351L282.643 676.341C282.98 676.299 283.286 676.516 283.324 676.825C283.361 677.134 283.12 677.421 282.782 677.463L277.073 678.189C276.736 678.231 276.426 678.014 276.389 677.705C276.352 677.393 276.596 677.106 276.934 677.064L276.995 677.055L276.995 677.058Z" fill="#BDD0FB"/>
<path d="M288.09 675.657L293.42 673.976L293.478 673.957C293.797 673.856 294.14 674.006 294.246 674.289C294.351 674.571 294.175 674.883 293.856 674.985L288.409 676.706C288.087 676.807 287.743 676.66 287.638 676.374C287.532 676.089 287.706 675.777 288.028 675.675L288.086 675.657L288.09 675.657Z" fill="#BDD0FB"/>
<path d="M298.48 672.301C300.083 671.462 301.603 670.496 302.995 669.408C303.245 669.212 303.625 669.226 303.841 669.443C304.058 669.658 304.031 669.993 303.779 670.189C302.326 671.33 300.742 672.337 299.074 673.211C298.785 673.362 298.414 673.283 298.25 673.033C298.087 672.783 298.185 672.455 298.477 672.304L298.48 672.301Z" fill="#BDD0FB"/>
<path d="M306.725 666.229C307.807 664.932 308.717 663.527 309.43 662.056C309.558 661.792 309.904 661.664 310.203 661.769C310.501 661.874 310.639 662.173 310.511 662.437C309.761 663.984 308.805 665.459 307.672 666.822C307.478 667.054 307.109 667.112 306.845 666.948C306.585 666.785 306.528 666.464 306.722 666.229L306.725 666.229Z" fill="#BDD0FB"/>
<path d="M310.93 657.7C311.244 656.151 311.364 654.576 311.31 653.008C311.299 652.73 311.544 652.492 311.852 652.478C312.163 652.461 312.423 652.674 312.431 652.949C312.492 654.583 312.366 656.231 312.039 657.853C311.984 658.128 311.689 658.318 311.383 658.276C311.077 658.233 310.871 657.975 310.927 657.7L310.93 657.7Z" fill="#BDD0FB"/>
<path d="M310.371 648.379C309.964 646.839 309.391 645.333 308.668 643.888C308.543 643.637 308.678 643.336 308.969 643.22C309.26 643.105 309.601 643.214 309.725 643.466C310.476 644.967 311.07 646.526 311.498 648.126C311.569 648.395 311.374 648.673 311.064 648.742C310.754 648.811 310.442 648.648 310.371 648.379Z" fill="#BDD0FB"/>
<path d="M305.798 639.742C304.791 638.414 303.651 637.164 302.401 636.004C302.184 635.803 302.199 635.484 302.434 635.289C302.67 635.093 303.033 635.098 303.25 635.3C304.543 636.496 305.725 637.791 306.768 639.165C306.942 639.396 306.868 639.712 306.599 639.871C306.331 640.03 305.972 639.973 305.798 639.742Z" fill="#BDD0FB"/>
<path d="M298.1 632.785L295.813 631.426C295.07 630.948 294.244 630.578 293.447 630.172L293.415 630.156C293.145 630.016 293.055 629.704 293.22 629.46C293.384 629.216 293.734 629.129 294.008 629.269C294.83 629.688 295.675 630.067 296.448 630.558L298.811 631.962C299.073 632.116 299.135 632.436 298.955 632.67C298.775 632.908 298.414 632.971 298.154 632.817L298.103 632.788L298.1 632.785Z" fill="#BDD0FB"/>
<path d="M288.239 628.125C286.487 627.571 284.684 627.153 282.851 626.894C282.541 626.849 282.333 626.58 282.39 626.294C282.448 626.007 282.742 625.809 283.052 625.854C284.955 626.123 286.823 626.556 288.634 627.125C288.93 627.219 289.082 627.519 288.975 627.794C288.865 628.068 288.536 628.216 288.239 628.125Z" fill="#BDD0FB"/>
<path d="M277.245 626.308C275.385 626.374 273.53 626.606 271.709 627C271.402 627.066 271.103 626.895 271.039 626.615C270.976 626.334 271.17 626.054 271.476 625.989C273.366 625.576 275.298 625.332 277.229 625.263C277.545 625.251 277.803 625.478 277.805 625.765C277.811 626.055 277.557 626.298 277.245 626.308Z" fill="#BDD0FB"/>
<path d="M266.383 628.077C264.673 628.745 263.024 629.545 261.458 630.461C261.199 630.612 260.855 630.552 260.689 630.326C260.526 630.1 260.602 629.794 260.862 629.641C262.48 628.695 264.181 627.865 265.953 627.173C266.239 627.062 266.565 627.175 266.686 627.425C266.803 627.675 266.668 627.966 266.382 628.08L266.383 628.077Z" fill="#BDD0FB"/>
<path d="M257.012 633.002C255.621 634.098 254.321 635.282 253.11 636.534C252.914 636.74 252.568 636.771 252.338 636.601C252.108 636.434 252.082 636.132 252.282 635.926C253.522 634.641 254.858 633.423 256.285 632.294C256.513 632.113 256.862 632.126 257.062 632.32C257.263 632.515 257.24 632.821 257.012 633.002Z" fill="#BDD0FB"/>
<path d="M249.786 640.078C248.771 641.438 247.85 642.851 247.021 644.303C246.885 644.538 246.562 644.638 246.297 644.525C246.032 644.413 245.925 644.136 246.057 643.901C246.903 642.416 247.843 640.969 248.88 639.576C249.044 639.354 249.38 639.289 249.63 639.426C249.88 639.563 249.946 639.856 249.782 640.078L249.786 640.078Z" fill="#BDD0FB"/>
<path d="M244.857 648.496C244.217 650.002 243.749 651.568 243.187 653.1L243.174 653.137C243.08 653.389 242.776 653.532 242.495 653.457C242.21 653.381 242.055 653.118 242.149 652.868C242.726 651.311 243.217 649.74 243.867 648.197C243.966 647.954 244.272 647.822 244.547 647.906C244.821 647.987 244.963 648.252 244.861 648.496L244.86 648.499L244.857 648.496Z" fill="#BDD0FB"/>
<path d="M241.964 657.629L241.034 662.365L241.032 662.396C240.976 662.669 240.681 662.857 240.378 662.817C240.072 662.778 239.867 662.524 239.92 662.251L240.893 657.458C240.948 657.194 241.232 657.011 241.529 657.053C241.826 657.095 242.021 657.339 241.97 657.604L241.967 657.635L241.964 657.629Z" fill="#BDD0FB"/>
<path d="M240.542 667.046L240.262 671.824L240.26 671.855C240.244 672.146 239.969 672.374 239.644 672.365C239.319 672.358 239.071 672.115 239.09 671.827L239.09 671.824L239.404 666.985C239.422 666.702 239.694 666.48 240.009 666.491C240.324 666.5 240.563 666.735 240.545 667.015L240.542 667.046Z" fill="#BDD0FB"/>
<path d="M240.474 676.558L240.792 681.338L240.789 681.366C240.814 681.671 240.55 681.938 240.203 681.964C239.857 681.991 239.562 681.765 239.541 681.46L239.541 681.457L239.251 676.616C239.232 676.319 239.492 676.058 239.829 676.037C240.165 676.012 240.451 676.233 240.47 676.529L240.467 676.557L240.474 676.558Z" fill="#BDD0FB"/>
<path d="M241.631 686.047L242.529 690.772L242.536 690.804C242.596 691.12 242.352 691.426 241.989 691.486C241.627 691.547 241.285 691.34 241.226 691.024L241.226 691.021L240.347 686.231C240.289 685.924 240.53 685.627 240.885 685.569C241.237 685.51 241.57 685.714 241.627 686.018L241.634 686.047L241.631 686.047Z" fill="#BDD0FB"/>
<path d="M243.974 695.407L245.453 700.023L245.463 700.055C245.565 700.377 245.349 700.719 244.978 700.817C244.607 700.915 244.221 700.734 244.119 700.412L244.12 700.409L242.646 695.722C242.547 695.406 242.763 695.072 243.127 694.977C243.488 694.882 243.864 695.059 243.963 695.375L243.974 695.407Z" fill="#BDD0FB"/>
<path d="M247.499 704.521L249.576 708.96L249.593 708.995C249.745 709.321 249.564 709.698 249.19 709.839C248.817 709.98 248.387 709.831 248.236 709.508L248.236 709.506L246.152 704.986C246.006 704.67 246.186 704.301 246.553 704.163C246.919 704.027 247.336 704.172 247.482 704.489L247.498 704.524L247.499 704.521Z" fill="#BDD0FB"/>
<path d="M252.233 713.248L254.933 717.431L254.953 717.464C255.159 717.782 255.027 718.194 254.655 718.382C254.286 718.57 253.817 718.466 253.612 718.145L253.612 718.142L250.896 713.878C250.697 713.566 250.831 713.162 251.193 712.979C251.555 712.797 252.01 712.901 252.21 713.213L252.233 713.248Z" fill="#BDD0FB"/>
<path d="M258.167 721.466L261.378 725.391L261.398 725.418C261.652 725.727 261.567 726.167 261.203 726.396C260.843 726.626 260.343 726.563 260.09 726.251L260.09 726.248L256.859 722.256C256.612 721.949 256.699 721.521 257.056 721.297C257.409 721.073 257.896 721.138 258.143 721.442L258.164 721.469L258.167 721.466Z" fill="#BDD0FB"/>
<path d="M265.045 729.178L268.642 732.855L268.663 732.876C268.958 733.178 268.914 733.641 268.559 733.907C268.208 734.173 267.681 734.146 267.387 733.842L263.769 730.106C263.481 729.808 263.527 729.357 263.875 729.096C264.222 728.836 264.732 728.865 265.02 729.16L265.042 729.181L265.045 729.178Z" fill="#BDD0FB"/>
<path d="M272.64 736.419L276.541 739.871L276.559 739.889C276.891 740.181 276.882 740.662 276.541 740.961C276.2 741.261 275.653 741.265 275.321 740.973L271.398 737.468C271.072 737.179 271.084 736.707 271.424 736.414C271.761 736.123 272.295 736.118 272.621 736.406L272.639 736.425L272.64 736.419Z" fill="#BDD0FB"/>
<path d="M280.801 743.225L284.951 746.464L284.97 746.48C285.333 746.765 285.359 747.261 285.028 747.591C284.695 747.918 284.131 747.954 283.764 747.671L279.592 744.384C279.235 744.102 279.212 743.612 279.542 743.291C279.868 742.969 280.422 742.936 280.779 743.215L280.797 743.231L280.801 743.225Z" fill="#BDD0FB"/>
<path d="M289.426 749.623L293.785 752.658L293.803 752.67C294.197 752.946 294.259 753.457 293.936 753.815C293.612 754.172 293.032 754.237 292.635 753.961L288.254 750.878C287.866 750.605 287.811 750.101 288.13 749.752C288.449 749.403 289.019 749.341 289.407 749.61L289.426 749.623Z" fill="#BDD0FB"/>
<path d="M298.44 755.624L302.979 758.461L302.998 758.473C303.423 758.74 303.514 759.264 303.205 759.648C302.892 760.03 302.296 760.124 301.87 759.86L297.305 756.978C296.889 756.715 296.802 756.197 297.11 755.822C297.419 755.448 298.005 755.357 298.421 755.617L298.439 755.63L298.44 755.624Z" fill="#BDD0FB"/>
<path d="M307.801 761.245L312.504 763.885L312.523 763.897C312.977 764.151 313.102 764.691 312.804 765.099C312.506 765.507 311.893 765.633 311.44 765.379L306.707 762.697C306.26 762.443 306.14 761.913 306.438 761.513C306.735 761.114 307.334 760.993 307.778 761.241L307.797 761.254L307.801 761.245Z" fill="#BDD0FB"/>
<path d="M317.469 766.474L322.325 768.907L322.347 768.917C322.828 769.158 322.99 769.707 322.706 770.144C322.422 770.578 321.8 770.736 321.315 770.495L316.427 768.019C315.952 767.778 315.796 767.235 316.08 766.81C316.363 766.385 316.971 766.233 317.447 766.47L317.469 766.48L317.469 766.474Z" fill="#BDD0FB"/>
<path d="M327.423 771.297L332.421 773.507L332.447 773.517C332.96 773.743 333.158 774.301 332.888 774.764C332.622 775.227 331.989 775.417 331.476 775.189L326.439 772.933C325.936 772.708 325.744 772.156 326.01 771.702C326.275 771.251 326.894 771.065 327.398 771.284L327.423 771.294L327.423 771.297Z" fill="#BDD0FB"/>
<path d="M337.651 775.681L342.788 777.64L342.817 777.651C343.359 777.858 343.597 778.42 343.355 778.91C343.109 779.399 342.473 779.627 341.931 779.423L341.925 779.422L336.741 777.416C336.21 777.209 335.975 776.653 336.219 776.172C336.464 775.692 337.089 775.47 337.622 775.673L337.651 775.684L337.651 775.681Z" fill="#BDD0FB"/>
<path d="M348.137 779.562L353.411 781.227L353.447 781.237C354.018 781.417 354.306 781.984 354.092 782.502C353.877 783.02 353.237 783.293 352.665 783.113L352.659 783.113L347.325 781.401C346.764 781.219 346.482 780.661 346.696 780.152C346.91 779.644 347.54 779.376 348.101 779.555L348.137 779.565L348.137 779.562Z" fill="#BDD0FB"/>
<path d="M358.878 782.847L364.283 784.14L364.322 784.148C364.924 784.29 365.269 784.853 365.096 785.4C364.922 785.947 364.297 786.275 363.695 786.132C361.86 785.702 360.035 785.237 358.204 784.793C357.609 784.647 357.27 784.091 357.446 783.553C357.622 783.012 358.247 782.691 358.839 782.836L358.881 782.847L358.878 782.847Z" fill="#BDD0FB"/>
<path d="M369.848 785.403L375.37 786.267L375.422 786.276C376.032 786.371 376.428 786.9 376.308 787.459C376.187 788.018 375.597 788.394 374.987 788.298L369.356 787.426C368.743 787.33 368.344 786.798 368.465 786.236C368.586 785.673 369.179 785.295 369.792 785.391L369.848 785.4L369.848 785.403Z" fill="#BDD0FB"/>
<path d="M381.017 787.107L386.626 787.462L386.686 787.465C387.298 787.504 387.748 787.997 387.691 788.57C387.633 789.139 387.092 789.57 386.477 789.531L380.747 789.179C380.132 789.141 379.678 788.647 379.736 788.075C379.793 787.502 380.338 787.069 380.953 787.107L381.013 787.11L381.017 787.107Z" fill="#BDD0FB"/>
<path d="M392.303 787.88L397.927 787.67L397.991 787.667C398.601 787.644 399.099 788.078 399.109 788.634C399.119 789.192 398.635 789.66 398.025 789.683L392.279 789.909C391.669 789.932 391.161 789.498 391.151 788.939C391.142 788.377 391.629 787.903 392.239 787.88L392.303 787.877L392.303 787.88Z" fill="#BDD0FB"/>
<path d="M403.571 787.6L409.138 786.817L409.198 786.807C409.796 786.724 410.342 787.09 410.42 787.629C410.497 788.167 410.077 788.67 409.483 788.754L403.794 789.565C403.192 789.652 402.643 789.282 402.566 788.741C402.486 788.199 402.909 787.693 403.51 787.609L403.575 787.6L403.571 787.6Z" fill="#BDD0FB"/>
<path d="M414.684 786.23L420.127 784.895L420.185 784.879C420.764 784.739 421.348 785.038 421.49 785.552C421.633 786.067 421.283 786.597 420.708 786.738L415.148 788.114C414.569 788.257 413.978 787.955 413.833 787.44C413.687 786.926 414.04 786.389 414.619 786.245L414.68 786.23L414.684 786.23Z" fill="#BDD0FB"/>
<path d="M425.513 783.796L430.768 781.945L430.823 781.926C431.376 781.732 431.988 781.968 432.192 782.454C432.396 782.941 432.115 783.491 431.566 783.685L426.206 785.582C425.653 785.779 425.035 785.543 424.831 785.054C424.624 784.567 424.905 784.011 425.461 783.817L425.516 783.799L425.513 783.796Z" fill="#BDD0FB"/>
<path d="M435.934 780.364L440.957 778.055L441.002 778.034C441.521 777.796 442.154 777.969 442.41 778.425C442.666 778.878 442.454 779.442 441.935 779.681L436.824 782.041C436.301 782.283 435.665 782.109 435.406 781.653C435.147 781.197 435.359 780.629 435.882 780.388L435.93 780.367L435.934 780.364Z" fill="#BDD0FB"/>
<path d="M445.864 776.047L450.627 773.346L450.665 773.324C451.154 773.048 451.794 773.168 452.095 773.589C452.397 774.012 452.247 774.58 451.759 774.856L446.922 777.61C446.433 777.889 445.786 777.769 445.482 777.345C445.177 776.921 445.33 776.348 445.819 776.069L445.861 776.047L445.864 776.047Z" fill="#BDD0FB"/>
<path d="M455.268 770.965L459.766 767.936L459.797 767.914C460.252 767.608 460.895 767.678 461.235 768.07C461.572 768.461 461.479 769.029 461.021 769.335L456.463 772.416C456.005 772.725 455.358 772.658 455.018 772.264C454.678 771.869 454.772 771.298 455.23 770.989L455.265 770.968L455.268 770.965Z" fill="#BDD0FB"/>
<path d="M464.138 765.236L468.372 761.937L468.397 761.918C468.82 761.588 469.463 761.614 469.828 761.977C470.193 762.34 470.147 762.902 469.724 763.231L465.446 766.58C465.019 766.913 464.376 766.886 464.008 766.521C463.64 766.155 463.686 765.59 464.113 765.258L464.141 765.236L464.138 765.236Z" fill="#BDD0FB"/>
<path d="M472.477 758.973L476.466 755.45L476.487 755.43C476.882 755.083 477.517 755.074 477.904 755.41C478.29 755.747 478.288 756.3 477.893 756.651L473.871 760.219C473.476 760.57 472.838 760.582 472.448 760.242C472.058 759.906 472.061 759.346 472.459 758.996L472.483 758.976L472.477 758.973Z" fill="#BDD0FB"/>
<path d="M480.328 752.263L484.084 748.557L484.102 748.54C484.471 748.178 485.095 748.137 485.5 748.45C485.905 748.764 485.936 749.309 485.567 749.672L481.784 753.42C481.415 753.785 480.787 753.826 480.379 753.513C479.971 753.199 479.94 752.651 480.309 752.285L480.327 752.269L480.328 752.263Z" fill="#BDD0FB"/>
<path d="M487.722 745.181L491.267 741.325L491.282 741.309C491.624 740.937 492.24 740.869 492.656 741.16C493.073 741.45 493.134 741.984 492.791 742.359L489.226 746.254C488.883 746.629 488.264 746.699 487.845 746.406C487.425 746.115 487.361 745.575 487.707 745.201L487.722 745.184L487.722 745.181Z" fill="#BDD0FB"/>
<path d="M494.717 737.798L498.159 733.852C498.486 733.474 499.093 733.394 499.513 733.667C499.934 733.943 500.012 734.472 499.686 734.85L496.246 738.808C495.916 739.185 495.305 739.267 494.882 738.989C494.459 738.71 494.38 738.178 494.71 737.8L494.711 737.795L494.717 737.798Z" fill="#BDD0FB"/>
<path d="M501.57 730.286L504.991 726.325C505.31 725.953 505.91 725.871 506.328 726.14C506.746 726.41 506.825 726.933 506.505 727.305L503.094 731.275C502.771 731.65 502.167 731.733 501.747 731.46C501.326 731.187 501.247 730.661 501.57 730.286Z" fill="#BDD0FB"/>
<path d="M508.389 722.749L511.809 718.789C512.128 718.422 512.719 718.339 513.133 718.609C513.544 718.878 513.624 719.393 513.304 719.762L509.894 723.726C509.574 724.099 508.981 724.181 508.563 723.912C508.146 723.642 508.066 723.124 508.386 722.752L508.389 722.749Z" fill="#BDD0FB"/>
<path d="M515.224 715.224L518.672 711.281C518.988 710.92 519.574 710.842 519.982 711.109C520.387 711.375 520.46 711.889 520.142 712.25L516.706 716.194C516.391 716.56 515.8 716.641 515.392 716.374C514.981 716.107 514.905 715.593 515.22 715.229L515.22 715.226L515.224 715.224Z" fill="#BDD0FB"/>
<path d="M522.126 707.744L525.625 703.834C525.943 703.479 526.523 703.41 526.921 703.679C527.319 703.948 527.383 704.453 527.065 704.808L527.064 704.811L523.579 708.719L523.578 708.725C523.257 709.083 522.673 709.155 522.272 708.883C521.871 708.613 521.804 708.105 522.125 707.747L522.126 707.744Z" fill="#BDD0FB"/>
<path d="M529.15 700.337L532.733 696.468C533.053 696.121 533.626 696.061 534.014 696.332C534.402 696.604 534.457 697.103 534.136 697.45L534.136 697.456L530.57 701.317L530.563 701.322C530.242 701.672 529.663 701.732 529.272 701.46C528.88 701.188 528.826 700.683 529.147 700.334L529.15 700.337Z" fill="#BDD0FB"/>
<path d="M536.341 693.04L540.019 689.239C540.345 688.904 540.913 688.854 541.288 689.131C541.663 689.408 541.705 689.905 541.378 690.24L541.371 690.245L537.715 694.036L537.708 694.044C537.381 694.382 536.809 694.431 536.431 694.154C536.053 693.877 536.011 693.378 536.338 693.04L536.341 693.04Z" fill="#BDD0FB"/>
<path d="M543.744 685.894L547.548 682.176C547.88 681.852 548.441 681.817 548.806 682.1C549.167 682.382 549.193 682.872 548.86 683.199L548.853 683.207L545.077 686.915L545.066 686.923C544.733 687.25 544.166 687.285 543.801 687.002C543.437 686.72 543.411 686.224 543.744 685.897L543.744 685.894Z" fill="#BDD0FB"/>
<path d="M551.393 678.923L555.29 675.284C555.625 674.969 556.182 674.948 556.533 675.233C556.885 675.518 556.895 676.005 556.56 676.32L556.552 676.326L552.679 679.957L552.672 679.963C552.333 680.281 551.773 680.302 551.422 680.017C551.067 679.728 551.058 679.238 551.393 678.923Z" fill="#BDD0FB"/>
<path d="M559.238 672.116L563.259 668.565C563.599 668.265 564.152 668.255 564.486 668.548C564.821 668.839 564.818 669.323 564.474 669.624L564.463 669.632L560.47 673.172L560.459 673.181C560.115 673.484 559.563 673.494 559.225 673.2C558.887 672.907 558.89 672.422 559.234 672.119L559.238 672.116Z" fill="#BDD0FB"/>
<path d="M567.351 665.515L571.529 662.09C571.878 661.804 572.423 661.814 572.74 662.113C573.058 662.412 573.032 662.89 572.683 663.177L572.669 663.188L568.526 666.596L568.511 666.607C568.159 666.897 567.614 666.886 567.293 666.587C566.972 666.285 566.998 665.807 567.347 665.518L567.351 665.515Z" fill="#BDD0FB"/>
<path d="M575.799 659.206L580.171 655.954C580.532 655.685 581.066 655.718 581.363 656.028C581.66 656.338 581.609 656.808 581.247 657.077L581.229 657.09L576.903 660.321L576.885 660.335C576.52 660.607 575.984 660.574 575.683 660.26C575.383 659.947 575.435 659.475 575.8 659.203L575.799 659.206Z" fill="#BDD0FB"/>
<path d="M584.65 653.283L589.241 650.256C589.614 650.01 590.139 650.072 590.409 650.394C590.679 650.715 590.595 651.179 590.222 651.425L590.201 651.438L585.662 654.441L585.64 654.458C585.264 654.706 584.736 654.644 584.463 654.32C584.19 653.995 584.274 653.529 584.65 653.28L584.65 653.283Z" fill="#BDD0FB"/>
<path d="M593.962 647.854L598.801 645.122C599.189 644.903 599.698 644.999 599.938 645.335C600.177 645.671 600.055 646.123 599.667 646.346L599.639 646.362L594.865 649.07L594.837 649.087C594.446 649.309 593.933 649.213 593.691 648.873C593.448 648.534 593.571 648.08 593.962 647.857L593.962 647.854Z" fill="#BDD0FB"/>
<path d="M603.784 643.063L608.882 640.702C609.287 640.514 609.777 640.648 609.979 641.002C610.181 641.356 610.016 641.794 609.611 641.982L609.577 641.998L604.557 644.336L604.522 644.352C604.117 644.539 603.62 644.405 603.418 644.051C603.216 643.697 603.378 643.253 603.787 643.066L603.784 643.063Z" fill="#BDD0FB"/>
<path d="M614.121 639.065L619.469 637.172C619.881 637.025 620.341 637.203 620.493 637.567C620.644 637.93 620.439 638.342 620.027 638.489L619.985 638.505L614.732 640.393L614.69 640.409C614.271 640.559 613.8 640.383 613.643 640.011C613.486 639.638 613.695 639.217 614.118 639.068L614.121 639.065Z" fill="#BDD0FB"/>
<path d="M624.953 636.041L630.507 634.697C630.919 634.596 631.334 634.817 631.436 635.182C631.534 635.55 631.285 635.925 630.876 636.027L630.828 636.039L625.374 637.387L625.326 637.4C624.907 637.504 624.482 637.283 624.378 636.909C624.273 636.535 624.53 636.147 624.949 636.043L624.953 636.041Z" fill="#BDD0FB"/>
<path d="M636.169 634.123L641.863 633.401C642.268 633.35 642.634 633.606 642.679 633.974C642.725 634.34 642.436 634.681 642.034 634.732L641.987 634.739L636.392 635.478L636.345 635.485C635.933 635.539 635.557 635.28 635.509 634.902C635.461 634.527 635.754 634.177 636.169 634.123Z" fill="#BDD0FB"/>
<path d="M647.621 633.397L653.361 633.345C653.753 633.341 654.063 633.637 654.057 634.001C654.05 634.366 653.731 634.665 653.342 634.672L653.299 634.669L647.65 634.755L647.603 634.753C647.204 634.762 646.884 634.463 646.888 634.089C646.892 633.715 647.219 633.406 647.618 633.4L647.621 633.397Z" fill="#BDD0FB"/>
<path d="M659.13 633.938L664.791 634.605C665.159 634.648 665.414 634.966 665.358 635.312C665.303 635.659 664.961 635.907 664.594 635.864L664.56 635.862L658.967 635.233L658.927 635.231C658.549 635.187 658.288 634.863 658.34 634.507C658.393 634.151 658.745 633.897 659.123 633.937L659.13 633.938Z" fill="#BDD0FB"/>
<path d="M670.476 635.698L676.028 636.822C676.373 636.891 676.584 637.209 676.5 637.529C676.416 637.849 676.069 638.051 675.723 637.983L675.697 637.981L670.192 636.893L670.165 636.892C669.811 636.817 669.594 636.495 669.678 636.166C669.763 635.837 670.118 635.628 670.473 635.698L670.476 635.698Z" fill="#BDD0FB"/>
<path d="M681.61 638.291L687.009 639.865C687.328 639.959 687.498 640.271 687.387 640.564C687.275 640.856 686.931 641.016 686.611 640.925L686.579 640.918L681.233 639.388L681.203 639.381C680.874 639.286 680.701 638.968 680.813 638.667C680.926 638.365 681.281 638.199 681.61 638.291Z" fill="#BDD0FB"/>
<path d="M692.423 641.795L697.542 643.962C697.829 644.083 697.945 644.39 697.803 644.653C697.66 644.913 697.314 645.025 697.028 644.904L696.983 644.887L691.935 642.781L691.893 642.764C691.597 642.64 691.477 642.326 691.62 642.057C691.767 641.789 692.12 641.673 692.416 641.795L692.423 641.795Z" fill="#BDD0FB"/>
<path d="M702.583 646.583C704.146 647.516 705.644 648.536 707.033 649.672C707.25 649.852 707.26 650.155 707.05 650.354C706.843 650.551 706.496 650.567 706.279 650.39C704.934 649.297 703.468 648.313 701.94 647.412C701.684 647.262 701.621 646.954 701.797 646.724C701.974 646.494 702.324 646.43 702.58 646.58L702.583 646.583Z" fill="#BDD0FB"/>
<path d="M710.988 653.43C712.047 654.795 712.899 656.3 713.431 657.905C713.509 658.139 713.352 658.391 713.082 658.465C712.813 658.539 712.532 658.408 712.451 658.175C711.943 656.671 711.132 655.254 710.117 653.96C709.954 653.754 710.019 653.467 710.259 653.319C710.498 653.172 710.826 653.221 710.988 653.427L710.988 653.43Z" fill="#BDD0FB"/>
<defs>
<linearGradient id="paint0_linear_26_5282" x1="265.035" y1="326.649" x2="246.71" y2="280.972" gradientUnits="userSpaceOnUse">
<stop stop-color="#DAE3FE"/>
<stop offset="1" stop-color="#E9EFFD"/>
</linearGradient>
<linearGradient id="paint1_linear_26_5282" x1="189.94" y1="353.996" x2="171.767" y2="308.713" gradientUnits="userSpaceOnUse">
<stop stop-color="#DAE3FE"/>
<stop offset="1" stop-color="#E9EFFD"/>
</linearGradient>
<linearGradient id="paint2_linear_26_5282" x1="225.998" y1="329.123" x2="169.061" y2="185.185" gradientUnits="userSpaceOnUse">
<stop stop-color="#4C86F4"/>
<stop offset="1" stop-color="#6A9DFE"/>
</linearGradient>
<linearGradient id="paint3_linear_26_5282" x1="206.056" y1="234.836" x2="186.861" y2="271.187" gradientUnits="userSpaceOnUse">
<stop stop-color="#4F52FF"/>
<stop offset="1" stop-color="#4042E2"/>
</linearGradient>
<linearGradient id="paint4_linear_26_5282" x1="28.9048" y1="295.896" x2="95.7583" y2="282.87" gradientUnits="userSpaceOnUse">
<stop stop-color="#09005D"/>
<stop offset="1" stop-color="#1A0F91"/>
</linearGradient>
<linearGradient id="paint5_linear_26_5282" x1="215.542" y1="276.912" x2="202.862" y2="300.926" gradientUnits="userSpaceOnUse">
<stop stop-color="#4F52FF"/>
<stop offset="1" stop-color="#4042E2"/>
</linearGradient>
<linearGradient id="paint6_linear_26_5282" x1="144.529" y1="291.78" x2="189.569" y2="293.46" gradientUnits="userSpaceOnUse">
<stop stop-color="#09005D"/>
<stop offset="1" stop-color="#1A0F91"/>
</linearGradient>
</defs>
</svg>
