<svg width="255" height="255" viewBox="0 0 255 255" fill="none" xmlns="http://www.w3.org/2000/svg">
<g opacity="0.15">
<path d="M16.7414 93.4287C18.0818 98.0244 19.942 102.456 22.2945 106.614L15.5925 115.067C13.4041 117.83 13.6503 121.769 16.1122 124.258L27.6562 135.802C30.1455 138.291 34.0847 138.51 36.8475 136.321L45.2456 129.674C49.5677 132.164 54.1634 134.106 58.9506 135.473L60.2089 146.279C60.6193 149.78 63.5736 152.406 67.0751 152.406H83.4062C86.9077 152.406 89.862 149.78 90.2724 146.279L91.476 135.856C96.6188 134.516 101.543 132.519 106.166 129.92L114.29 136.349C117.053 138.537 120.992 138.291 123.482 135.829L135.026 124.285C137.515 121.796 137.734 117.857 135.545 115.094L129.226 107.079C131.852 102.537 133.904 97.6958 135.272 92.6351L145.01 91.5135C148.512 91.1032 151.138 88.1488 151.138 84.6474V68.3163C151.138 64.8148 148.512 61.8604 145.01 61.4501L135.409 60.3285C134.095 55.3225 132.126 50.5354 129.609 46.0491L135.518 38.5811C137.707 35.8182 137.46 31.8791 134.998 29.3897L123.482 17.8732C120.993 15.3839 117.053 15.165 114.291 17.3534L107.041 23.098C102.336 20.3352 97.3027 18.2288 92.0234 16.8063L90.9292 7.42348C90.5188 3.922 87.5645 1.2959 84.063 1.2959H67.7319C64.2304 1.2959 61.2761 3.922 60.8657 7.42348L59.7715 16.8063C54.3552 18.2562 49.185 20.4446 44.3705 23.3169L36.8478 17.3534C34.0849 15.165 30.1458 15.4112 27.6564 17.8732L16.1125 29.4171C13.6232 31.9064 13.4044 35.8456 15.5928 38.6085L21.8845 46.5689C19.3678 51.1098 17.4529 55.9517 16.1946 60.9851L6.12785 62.134C2.62638 62.5443 0.000274658 65.4987 0.000274658 69.0002V85.3313C0.000274658 88.8327 2.62638 91.7871 6.12785 92.1974L16.7414 93.4287ZM75.9108 49.2499C90.7921 49.2499 102.91 61.3683 102.91 76.2496C102.91 91.1308 90.7921 103.249 75.9108 103.249C61.0299 103.249 48.9112 91.1308 48.9112 76.2496C48.9112 61.3683 61.0296 49.2499 75.9108 49.2499Z" fill="white"/>
<path d="M237.361 97.4499L228.744 90.1734C226.091 87.9303 222.179 88.0397 219.663 90.4196L214.903 94.8785C210.882 92.9363 206.615 91.5685 202.21 90.7752L200.87 84.2099C200.186 80.8179 197.04 78.4653 193.593 78.7389L182.35 79.6963C178.903 79.9972 176.195 82.8148 176.086 86.2889L175.867 92.9636C171.545 94.5229 167.469 96.6566 163.749 99.3374L158.059 95.5624C155.159 93.6475 151.302 94.1946 149.059 96.8481L141.783 105.52C139.539 108.173 139.649 112.085 142.028 114.602L147.007 119.908C145.284 123.793 144.053 127.869 143.342 132.054L136.229 133.504C132.837 134.188 130.485 137.334 130.758 140.781L131.716 152.024C132.016 155.47 134.834 158.179 138.308 158.288L145.995 158.534C147.391 162.2 149.223 165.674 151.439 168.929L147.144 175.412C145.229 178.312 145.776 182.169 148.43 184.412L157.047 191.688C159.7 193.932 163.612 193.822 166.129 191.442L171.764 186.163C175.457 187.886 179.341 189.172 183.335 189.938L184.894 197.652C185.578 201.044 188.724 203.397 192.171 203.123L203.414 202.166C206.861 201.865 209.569 199.047 209.678 195.573L209.925 188.023C214.028 186.573 217.912 184.603 221.496 182.169L227.705 186.272C230.605 188.187 234.462 187.64 236.705 184.986L243.982 176.37C246.225 173.716 246.115 169.804 243.736 167.288L238.729 161.981C240.562 158.097 241.903 153.993 242.669 149.78L249.507 148.385C252.899 147.701 255.252 144.555 254.978 141.108L254.021 129.865C253.72 126.419 250.902 123.71 247.428 123.601L240.562 123.382C239.139 119.388 237.225 115.614 234.845 112.112L238.592 106.477C240.562 103.577 240.015 99.693 237.361 97.4499ZM194.989 162.446C182.843 163.485 172.119 154.431 171.107 142.285C170.067 130.139 179.123 119.416 191.268 118.404C203.413 117.364 214.137 126.419 215.149 138.565C216.189 150.711 207.134 161.434 194.989 162.446Z" fill="white"/>
<path d="M56.0783 192.701C52.6315 193.057 49.9781 195.956 49.9507 199.43L49.8687 206.351C49.8139 209.825 52.3853 212.78 55.8321 213.218L60.9202 213.874C61.7682 216.965 62.9718 219.92 64.5311 222.71L61.2484 226.759C59.06 229.466 59.2242 233.351 61.6588 235.841L66.5007 240.792C68.9353 243.281 72.8197 243.555 75.5826 241.421L79.6583 238.275C82.5306 239.971 85.5673 241.312 88.7402 242.242L89.2873 247.494C89.6429 250.941 92.5426 253.594 96.0167 253.621L102.938 253.704C106.412 253.758 109.366 251.187 109.804 247.74L110.433 242.761C113.88 241.913 117.163 240.628 120.281 238.932L124.111 242.023C126.819 244.211 130.704 244.047 133.193 241.612L138.144 236.771C140.634 234.336 140.907 230.452 138.774 227.689L135.846 223.886C137.652 220.877 139.047 217.676 140.005 214.312L144.545 213.847C147.992 213.491 150.645 210.591 150.673 207.117L150.755 200.196C150.81 196.722 148.238 193.768 144.792 193.33L140.36 192.755C139.512 189.418 138.254 186.19 136.612 183.181L139.375 179.789C141.564 177.081 141.4 173.196 138.965 170.707L134.123 165.756C131.689 163.266 127.804 162.993 125.041 165.127L121.731 167.671C118.613 165.783 115.275 164.333 111.774 163.349L111.336 159.054C110.98 155.607 108.081 152.954 104.607 152.926L97.6857 152.844C94.2115 152.789 91.2572 155.361 90.8192 158.808L90.2721 163.075C86.6615 164.005 83.1874 165.428 79.9594 167.288L76.54 164.497C73.8319 162.309 69.9471 162.473 67.4578 164.908L62.4792 169.777C59.9898 172.212 59.7163 176.096 61.85 178.859L64.777 182.634C63.081 185.643 61.7406 188.844 60.8652 192.209L56.0783 192.701ZM100.749 184.877C110.679 184.987 118.64 193.166 118.53 203.096C118.421 213.026 110.241 220.986 100.311 220.877C90.3815 220.767 82.4214 212.588 82.5306 202.658C82.6403 192.728 90.8195 184.768 100.749 184.877Z" fill="white"/>
</g>
</svg>
