<svg width="80" height="80" viewBox="0 0 80 80" fill="none" xmlns="http://www.w3.org/2000/svg">
<g filter="url(#filter0_d_19_1656)">
<circle cx="40" cy="36" r="30" fill="white"/>
<path fill-rule="evenodd" clip-rule="evenodd" d="M67.7778 35.9999C67.7778 51.3412 55.3413 63.7777 40 63.7777C24.6588 63.7777 12.2222 51.3412 12.2222 35.9999C12.2222 20.6587 24.6588 8.22217 40 8.22217C55.3413 8.22217 67.7778 20.6587 67.7778 35.9999ZM40.9088 51.4543H40.9156C50.0225 51.4505 57.4294 44.0419 57.433 34.9369C57.4348 30.5235 55.7183 26.3736 52.5998 23.2516C49.4813 20.1294 45.3341 18.4093 40.9154 18.4074C31.8111 18.4074 24.4014 25.8167 24.3977 34.9238C24.3965 37.835 25.1571 40.6765 26.6026 43.1815L24.2592 51.7407L33.0154 49.4438C35.428 50.7597 38.1443 51.4533 40.9088 51.4543Z" fill="#70D87B"/>
<path fill-rule="evenodd" clip-rule="evenodd" d="M33.9224 46.7511L33.4211 46.4536L28.2251 47.8166L29.612 42.7505L29.2856 42.2311C27.9113 40.0453 27.1855 37.5189 27.1865 34.9249C27.1895 27.3554 33.3483 21.1973 40.921 21.1973C44.5879 21.1985 48.0349 22.6283 50.6269 25.2234C53.2189 27.8184 54.6455 31.2676 54.6441 34.936C54.6411 42.5059 48.4824 48.6647 40.9156 48.6647H40.91C38.4465 48.6638 36.0303 48.0019 33.9224 46.7511ZM48.6718 38.4932C48.9597 38.6323 49.1541 38.7262 49.2371 38.8648C49.3402 39.0368 49.3402 39.8632 48.9965 40.8274C48.6524 41.7914 47.0036 42.6713 46.2106 42.7898C45.4996 42.8961 44.5998 42.9404 43.6111 42.6262C43.0117 42.436 42.243 42.1821 41.2583 41.7568C37.3892 40.0862 34.7744 36.3361 34.2802 35.6274C34.2456 35.5777 34.2214 35.543 34.2079 35.525L34.2046 35.5205C33.9861 35.2291 32.5227 33.2765 32.5227 31.2556C32.5227 29.3545 33.4565 28.358 33.8864 27.8994C33.9158 27.8679 33.9429 27.839 33.9671 27.8125C34.3454 27.3993 34.7926 27.296 35.0677 27.296C35.3428 27.296 35.6183 27.2986 35.8587 27.3107C35.8884 27.3122 35.9193 27.312 35.9512 27.3118C36.1917 27.3104 36.4915 27.3086 36.7873 28.0191C36.9011 28.2926 37.0676 28.6979 37.2432 29.1254C37.5984 29.99 37.9908 30.9454 38.0598 31.0836C38.163 31.2902 38.2318 31.5311 38.0942 31.8067C38.0736 31.848 38.0545 31.887 38.0362 31.9243C37.9329 32.1352 37.8569 32.2904 37.6815 32.4951C37.6125 32.5757 37.5413 32.6625 37.47 32.7493C37.328 32.9222 37.186 33.0951 37.0624 33.2182C36.8558 33.424 36.6407 33.6473 36.8815 34.0605C37.1222 34.4737 37.9505 35.8252 39.1774 36.9196C40.4963 38.096 41.6426 38.5932 42.2237 38.8452C42.3371 38.8944 42.429 38.9343 42.4965 38.9681C42.909 39.1747 43.1498 39.1401 43.3905 38.8648C43.6313 38.5893 44.4223 37.6596 44.6973 37.2465C44.9724 36.8334 45.2477 36.9022 45.6259 37.0399C46.0043 37.1778 48.0334 38.1761 48.4461 38.3827C48.5267 38.423 48.602 38.4594 48.6718 38.4932Z" fill="#70D87B"/>
</g>
<defs>
<filter id="filter0_d_19_1656" x="0" y="0" width="80" height="80" filterUnits="userSpaceOnUse" color-interpolation-filters="sRGB">
<feFlood flood-opacity="0" result="BackgroundImageFix"/>
<feColorMatrix in="SourceAlpha" type="matrix" values="0 0 0 0 0 0 0 0 0 0 0 0 0 0 0 0 0 0 127 0" result="hardAlpha"/>
<feOffset dy="4"/>
<feGaussianBlur stdDeviation="5"/>
<feComposite in2="hardAlpha" operator="out"/>
<feColorMatrix type="matrix" values="0 0 0 0 0.0857812 0 0 0 0 0.15563 0 0 0 0 0.254167 0 0 0 0.2 0"/>
<feBlend mode="normal" in2="BackgroundImageFix" result="effect1_dropShadow_19_1656"/>
<feBlend mode="normal" in="SourceGraphic" in2="effect1_dropShadow_19_1656" result="shape"/>
</filter>
</defs>
</svg>
